<svg width="548.000000" height="259.000000" viewBox="0 0 548 259" fill="none" xmlns="http://www.w3.org/2000/svg" xmlns:xlink="http://www.w3.org/1999/xlink">
	<desc>
			Created with Pixso.
	</desc>
	<defs/>
	<path id="*" d="M19.25 249.97L19.02 251.87L16.31 251.37L17.56 253.83L15.79 254.58L14.89 251.98L13.39 254.29L11.84 253.14L13.64 251.04L10.89 250.9L11.12 249L13.83 249.51L12.57 247.04L14.35 246.3L15.26 248.89L16.75 246.58L18.3 247.73L16.5 249.83L19.25 249.97Z" fill="#1C1A4A" fill-opacity="1.000000" fill-rule="evenodd"/>
	<path id="E" d="M31.1 219.82L28.88 229.39L14.71 226.11L16.93 216.56L19.4 217.13L17.88 223.68L21.25 224.46L22.66 218.41L25.13 218.98L23.72 225.04L27.11 225.82L28.63 219.24L31.1 219.82Z" fill="#1C1A4A" fill-opacity="1.000000" fill-rule="evenodd"/>
	<path id="d" d="M29.35 197.9C33.68 199.26 35.5 202.64 34.17 206.87L32.63 211.79L18.75 207.44L20.3 202.48C21.62 198.29 25.02 196.55 29.35 197.9ZM22.19 205.29L31.03 208.06L31.62 206.2C32.43 203.59 31.52 201.8 28.43 200.83C25.34 199.86 23.59 200.82 22.77 203.43L22.19 205.29Z" fill="#1C1A4A" fill-opacity="1.000000" fill-rule="evenodd"/>
	<path id="u" d="M37.33 181.71L28.82 178.26L29.98 175.41L38.73 178.96C41.68 180.16 42.74 183.19 41.38 186.54C40.02 189.9 37.15 191.33 34.2 190.14L25.45 186.59L26.6 183.74L35.12 187.19C36.65 187.81 38.21 187.18 38.88 185.53C39.55 183.87 38.87 182.34 37.33 181.71Z" fill="#1C1A4A" fill-opacity="1.000000" fill-rule="evenodd"/>
	<path id="c" d="M36.54 160.44C38.05 157.43 40.92 156.03 44.1 157.18L42.7 159.96C41.17 159.45 39.75 160.1 39 161.6C37.98 163.61 38.86 165.71 41.57 167.07C44.34 168.47 46.48 167.87 47.48 165.9C48.21 164.43 47.96 162.93 46.71 161.98L48.12 159.2C50.36 160.71 51.56 163.83 49.88 167.16C48.13 170.64 44.4 171.98 40.16 169.85C35.91 167.71 34.81 163.87 36.54 160.44Z" fill="#1C1A4A" fill-opacity="1.000000" fill-rule="evenodd"/>
	<path id="a" d="M54.98 150.32L57.26 152.96L55.56 155.77L45.71 143.94L47.76 140.56L62.8 143.8L61.1 146.62L57.7 145.82L54.98 150.32ZM49.55 144.02L53.33 148.4L55.25 145.24L49.61 143.92L49.55 144.02Z" fill="#1C1A4A" fill-opacity="1.000000" fill-rule="evenodd"/>
	<path id="t" d="M58.22 128.45L55.64 132.08L53.58 130.61L60.5 120.87L62.56 122.34L59.98 125.97L69.77 132.93L68.01 135.41L58.22 128.45Z" fill="#1C1A4A" fill-opacity="1.000000" fill-rule="evenodd"/>
	<path id="i" d="M66.96 111.75L65.03 114.15L76.37 123.26L78.3 120.86L66.96 111.75Z" fill="#1C1A4A" fill-opacity="1.000000" fill-rule="evenodd"/>
	<path id="o" d="M76.99 99.34C79.6 96.5 83.6 96.16 87.11 99.38C90.61 102.59 90.62 106.6 88.01 109.45C85.39 112.3 81.39 112.62 77.9 109.41C74.39 106.2 74.37 102.2 76.99 99.34ZM86 107.61C87.51 105.96 87.27 103.76 85 101.67C82.73 99.59 80.51 99.54 79 101.18C77.49 102.83 77.73 105.03 80.01 107.12C82.28 109.2 84.49 109.26 86 107.61Z" fill="#1C1A4A" fill-opacity="1.000000" fill-rule="evenodd"/>
	<path id="n" d="M94.91 81.42L97.16 79.34L107.02 90.04L105.06 91.84L94.21 89.4L94.13 89.47L100.33 96.2L98.07 98.29L88.21 87.59L90.2 85.76L101.01 88.24L101.11 88.15L94.91 81.42Z" fill="#1C1A4A" fill-opacity="1.000000" fill-rule="evenodd"/>
	<path id="*" d="M121.7 69.57L120.15 70.7L118.68 68.37L117.73 70.97L115.97 70.18L117.26 67.75L114.55 68.23L114.33 66.32L117.1 66.21L115.33 64.09L116.87 62.96L118.35 65.29L119.29 62.69L121.05 63.49L119.77 65.92L122.47 65.43L122.69 67.35L119.93 67.46L121.7 69.57Z" fill="#1C1A4A" fill-opacity="1.000000" fill-rule="evenodd"/>
	<path id="S" d="M147.23 48.11L144.67 49.57C144 48.64 142.88 48.51 141.61 49.24C140.3 49.99 139.92 51 140.39 51.81C140.89 52.73 142.04 52.61 143.28 52.23L144.57 51.85C147.05 51.09 149.27 51.29 150.48 53.39C151.8 55.71 150.83 58.22 147.75 59.98C144.69 61.74 141.93 61.45 140.3 58.76L142.88 57.28C143.69 58.49 145.05 58.56 146.44 57.76C147.8 56.99 148.31 55.86 147.79 54.93C147.29 54.08 146.3 54.13 144.73 54.58L143.17 55.03C140.74 55.73 138.82 55.42 137.75 53.56C136.43 51.27 137.58 48.58 140.35 46.99C143.16 45.38 145.9 45.88 147.23 48.11Z" fill="#1C1A4A" fill-opacity="1.000000" fill-rule="evenodd"/>
	<path id="y" d="M160.78 46.72L151.94 40.51L155.06 39.03L160.75 43.26L160.87 43.2L161.17 36.12L164.28 34.63L163.54 45.41L165.75 50.05L163 51.36L160.78 46.72Z" fill="#1C1A4A" fill-opacity="1.000000" fill-rule="evenodd"/>
	<path id="s" d="M182.89 31.3L180.14 32.36C179.62 31.34 178.54 31.04 177.17 31.57C175.76 32.11 175.23 33.06 175.57 33.93C175.93 34.91 177.09 34.97 178.37 34.78L179.7 34.6C182.26 34.22 184.43 34.76 185.31 37.01C186.27 39.5 184.93 41.84 181.62 43.12C178.33 44.39 175.64 43.69 174.43 40.78L177.21 39.71C177.83 41.03 179.16 41.3 180.66 40.73C182.11 40.16 182.79 39.12 182.42 38.13C182.05 37.22 181.07 37.11 179.45 37.32L177.83 37.53C175.33 37.86 173.47 37.26 172.7 35.26C171.74 32.8 173.28 30.31 176.25 29.16C179.27 27.99 181.91 28.89 182.89 31.3Z" fill="#1C1A4A" fill-opacity="1.000000" fill-rule="evenodd"/>
	<path id="t" d="M193.92 25.62L189.66 26.92L188.92 24.5L200.35 21.01L201.09 23.44L196.83 24.74L200.33 36.23L197.42 37.11L193.92 25.62Z" fill="#1C1A4A" fill-opacity="1.000000" fill-rule="evenodd"/>
	<path id="e" d="M220.88 30.73L211.29 32.92L208.06 18.74L217.61 16.55L218.17 19.02L211.62 20.52L212.39 23.9L218.46 22.52L219.02 24.99L212.95 26.37L213.73 29.76L220.31 28.26L220.88 30.73Z" fill="#1C1A4A" fill-opacity="1.000000" fill-rule="evenodd"/>
	<path id="m" d="M228.28 28.95L226.21 14.55L229.96 14.01L235.32 23.12L235.49 23.09L238.06 12.85L241.81 12.31L243.88 26.71L240.93 27.13L239.58 17.76L239.46 17.78L237.07 27.61L235.06 27.9L230 19.1L229.88 19.12L231.23 28.53L228.28 28.95Z" fill="#1C1A4A" fill-opacity="1.000000" fill-rule="evenodd"/>
	<path id="*" d="M266.85 18.62L264.93 18.66L265.05 15.91L262.79 17.5L261.8 15.85L264.25 14.58L261.74 13.43L262.66 11.73L264.99 13.23L264.75 10.48L266.66 10.44L266.54 13.19L268.8 11.6L269.79 13.25L267.35 14.52L269.85 15.67L268.93 17.36L266.6 15.88L266.85 18.62Z" fill="#1C1A4A" fill-opacity="1.000000" fill-rule="evenodd"/>
	<path id="c" d="M296.06 11.08C299.42 11.39 301.77 13.55 301.86 16.93L298.77 16.64C298.68 15.03 297.56 13.95 295.89 13.79C293.65 13.59 292.01 15.17 291.74 18.19C291.45 21.29 292.79 23.06 294.99 23.26C296.62 23.41 297.93 22.63 298.36 21.11L301.45 21.41C300.88 24.04 298.41 26.3 294.69 25.96C290.82 25.61 288.2 22.62 288.63 17.9C289.07 13.16 292.24 10.73 296.06 11.08Z" fill="#1C1A4A" fill-opacity="1.000000" fill-rule="evenodd"/>
	<path id="a" d="M312.63 24.52L311.01 27.6L307.76 27.04L315.19 13.56L319.09 14.24L321.55 29.43L318.3 28.87L317.81 25.41L312.63 24.52ZM316.52 17.17L313.81 22.29L317.46 22.92L316.63 17.19L316.52 17.17Z" fill="#1C1A4A" fill-opacity="1.000000" fill-rule="evenodd"/>
	<path id="n" d="M340.06 18.9L343.03 19.66L339.41 33.75L336.84 33.09L332.99 22.65L332.88 22.62L330.61 31.49L327.63 30.73L331.24 16.64L333.86 17.31L337.66 27.73L337.79 27.76L340.06 18.9Z" fill="#1C1A4A" fill-opacity="1.000000" fill-rule="evenodd"/>
	<path id="*" d="M364.27 35.29L362.48 34.61L363.63 32.11L360.93 32.72L360.64 30.82L363.38 30.57L361.5 28.56L362.99 27.33L364.59 29.6L365.4 26.97L367.19 27.65L366.03 30.15L368.73 29.53L369.02 31.44L366.28 31.68L368.16 33.69L366.67 34.92L365.07 32.66L364.27 35.29Z" fill="#1C1A4A" fill-opacity="1.000000" fill-rule="evenodd"/>
	<path id="M" d="M381.66 49.57L388.45 36.71L391.81 38.48L390.78 49L390.94 49.08L399.04 42.3L402.4 44.07L395.6 56.93L392.97 55.54L397.39 47.17L397.28 47.11L389.56 53.66L387.77 52.71L388.84 42.62L388.74 42.56L384.3 50.97L381.66 49.57Z" fill="#1C1A4A" fill-opacity="1.000000" fill-rule="evenodd"/>
	<path id="a" d="M407.13 59.97L404.42 62.17L401.65 60.39L413.75 50.87L417.08 53.01L413.43 67.96L410.66 66.18L411.54 62.81L407.13 59.97ZM413.57 54.71L409.08 58.37L412.19 60.37L413.66 54.77L413.57 54.71Z" fill="#1C1A4A" fill-opacity="1.000000" fill-rule="evenodd"/>
	<path id="k" d="M420.93 73.75L418.48 71.89L427.27 60.3L429.73 62.16L425.85 67.27L426 67.38L434.05 65.44L436.98 67.66L428.75 69.59L428.24 79.29L425.31 77.07L425.76 69.9L423.43 70.45L420.93 73.75Z" fill="#1C1A4A" fill-opacity="1.000000" fill-rule="evenodd"/>
	<path id="e" d="M441.27 90.26L433.89 83.76L443.51 72.84L450.86 79.32L449.19 81.22L444.14 76.78L441.85 79.38L446.52 83.49L444.84 85.39L440.17 81.28L437.88 83.89L442.94 88.35L441.27 90.26Z" fill="#1C1A4A" fill-opacity="1.000000" fill-rule="evenodd"/>
	<path id="*" d="M462.32 102.63L461.03 101.22L463.18 99.5L460.49 98.84L461.09 97L463.65 98.02L462.87 95.38L464.75 94.95L465.16 97.69L467.07 95.7L468.36 97.11L466.21 98.83L468.9 99.49L468.3 101.32L465.74 100.31L466.52 102.95L464.64 103.38L464.22 100.64L462.32 102.63Z" fill="#1C1A4A" fill-opacity="1.000000" fill-rule="evenodd"/>
	<path id="C" d="M487.23 120.12C489.21 122.85 489.13 126.04 486.64 128.34L484.82 125.82C485.98 124.69 486.06 123.13 485.07 121.77C483.75 119.95 481.49 119.76 479.03 121.54C476.51 123.36 476.06 125.53 477.35 127.32C478.31 128.65 479.76 129.12 481.19 128.44L483 130.97C480.63 132.27 477.31 131.9 475.12 128.88C472.84 125.72 473.36 121.79 477.21 119.01C481.07 116.22 484.98 117.01 487.23 120.12Z" fill="#1C1A4A" fill-opacity="1.000000" fill-rule="evenodd"/>
	<path id="h" d="M484.92 143.05L483.32 140.42L495.77 132.89L497.36 135.52L492.23 138.63L495.46 143.97L500.59 140.86L502.18 143.49L489.74 151.02L488.15 148.39L493.29 145.28L490.06 139.94L484.92 143.05Z" fill="#1C1A4A" fill-opacity="1.000000" fill-rule="evenodd"/>
	<path id="a" d="M498.5 159.75L495.06 160.27L493.58 157.32L508.83 155.29L510.61 158.83L499.85 169.84L498.38 166.89L500.86 164.44L498.5 159.75ZM506.72 158.5L501 159.37L502.66 162.67L506.77 158.6L506.72 158.5Z" fill="#1C1A4A" fill-opacity="1.000000" fill-rule="evenodd"/>
	<path id="n" d="M519.25 179.05L520.4 181.89L506.92 187.35L505.92 184.89L512.03 175.59L511.99 175.49L503.51 178.93L502.35 176.08L515.83 170.61L516.84 173.12L510.72 182.37L510.77 182.49L519.25 179.05Z" fill="#1C1A4A" fill-opacity="1.000000" fill-rule="evenodd"/>
	<path id="g" d="M523.21 204.55L522.28 201.56C523.46 200.78 523.93 199.52 523.45 198C522.79 195.88 520.7 194.95 517.81 195.86C514.91 196.76 513.7 198.67 514.39 200.87C515 202.82 516.46 203.66 518.19 203.16L517.26 200.17L519.47 199.48L521.29 205.29L519.54 205.84C515.89 206.98 512.89 205.18 511.79 201.67C510.56 197.76 512.46 194.27 516.86 192.89C521.35 191.48 524.88 193.48 526.03 197.14C527.01 200.28 525.84 203.31 523.21 204.55Z" fill="#1C1A4A" fill-opacity="1.000000" fill-rule="evenodd"/>
	<path id="e" d="M518.18 224.71L515.96 215.14L530.13 211.85L532.34 221.4L529.87 221.97L528.35 215.42L524.98 216.2L526.38 222.26L523.91 222.83L522.51 216.77L519.12 217.56L520.65 224.14L518.18 224.71Z" fill="#1C1A4A" fill-opacity="1.000000" fill-rule="evenodd"/>
	<path id="*" d="M528.3 247.33L528.07 245.43L530.82 245.28L529.02 243.18L530.57 242.04L532.06 244.35L532.96 241.75L534.74 242.49L533.49 244.96L536.19 244.45L536.42 246.35L533.67 246.5L535.48 248.6L533.92 249.74L532.43 247.43L531.53 250.03L529.75 249.29L531.01 246.82L528.3 247.33Z" fill="#1C1A4A" fill-opacity="1.000000" fill-rule="evenodd"/>
</svg>
