<svg width="24.000000" height="24.000000" viewBox="0 0 24 24" fill="none" xmlns="http://www.w3.org/2000/svg" xmlns:xlink="http://www.w3.org/1999/xlink">
	<desc>
			Created with Pixso.
	</desc>
	<defs>
		<clipPath id="clip6512_7081">
			<rect id="google.svg" width="24.000000" height="24.000000" transform="translate(-0.554688 -0.699951)" fill="white" fill-opacity="0"/>
		</clipPath>
		<clipPath id="clip6512_7080">
			<rect id="google.svg fill" width="24.000000" height="24.000000" transform="translate(-0.554688 -0.699951)" fill="white" fill-opacity="0"/>
		</clipPath>
		<clipPath id="clip6512_7079">
			<rect id="google.svg" width="24.000000" height="24.000000" transform="translate(-0.554688 -0.699951)" fill="white" fill-opacity="0"/>
		</clipPath>
	</defs>
	<g clip-path="url(#clip6512_7079)">
		<g clip-path="url(#clip6512_7080)">
			<g clip-path="url(#clip6512_7081)">
				<path id="Vector" d="M19.6 11.49C19.6 10.89 19.55 10.31 19.44 9.75L11.44 9.75L11.44 13.04L16.01 13.04C15.82 14.1 15.22 15 14.32 15.6L14.32 17.74L17.07 17.74C18.67 16.26 19.6 14.08 19.6 11.49Z" fill="#4285F4" fill-opacity="1.000000" fill-rule="evenodd"/>
				<path id="Vector" d="M11.44 19.79C13.74 19.79 15.66 19.03 17.07 17.74L14.32 15.6C13.56 16.11 12.58 16.41 11.44 16.41C9.23 16.41 7.35 14.92 6.69 12.91L3.85 12.91L3.85 15.11C5.25 17.89 8.12 19.79 11.44 19.79Z" fill="#34A853" fill-opacity="1.000000" fill-rule="evenodd"/>
				<path id="Vector" d="M6.68 12.91C6.51 12.4 6.42 11.86 6.42 11.3C6.42 10.74 6.51 10.19 6.68 9.68L6.68 7.48L3.84 7.48C3.27 8.63 2.94 9.92 2.94 11.3C2.94 12.67 3.27 13.97 3.84 15.11L6.68 12.91Z" fill="#FBBC05" fill-opacity="1.000000" fill-rule="evenodd"/>
				<path id="Vector" d="M11.44 6.18C12.69 6.18 13.81 6.6 14.69 7.45L17.13 5.01C15.66 3.64 13.73 2.8 11.44 2.8C8.12 2.8 5.25 4.7 3.85 7.48L6.69 9.68C7.35 7.67 9.23 6.18 11.44 6.18Z" fill="#EA4335" fill-opacity="1.000000" fill-rule="evenodd"/>
			</g>
		</g>
	</g>
</svg>
