<svg width="55.000000" height="55.000000" viewBox="0 0 55 55" fill="none" xmlns="http://www.w3.org/2000/svg" xmlns:xlink="http://www.w3.org/1999/xlink">
	<desc>
			Created with Pixso.
	</desc>
	<defs>
		<clipPath id="clip6512_1854">
			<rect id="Icon" width="55.020000" height="55.000000" transform="matrix(1 0 0 -1 -0.519531 54.78)" fill="white" fill-opacity="0"/>
		</clipPath>
	</defs>
	<g clip-path="url(#clip6512_1854)">
		<path id="Vector" d="M46.97 8.39L53.39 8.39C53.75 8.39 54.03 8.27 54.21 8.03C54.39 7.78 54.49 7.54 54.49 7.29L54.49 0.88C54.49 0.51 54.39 0.23 54.21 0.05C54.03 -0.13 53.75 -0.22 53.39 -0.22L46.97 -0.22C46.72 -0.22 46.48 -0.13 46.24 0.05C45.99 0.23 45.87 0.51 45.87 0.88L45.87 2.89L31.2 2.89L31.2 0.88C31.2 0.51 31.11 0.23 30.93 0.05C30.74 -0.13 30.47 -0.22 30.1 -0.22L23.87 -0.22C23.5 -0.22 23.23 -0.13 23.04 0.05C22.86 0.23 22.77 0.51 22.77 0.88L22.77 2.89L8.1 2.89L8.1 0.88C8.1 0.51 7.98 0.23 7.74 0.05C7.49 -0.13 7.25 -0.22 7 -0.22L0.58 -0.22C0.22 -0.22 -0.06 -0.13 -0.24 0.05C-0.42 0.23 -0.51 0.51 -0.51 0.88L-0.51 7.29C-0.51 7.54 -0.42 7.78 -0.24 8.03C-0.06 8.27 0.22 8.39 0.58 8.39L7 8.39C7.25 8.39 7.49 8.27 7.74 8.03C7.98 7.78 8.1 7.54 8.1 7.29L8.1 5.09L16.9 5.09C13.72 6.56 10.97 8.64 8.65 11.33C6.82 13.4 5.41 15.73 4.43 18.29C3.46 20.86 2.91 23.49 2.79 26.18L0.58 26.18C0.22 26.18 -0.06 26.3 -0.24 26.54C-0.42 26.79 -0.51 27.03 -0.51 27.28L-0.51 33.69C-0.51 33.94 -0.42 34.18 -0.24 34.43C-0.06 34.67 0.22 34.79 0.58 34.79L7 34.79C7.25 34.79 7.49 34.67 7.74 34.43C7.98 34.18 8.1 33.94 8.1 33.69L8.1 27.28C8.1 27.03 7.98 26.79 7.74 26.54C7.49 26.3 7.25 26.18 7 26.18L4.8 26.18C5.05 22.88 5.96 19.76 7.55 16.83C9.14 13.89 11.25 11.45 13.88 9.49C16.5 7.54 19.47 6.19 22.77 5.46L22.77 7.29C22.77 7.54 22.86 7.78 23.04 8.03C23.23 8.27 23.5 8.39 23.87 8.39L30.1 8.39C30.47 8.39 30.74 8.27 30.93 8.03C31.11 7.78 31.2 7.54 31.2 7.29L31.2 5.46C34.5 6.19 37.47 7.54 40.09 9.49C42.72 11.45 44.83 13.89 46.42 16.83C48.01 19.76 48.92 22.88 49.17 26.18L46.97 26.18C46.72 26.18 46.48 26.3 46.24 26.54C45.99 26.79 45.87 27.03 45.87 27.28L45.87 33.69C45.87 33.94 45.99 34.18 46.24 34.43C46.48 34.67 46.72 34.79 46.97 34.79L53.39 34.79C53.75 34.79 54.03 34.67 54.21 34.43C54.39 34.18 54.49 33.94 54.49 33.69L54.49 27.28C54.49 27.03 54.39 26.79 54.21 26.54C54.03 26.3 53.75 26.18 53.39 26.18L51.18 26.18C51.06 23.49 50.51 20.86 49.54 18.29C48.56 15.73 47.15 13.4 45.32 11.33C43 8.64 40.25 6.56 37.07 5.09L45.87 5.09L45.87 7.29C45.87 7.54 45.99 7.78 46.24 8.03C46.48 8.27 46.72 8.39 46.97 8.39ZM5.9 6.19L1.68 6.19L1.68 1.97L5.9 1.97L5.9 6.19ZM5.9 32.59L1.68 32.59L1.68 28.38L5.9 28.38L5.9 32.59ZM52.29 32.59L48.07 32.59L48.07 28.38L52.29 28.38L52.29 32.59ZM29.18 6.19L24.79 6.19L24.79 1.97L29.18 1.97L29.18 6.19ZM48.07 1.97L52.29 1.97L52.29 6.19L48.07 6.19L48.07 1.97ZM27.9 11.69C27.66 11.33 27.35 11.14 26.99 11.14C26.62 11.14 26.31 11.33 26.07 11.69L21.67 19.76C21.42 20 21.36 20.28 21.49 20.58C21.61 20.89 21.79 21.1 22.04 21.23C22.28 21.35 22.56 21.38 22.86 21.32C23.16 21.26 23.38 21.04 23.5 20.68L25.89 16.28L25.89 24.16C25.15 24.4 24.54 24.86 24.05 25.53C23.56 26.21 23.32 27 23.32 27.92C23.32 28.83 23.68 29.63 24.42 30.3C25.15 30.97 26.01 31.31 26.99 31.31C27.96 31.31 28.82 30.97 29.55 30.3C30.29 29.63 30.65 28.83 30.65 27.92C30.65 27 30.41 26.21 29.92 25.53C29.43 24.86 28.82 24.4 28.08 24.16L28.08 16.28L35.42 29.66C32.97 32.23 31.39 35.22 30.65 38.64L23.32 38.64C22.58 35.22 21 32.23 18.55 29.66L19.83 27.46C19.96 27.21 19.96 26.94 19.83 26.63C19.71 26.33 19.53 26.11 19.29 25.99C19.04 25.87 18.8 25.84 18.55 25.9C18.31 25.96 18.06 26.11 17.82 26.36L16.35 29.29C15.99 29.78 16.05 30.27 16.54 30.76C18.86 32.84 20.39 35.46 21.12 38.64L20.02 38.64C19.16 38.64 18.43 38.95 17.82 39.56C17.21 40.17 16.9 40.96 16.9 41.94C16.9 42.55 17.06 43.1 17.36 43.59C17.66 44.08 18.06 44.45 18.55 44.69L18.55 53.68C18.55 54.04 18.67 54.32 18.92 54.5C19.16 54.68 19.44 54.78 19.74 54.78C20.05 54.78 20.29 54.68 20.48 54.5C20.66 54.32 20.75 54.04 20.75 53.68L20.75 45.06L33.22 45.06L33.22 53.68C33.22 54.04 33.31 54.32 33.49 54.5C33.68 54.68 33.92 54.78 34.23 54.78C34.53 54.78 34.81 54.68 35.05 54.5C35.3 54.32 35.42 54.04 35.42 53.68L35.42 44.69C35.91 44.45 36.31 44.08 36.61 43.59C36.91 43.1 37.07 42.55 37.07 41.94C37.07 40.96 36.76 40.17 36.15 39.56C35.54 38.95 34.81 38.64 33.95 38.64L32.85 38.64C33.58 35.46 35.11 32.84 37.43 30.76C37.92 30.27 37.99 29.78 37.62 29.29L27.9 11.69ZM26.99 29.29C26.62 29.29 26.28 29.14 25.98 28.83C25.67 28.53 25.52 28.16 25.52 27.73C25.52 27.31 25.67 26.94 25.98 26.63C26.28 26.33 26.62 26.18 26.99 26.18C27.35 26.18 27.69 26.33 27.99 26.63C28.3 26.94 28.45 27.31 28.45 27.73C28.45 28.16 28.3 28.53 27.99 28.83C27.69 29.14 27.35 29.29 26.99 29.29ZM35.05 41.94C35.05 42.19 34.93 42.43 34.68 42.68C34.44 42.92 34.2 43.04 33.95 43.04L20.02 43.04C19.77 43.04 19.53 42.92 19.29 42.68C19.04 42.43 18.92 42.16 18.92 41.85C18.92 41.54 19.04 41.3 19.29 41.12C19.53 40.93 19.77 40.84 20.02 40.84L33.95 40.84C34.2 40.84 34.44 40.93 34.68 41.12C34.93 41.3 35.05 41.58 35.05 41.94ZM20.57 24.71C20.93 24.71 21.21 24.62 21.39 24.43C21.58 24.25 21.67 24.01 21.67 23.7C21.67 23.39 21.58 23.12 21.39 22.88C21.21 22.63 20.97 22.51 20.66 22.51C20.35 22.51 20.08 22.63 19.83 22.88C19.59 23.12 19.47 23.39 19.47 23.7C19.47 24.01 19.59 24.25 19.83 24.43C20.08 24.62 20.33 24.71 20.57 24.71Z" fill="#7F7E97" fill-opacity="1.000000" fill-rule="nonzero"/>
	</g>
</svg>
