<svg width="55.000000" height="55.000000" viewBox="0 0 55 55" fill="none" xmlns="http://www.w3.org/2000/svg" xmlns:xlink="http://www.w3.org/1999/xlink">
	<desc>
			Created with Pixso.
	</desc>
	<defs/>
	<path id="Vector" d="M54.49 27.28C54.49 22.26 53.26 17.65 50.82 13.43C48.37 9.22 45.04 5.89 40.83 3.44C36.61 1 32.06 -0.22 27.17 -0.22C22.28 -0.22 17.7 0.94 13.42 3.26L10.12 3.26L10.12 -0.22L4.8 -0.22L4.8 10.96C1.26 15.85 -0.51 21.29 -0.51 27.28C-0.51 32.29 0.71 36.9 3.15 41.12C5.6 45.33 8.93 48.66 13.14 51.11C17.36 53.55 21.97 54.78 26.99 54.78C30.41 54.78 33.65 54.16 36.7 52.94C38.66 54.16 40.74 54.78 42.93 54.78C45.75 54.78 48.25 53.86 50.45 52.03L49.35 50.56C47.52 52.15 45.38 52.94 42.93 52.94C40.25 52.94 37.95 51.99 36.06 50.1C34.16 48.21 33.22 45.91 33.22 43.23C33.22 40.54 34.16 38.24 36.06 36.35C37.95 34.46 40.25 33.51 42.93 33.51C45.62 33.51 47.91 34.46 49.81 36.35C51.7 38.24 52.65 40.54 52.65 43.23C52.65 45.55 51.98 47.56 50.64 49.28L51.92 50.56C53.63 48.36 54.49 45.91 54.49 43.23C54.49 41.03 53.87 38.95 52.65 36.99C53.87 33.94 54.49 30.7 54.49 27.28ZM13.6 8.58L15.43 8.58L15.43 21.04L13.6 21.04L13.6 8.58ZM10.12 5.09L11.95 5.09L11.95 21.04L10.12 21.04L10.12 5.09ZM6.64 1.61L8.29 1.61L8.29 21.04L6.64 21.04L6.64 1.61ZM26.07 52.94C21.67 52.82 17.6 51.63 13.88 49.37C10.15 47.11 7.16 44.11 4.89 40.38C2.63 36.66 1.44 32.59 1.32 28.19L26.07 28.19L26.07 52.94ZM26.07 26.36L1.32 26.36C1.44 22.08 2.6 18.05 4.8 14.26L4.8 22.88L24.24 22.88L24.24 13.89L20.75 13.89L20.75 10.41L17.27 10.41L17.27 6.93L13.6 6.93L13.6 5.28C17.51 2.95 21.67 1.73 26.07 1.61L26.07 26.36ZM17.27 21.04L17.27 12.24L18.92 12.24L18.92 21.04L17.27 21.04ZM20.75 21.04L20.75 15.73L22.58 15.73L22.58 21.04L20.75 21.04ZM52.65 26.36L45.14 26.36L51.55 19.94C52.29 22.02 52.65 24.16 52.65 26.36ZM48.25 12.79L38.35 22.69L39.64 23.98L49.17 14.26C49.9 15.48 50.51 16.7 51 17.93L42.57 26.36L37.07 26.36L38.17 25.26L37.07 23.98L34.68 26.36L29.18 26.36L45.87 9.68C46.72 10.65 47.52 11.69 48.25 12.79ZM27.9 1.61C30.1 1.61 32.24 1.97 34.32 2.71L27.9 9.13L27.9 1.61ZM27.9 19.58L38.72 8.94L37.43 7.66L27.9 17.19L27.9 11.69L36.33 3.26C37.56 3.75 38.78 4.36 40 5.09L38.54 6.56L39.82 7.84L41.47 6.01C42.57 6.74 43.61 7.54 44.58 8.39L27.9 25.08L27.9 19.58ZM42.93 31.68C40.86 31.68 38.93 32.19 37.16 33.23C35.39 34.27 33.98 35.68 32.94 37.45C31.91 39.22 31.39 41.15 31.39 43.23C31.39 44.81 31.72 46.34 32.39 47.81C33.07 49.28 33.95 50.56 35.05 51.66C32.73 52.51 30.35 52.94 27.9 52.94L27.9 28.19L52.65 28.19C52.65 30.64 52.22 33.02 51.37 35.34C50.27 34.24 48.99 33.36 47.52 32.68C46.05 32.01 44.52 31.68 42.93 31.68ZM10.49 42.68L21.12 32.04L22.22 33.14L11.58 43.96L10.49 42.68ZM19.83 38.83C19.1 38.83 18.49 39.07 18 39.56C17.51 40.05 17.27 40.66 17.27 41.39C17.27 42.13 17.51 42.77 18 43.32C18.49 43.87 19.1 44.14 19.83 44.14C20.57 44.14 21.21 43.87 21.76 43.32C22.31 42.77 22.58 42.13 22.58 41.39C22.58 40.66 22.31 40.05 21.76 39.56C21.21 39.07 20.57 38.83 19.83 38.83ZM19.83 42.31C19.59 42.31 19.38 42.22 19.19 42.03C19.01 41.85 18.92 41.64 18.92 41.39C18.92 41.15 19.01 40.96 19.19 40.84C19.38 40.72 19.59 40.66 19.83 40.66C20.08 40.66 20.29 40.72 20.48 40.84C20.66 40.96 20.75 41.15 20.75 41.39C20.75 41.64 20.66 41.85 20.48 42.03C20.29 42.22 20.08 42.31 19.83 42.31ZM12.87 31.68C12.14 31.68 11.49 31.95 10.94 32.5C10.39 33.05 10.12 33.69 10.12 34.43C10.12 35.16 10.39 35.77 10.94 36.26C11.49 36.75 12.14 36.99 12.87 36.99C13.6 36.99 14.21 36.75 14.7 36.26C15.19 35.77 15.43 35.16 15.43 34.43C15.43 33.69 15.19 33.05 14.7 32.5C14.21 31.95 13.6 31.68 12.87 31.68ZM12.87 35.34C12.62 35.34 12.41 35.25 12.23 35.07C12.04 34.88 11.95 34.67 11.95 34.43C11.95 34.18 12.04 33.97 12.23 33.78C12.41 33.6 12.62 33.51 12.87 33.51C13.11 33.51 13.3 33.6 13.42 33.78C13.54 33.97 13.6 34.18 13.6 34.43C13.6 34.67 13.54 34.88 13.42 35.07C13.3 35.25 13.11 35.34 12.87 35.34ZM42.93 42.31C42.45 42.31 42.02 42.16 41.65 41.85C41.29 41.54 41.1 41.15 41.1 40.66C41.1 40.17 41.29 39.74 41.65 39.38C42.02 39.01 42.45 38.83 42.93 38.83C43.42 38.83 43.85 39.01 44.22 39.38C44.58 39.74 44.77 40.17 44.77 40.66L46.42 40.66C46.42 39.8 46.17 39.07 45.68 38.46C45.2 37.85 44.58 37.42 43.85 37.18L43.85 35.34L42.02 35.34L42.02 37.18C41.29 37.42 40.67 37.85 40.18 38.46C39.7 39.07 39.45 39.83 39.45 40.75C39.45 41.67 39.79 42.46 40.46 43.13C41.13 43.81 41.96 44.14 42.93 44.14C43.42 44.14 43.85 44.33 44.22 44.69C44.58 45.06 44.77 45.49 44.77 45.98C44.77 46.46 44.58 46.86 44.22 47.17C43.85 47.47 43.42 47.63 42.93 47.63C42.45 47.63 42.02 47.47 41.65 47.17C41.29 46.86 41.1 46.46 41.1 45.98L39.45 45.98C39.45 46.71 39.7 47.41 40.18 48.08C40.67 48.76 41.29 49.15 42.02 49.28L42.02 51.29L43.85 51.29L43.85 49.28C44.58 49.15 45.2 48.76 45.68 48.08C46.17 47.41 46.42 46.65 46.42 45.79C46.42 44.94 46.08 44.14 45.41 43.41C44.74 42.68 43.91 42.31 42.93 42.31ZM49.17 42.31L51 42.31L51 44.14L49.17 44.14L49.17 42.31ZM35.05 42.31L36.7 42.31L36.7 44.14L35.05 44.14L35.05 42.31Z" fill="#7F7E97" fill-opacity="1.000000" fill-rule="nonzero"/>
</svg>
