<svg width="55.000000" height="50.000000" viewBox="0 0 55 50" fill="none" xmlns="http://www.w3.org/2000/svg" xmlns:xlink="http://www.w3.org/1999/xlink">
	<desc>
			Created with Pixso.
	</desc>
	<defs/>
	<path id="Vector" d="M47.52 -0.47L6.27 -0.47C4.43 -0.47 2.85 0.2 1.5 1.54C0.16 2.89 -0.51 4.54 -0.51 6.49L-0.51 42.24C-0.51 44.08 0.16 45.66 1.5 47.01C2.85 48.35 4.43 49.03 6.27 49.03L47.52 49.03C49.47 49.03 51.12 48.35 52.47 47.01C53.81 45.66 54.49 44.08 54.49 42.24L54.49 6.49C54.49 4.54 53.81 2.89 52.47 1.54C51.12 0.2 49.47 -0.47 47.52 -0.47ZM6.27 2.28L47.52 2.28C48.74 2.28 49.75 2.67 50.54 3.47C51.34 4.26 51.74 5.27 51.74 6.49L51.74 7.78L2.24 7.78L2.24 6.49C2.24 5.27 2.63 4.26 3.43 3.47C4.22 2.67 5.17 2.28 6.27 2.28ZM47.52 46.28L6.27 46.28C5.17 46.28 4.22 45.88 3.43 45.08C2.63 44.29 2.24 43.34 2.24 42.24L2.24 10.53L51.74 10.53L51.74 42.24C51.74 43.34 51.34 44.29 50.54 45.08C49.75 45.88 48.74 46.28 47.52 46.28ZM30.1 16.03C29.74 16.03 29.37 16.12 29 16.3C28.64 16.48 28.45 16.76 28.45 17.12L22.95 39.13C22.83 39.61 22.95 40.04 23.32 40.41C23.68 40.78 24.11 40.9 24.6 40.78C25.09 40.65 25.4 40.35 25.52 39.86L31.02 17.68C31.14 17.31 31.11 16.97 30.93 16.67C30.74 16.36 30.47 16.15 30.1 16.03ZM18.37 21.89C18.12 21.65 17.79 21.53 17.36 21.53C16.93 21.53 16.6 21.65 16.35 21.89L10.85 27.39C10.61 27.76 10.49 28.13 10.49 28.49C10.49 28.86 10.61 29.16 10.85 29.41L16.35 34.91C16.6 35.15 16.93 35.28 17.36 35.28C17.79 35.28 18.12 35.15 18.37 34.91C18.61 34.66 18.74 34.36 18.74 33.99C18.74 33.63 18.61 33.32 18.37 33.08L13.79 28.49L18.37 23.91C18.61 23.66 18.74 23.36 18.74 22.99C18.74 22.63 18.61 22.26 18.37 21.89ZM37.62 21.89C37.37 21.65 37.04 21.53 36.61 21.53C36.18 21.53 35.85 21.68 35.6 21.98C35.36 22.29 35.24 22.63 35.24 22.99C35.24 23.36 35.36 23.66 35.6 23.91L40.18 28.49L35.6 33.08C35.24 33.44 35.11 33.87 35.24 34.36C35.36 34.85 35.69 35.15 36.24 35.28C36.79 35.4 37.25 35.28 37.62 34.91L43.12 29.41C43.36 29.16 43.49 28.86 43.49 28.49C43.49 28.13 43.36 27.76 43.12 27.39L37.62 21.89Z" fill="#7F7E97" fill-opacity="1.000000" fill-rule="nonzero"/>
</svg>
