<svg width="55.000000" height="55.000000" viewBox="0 0 55 55" fill="none" xmlns="http://www.w3.org/2000/svg" xmlns:xlink="http://www.w3.org/1999/xlink">
	<desc>
			Created with Pixso.
	</desc>
	<defs/>
	<path id="Vector" d="M21.49 6.19C21.24 5.95 21 5.83 20.75 5.83C20.51 5.83 20.26 5.92 20.02 6.1C19.77 6.28 19.65 6.53 19.65 6.83C19.65 7.14 19.77 7.41 20.02 7.66C20.26 7.9 20.51 8.03 20.75 8.03C21 8.03 21.24 7.9 21.49 7.66C21.73 7.41 21.85 7.14 21.85 6.83C21.85 6.53 21.73 6.31 21.49 6.19ZM16.72 5.83L12.5 5.83C12.14 5.83 11.86 5.92 11.68 6.1C11.49 6.28 11.4 6.53 11.4 6.83C11.4 7.14 11.49 7.41 11.68 7.66C11.86 7.9 12.14 8.03 12.5 8.03L16.72 8.03C17.08 8.03 17.36 7.9 17.54 7.66C17.73 7.41 17.82 7.14 17.82 6.83C17.82 6.53 17.73 6.28 17.54 6.1C17.36 5.92 17.08 5.83 16.72 5.83ZM17.64 11.88L12.5 11.88C12.14 11.88 11.86 11.97 11.68 12.15C11.49 12.33 11.4 12.58 11.4 12.88C11.4 13.19 11.49 13.43 11.68 13.62C11.86 13.8 12.14 13.89 12.5 13.89L17.64 13.89C17.88 13.89 18.12 13.8 18.37 13.62C18.61 13.43 18.74 13.19 18.74 12.88C18.74 12.58 18.61 12.33 18.37 12.15C18.12 11.97 17.88 11.88 17.64 11.88ZM54.12 22.14L46.97 16.64L46.97 15.54C46.97 15.18 46.88 14.9 46.69 14.72C46.51 14.53 46.27 14.44 45.96 14.44C45.66 14.44 45.38 14.53 45.14 14.72C44.89 14.9 44.77 15.18 44.77 15.54L44.77 30.03L35.97 39.01L34.87 38.09C33.28 36.5 31.39 35.53 29.18 35.16L31.93 32.41C32.18 32.16 32.3 31.89 32.3 31.58C32.3 31.28 32.18 31.06 31.93 30.94L28.45 27.28L44.22 20.49C44.46 20.37 44.65 20.12 44.77 19.76C44.89 19.39 44.77 19.09 44.4 18.84L39.27 13.71C39.76 12.98 40 12.18 40 11.33C40 9.98 39.54 8.88 38.63 8.03C37.71 7.17 36.64 6.74 35.42 6.74C34.56 6.74 33.77 6.93 33.04 7.29L27.9 2.16C27.66 1.91 27.35 1.82 26.99 1.88C26.62 1.94 26.37 2.16 26.25 2.53L18.92 19.58L15.07 23.43C13.97 24.65 13.42 26.05 13.42 27.64C13.42 29.23 13.97 30.58 15.07 31.68C16.17 32.78 17.51 33.33 19.1 33.33C20.69 33.33 22.1 32.78 23.32 31.68L23.68 31.31L27.35 34.98L26.99 34.98C23.93 34.98 21.3 36.01 19.1 38.09L18 39.01L9.2 30.03L9.2 1.97L21.12 1.97C21.49 1.97 21.76 1.85 21.94 1.61C22.13 1.36 22.22 1.09 22.22 0.78C22.22 0.48 22.13 0.23 21.94 0.05C21.76 -0.13 21.49 -0.22 21.12 -0.22L8.1 -0.22C7.74 -0.22 7.46 -0.13 7.28 0.05C7.09 0.23 7 0.51 7 0.88L7 16.46L-0.15 22.14C-0.39 22.39 -0.51 22.69 -0.51 23.06L-0.51 49.28C-0.51 50.74 0.04 52.03 1.14 53.13C2.24 54.23 3.52 54.78 4.99 54.78L48.99 54.78C50.45 54.78 51.74 54.23 52.83 53.13C53.93 52.03 54.49 50.74 54.49 49.28L54.49 23.06C54.49 22.69 54.36 22.39 54.12 22.14ZM46.97 19.39L51.74 23.06L46.97 27.83L46.97 19.39ZM35.42 8.94C36.15 8.94 36.73 9.16 37.16 9.58C37.59 10.01 37.8 10.59 37.8 11.33C37.8 11.57 37.8 11.81 37.8 12.06L34.68 8.94C34.93 8.94 35.17 8.94 35.42 8.94ZM27.54 4.91L32.3 9.49L41.83 19.21L39.64 20.12L26.62 7.11L27.54 4.91ZM25.7 9.31L37.43 21.04L26.8 25.63L21.12 19.94L25.7 9.31ZM21.67 30.21C20.93 30.94 20.08 31.31 19.1 31.31C18.12 31.31 17.27 30.94 16.54 30.21C15.8 29.48 15.43 28.59 15.43 27.55C15.43 26.51 15.8 25.69 16.54 25.08L19.83 21.78L24.97 26.91L21.67 30.21ZM25.15 29.84L26.43 28.38L29.74 31.68L28.45 32.96L25.15 29.84ZM7 19.21L7 27.83L2.24 23.06L7 19.21ZM3.52 52.21C3.52 52.21 3.46 52.21 3.33 52.21C2.85 51.96 2.45 51.57 2.14 51.02C1.84 50.47 1.68 49.89 1.68 49.28L1.68 25.63L16.54 40.48L3.52 52.21ZM6.08 52.58L9.75 49.46L17.64 49.46C17.88 49.46 18.12 49.34 18.37 49.09C18.61 48.85 18.74 48.57 18.74 48.27C18.74 47.96 18.61 47.72 18.37 47.53C18.12 47.35 17.88 47.26 17.64 47.26L12.14 47.26L20.57 39.56C22.4 37.85 24.54 36.99 26.99 36.99C29.43 36.99 31.57 37.85 33.4 39.56L47.89 52.58L6.08 52.58ZM52.29 49.28C52.29 49.89 52.13 50.47 51.83 51.02C51.52 51.57 51.12 51.96 50.64 52.21L37.43 40.48L52.29 25.63L52.29 49.28ZM46.79 0.14C46.54 -0.1 46.27 -0.22 45.96 -0.22C45.66 -0.22 45.38 -0.1 45.14 0.14L40.92 4.54C40.67 4.66 40.55 4.88 40.55 5.18C40.55 5.49 40.64 5.76 40.83 6.01C41.01 6.25 41.25 6.38 41.56 6.38C41.87 6.38 42.14 6.25 42.39 6.01L46.79 1.61C46.91 1.49 46.97 1.27 46.97 0.97C46.97 0.66 46.91 0.39 46.79 0.14ZM37.62 -0.22C37.25 -0.22 36.98 -0.13 36.79 0.05C36.61 0.23 36.52 0.51 36.52 0.88L36.52 3.08C36.52 3.32 36.61 3.53 36.79 3.72C36.98 3.9 37.22 3.99 37.53 3.99C37.83 3.99 38.11 3.9 38.35 3.72C38.6 3.53 38.72 3.32 38.72 3.08L38.72 0.88C38.72 0.51 38.6 0.23 38.35 0.05C38.11 -0.13 37.86 -0.22 37.62 -0.22ZM46.05 8.03L43.67 8.03C43.42 8.03 43.21 8.15 43.03 8.39C42.84 8.64 42.75 8.91 42.75 9.22C42.75 9.52 42.84 9.77 43.03 9.95C43.21 10.13 43.42 10.22 43.67 10.22L46.05 10.22C46.3 10.22 46.51 10.13 46.69 9.95C46.88 9.77 46.97 9.52 46.97 9.22C46.97 8.91 46.88 8.64 46.69 8.39C46.51 8.15 46.3 8.03 46.05 8.03ZM22.77 47.63C22.52 47.38 22.25 47.26 21.94 47.26C21.64 47.26 21.39 47.35 21.21 47.53C21.03 47.72 20.93 47.96 20.93 48.27C20.93 48.57 21.03 48.85 21.21 49.09C21.39 49.34 21.64 49.46 21.94 49.46C22.25 49.46 22.52 49.34 22.77 49.09C23.01 48.85 23.14 48.57 23.14 48.27C23.14 47.96 23.01 47.75 22.77 47.63Z" fill="#7F7E97" fill-opacity="1.000000" fill-rule="nonzero"/>
</svg>
