<svg width="55.000000" height="55.000000" viewBox="0 0 55 55" fill="none" xmlns="http://www.w3.org/2000/svg" xmlns:xlink="http://www.w3.org/1999/xlink">
	<desc>
			Created with Pixso.
	</desc>
	<defs/>
	<path id="Vector" d="M52.29 16.64C51.67 15.79 50.94 15.11 50.08 14.63C49.23 14.14 48.31 13.89 47.33 13.89L46.97 13.89L38.54 27.83L38.54 19.21C38.54 15.79 37.65 12.58 35.88 9.58C34.1 6.59 31.72 4.21 28.73 2.43C25.73 0.66 22.49 -0.22 19.01 -0.22C15.53 -0.22 12.29 0.66 9.29 2.43C6.3 4.21 3.91 6.59 2.14 9.58C0.37 12.58 -0.51 15.79 -0.51 19.21L-0.51 41.39C-0.51 42.13 -0.24 42.77 0.31 43.32C0.86 43.87 1.5 44.14 2.24 44.14L16.17 44.14C14.21 45.12 12.14 45.85 9.93 46.34C9.2 46.59 8.62 46.98 8.19 47.53C7.77 48.08 7.55 48.73 7.55 49.46C7.55 50.19 7.74 50.86 8.1 51.48C8.83 52.58 9.78 53.4 10.94 53.95C12.1 54.5 13.36 54.78 14.7 54.78L29.37 54.78C30.47 54.78 31.48 54.53 32.39 54.04C33.31 53.55 34.08 52.88 34.68 52.03C36.03 49.95 37.13 47.81 37.99 45.61L38.54 44.14C39.02 42.55 39.7 41.09 40.55 39.74L42.39 36.63C42.51 36.26 42.69 36.08 42.93 36.08C43.18 36.08 43.39 36.17 43.58 36.35C43.76 36.53 43.85 36.75 43.85 36.99L43.85 54.78L49.17 54.78L49.17 46.89C49.17 44.57 49.41 42.19 49.9 39.74L49.9 39.56C50.51 36.26 51.55 33.14 53.02 30.21C54 28.38 54.49 26.42 54.49 24.34L54.49 23.98C54.49 21.29 53.75 18.84 52.29 16.64ZM18.92 1.61C22.22 1.61 25.21 2.4 27.9 3.99C30.59 5.58 32.73 7.72 34.32 10.41C35.91 13.1 36.7 16.03 36.7 19.21L35.05 19.21C35.05 16.4 34.32 13.77 32.85 11.33C31.39 8.88 29.43 6.93 26.99 5.46C24.54 3.99 21.88 3.26 19.01 3.26C16.14 3.26 13.48 3.99 11.04 5.46C8.59 6.93 6.64 8.88 5.17 11.33C3.7 13.77 2.97 16.4 2.97 19.21L1.32 19.21C1.32 16.03 2.11 13.1 3.7 10.41C5.29 7.72 7.43 5.58 10.12 3.99C12.81 2.4 15.74 1.61 18.92 1.61ZM33.22 19.21L4.8 19.21C4.8 16.64 5.44 14.29 6.73 12.15C8.01 10.01 9.72 8.3 11.86 7.02C14 5.73 16.35 5.09 18.92 5.09C21.49 5.09 23.87 5.73 26.07 7.02C28.27 8.3 30.01 10.01 31.29 12.15C32.58 14.29 33.22 16.64 33.22 19.21ZM1.32 21.04L36.7 21.04L36.7 27.46L24.24 30.58L24.24 26.36L13.6 26.36L13.6 30.58L1.32 27.46L1.32 21.04ZM15.43 30.03L15.43 28.19L22.58 28.19L22.58 30.03L15.43 30.03ZM22.58 31.68L22.58 34.43C22.58 34.67 22.49 34.88 22.31 35.07C22.13 35.25 21.91 35.34 21.67 35.34L16.35 35.34C16.11 35.34 15.89 35.25 15.71 35.07C15.53 34.88 15.43 34.67 15.43 34.43L15.43 31.68L22.58 31.68ZM2.24 42.31C1.99 42.31 1.78 42.22 1.59 42.03C1.41 41.85 1.32 41.64 1.32 41.39L1.32 29.29L13.6 32.41L13.6 34.43C13.6 35.16 13.88 35.77 14.43 36.26C14.98 36.75 15.62 36.99 16.35 36.99L21.67 36.99C22.4 36.99 23.01 36.75 23.5 36.26C23.99 35.77 24.24 35.16 24.24 34.43L24.24 32.41L36.7 29.29L36.7 30.76L35.42 32.96C34.08 35.28 32.42 37.42 30.47 39.38C29.12 40.72 27.41 41.39 25.33 41.39C24.24 41.39 23.14 41.15 22.04 40.66L21.49 40.48L18.92 42.49L2.24 42.31ZM43.3 34.43L43.12 34.43C42.02 34.43 41.22 34.85 40.74 35.71L38.9 38.83C38.17 40.29 37.5 41.82 36.89 43.41L35.42 46.89C33.22 48.24 30.9 49.21 28.45 49.83C26.86 50.19 25.21 50.38 23.5 50.38L15.43 50.38L15.43 52.03L23.5 52.03C25.33 52.03 27.11 51.84 28.82 51.48C30.53 51.11 32.24 50.5 33.95 49.64L33.22 51.11C32.73 51.72 32.18 52.18 31.57 52.48C30.96 52.79 30.22 52.94 29.37 52.94L14.7 52.94C13.6 52.94 12.5 52.64 11.4 52.03L13.6 52.03L13.6 50.38L9.57 50.38C9.33 50.13 9.2 49.86 9.2 49.55C9.2 49.24 9.33 48.94 9.57 48.63C9.81 48.33 10.06 48.18 10.3 48.18C14.58 47.2 18.37 45.3 21.67 42.49L21.85 42.49C22.95 42.98 24.11 43.23 25.33 43.23C27.9 43.23 30.04 42.37 31.75 40.66C33.83 38.58 35.54 36.32 36.89 33.88L47.89 15.73C49.11 15.85 50.08 16.46 50.82 17.56C51.67 18.9 52.22 20.37 52.47 21.96C49.05 25.87 45.99 30.03 43.3 34.43ZM51.55 29.48C49.96 32.53 48.86 35.77 48.25 39.19L48.07 39.38C47.58 41.94 47.33 44.45 47.33 46.89L47.33 52.94L45.68 52.94L45.68 36.99C45.68 36.26 45.44 35.65 44.95 35.16C47.15 31.49 49.72 27.95 52.65 24.53C52.65 26.24 52.29 27.89 51.55 29.48Z" fill="#7F7E97" fill-opacity="1.000000" fill-rule="nonzero"/>
</svg>
