<svg width="52.000000" height="52.000000" viewBox="0 0 52 52" fill="none" xmlns="http://www.w3.org/2000/svg" xmlns:xlink="http://www.w3.org/1999/xlink">
	<desc>
			Created with Pixso.
	</desc>
	<defs/>
	<path id="Vector" d="M40.09 45.81C39.73 45.81 39.48 45.69 39.36 45.44C38.87 44.59 38.2 43.98 37.34 43.61L33.49 41.96C33.25 41.96 33.1 41.84 33.04 41.59C32.97 41.35 32.97 41.1 33.04 40.86C33.1 40.61 33.25 40.46 33.49 40.4C33.74 40.34 33.98 40.37 34.23 40.49L37.89 41.96C39.12 42.57 40.09 43.43 40.83 44.53C40.95 44.77 40.98 45.01 40.92 45.26C40.86 45.5 40.74 45.66 40.55 45.72C40.37 45.78 40.22 45.81 40.09 45.81ZM22.49 45.81C22.37 45.81 22.22 45.78 22.04 45.72C21.85 45.66 21.73 45.5 21.67 45.26C21.61 45.01 21.64 44.77 21.76 44.53C22.37 43.43 23.29 42.57 24.51 41.96L28.36 40.49C28.6 40.37 28.82 40.34 29 40.4C29.18 40.46 29.34 40.61 29.46 40.86C29.58 41.1 29.58 41.32 29.46 41.5C29.34 41.68 29.22 41.84 29.09 41.96L25.24 43.61C24.39 43.98 23.72 44.59 23.23 45.44C22.98 45.69 22.74 45.81 22.49 45.81ZM33.86 41.96C33.62 41.96 33.4 41.87 33.22 41.68C33.04 41.5 32.94 41.29 32.94 41.04L32.94 38.11C32.94 37.86 33.07 37.62 33.31 37.38C34.16 36.76 34.59 35.91 34.59 34.81L34.59 32.06C34.59 31.2 34.26 30.44 33.58 29.77C32.91 29.09 32.12 28.76 31.2 28.76C30.29 28.76 29.49 29.09 28.82 29.77C28.15 30.44 27.81 31.2 27.81 32.06L27.81 34.81C27.81 35.91 28.24 36.76 29.09 37.38C29.34 37.62 29.46 37.86 29.46 38.11L29.46 41.04C29.46 41.29 29.4 41.5 29.28 41.68C29.16 41.87 28.97 41.96 28.73 41.96C28.48 41.96 28.27 41.87 28.08 41.68C27.9 41.5 27.81 41.29 27.81 41.04L27.81 38.48C26.71 37.5 26.16 36.28 26.16 34.81L26.16 32.06C26.16 30.71 26.65 29.52 27.63 28.48C28.6 27.44 29.8 26.93 31.2 26.93C32.61 26.93 33.83 27.44 34.87 28.48C35.91 29.52 36.43 30.71 36.43 32.06L36.43 34.81C36.43 36.28 35.82 37.5 34.59 38.48L34.59 41.04C34.59 41.29 34.53 41.5 34.41 41.68C34.29 41.87 34.1 41.96 33.86 41.96ZM32.03 39.76C31.66 39.76 31.41 39.61 31.29 39.3C31.17 38.99 31.2 38.72 31.39 38.48C31.57 38.23 31.72 38.11 31.84 38.11C32.7 37.99 33.37 37.59 33.86 36.92C34.35 36.24 34.59 35.54 34.59 34.81C34.59 34.56 34.68 34.35 34.87 34.17C35.05 33.98 35.27 33.89 35.51 33.89C35.75 33.89 35.97 33.98 36.15 34.17C36.33 34.35 36.43 34.56 36.43 34.81C36.43 36.03 36.03 37.1 35.24 38.02C34.44 38.93 33.43 39.51 32.21 39.76L32.03 39.76ZM27.99 25.28C27.63 25.28 27.38 25.15 27.26 24.91C26.77 24.05 26.1 23.44 25.24 23.08L21.39 21.43C21.27 21.3 21.15 21.12 21.03 20.88C20.91 20.63 20.91 20.42 21.03 20.23C21.15 20.05 21.3 19.9 21.49 19.78C21.67 19.65 21.88 19.65 22.13 19.78L25.98 21.43C27.2 21.91 28.12 22.77 28.73 23.99C28.85 24.24 28.88 24.45 28.82 24.63C28.76 24.82 28.64 24.97 28.45 25.09C28.27 25.21 28.12 25.28 27.99 25.28ZM10.39 25.28C10.27 25.28 10.12 25.21 9.93 25.09C9.75 24.97 9.63 24.82 9.57 24.63C9.51 24.45 9.54 24.24 9.66 23.99C10.39 22.77 11.37 21.91 12.59 21.43L16.26 19.78C16.5 19.65 16.75 19.65 16.99 19.78C17.24 19.9 17.39 20.05 17.45 20.23C17.51 20.42 17.51 20.63 17.45 20.88C17.39 21.12 17.24 21.3 16.99 21.43L13.14 23.08C12.29 23.44 11.62 24.05 11.13 24.91C11 25.15 10.76 25.28 10.39 25.28ZM21.76 21.24C21.52 21.24 21.3 21.18 21.12 21.06C20.93 20.94 20.84 20.75 20.84 20.51L20.84 17.58C20.84 17.21 20.97 16.96 21.21 16.84C22.19 16.11 22.68 15.19 22.68 14.09L22.68 11.53C22.68 10.55 22.34 9.72 21.67 9.05C21 8.38 20.17 8.04 19.19 8.04C18.22 8.04 17.39 8.38 16.72 9.05C16.05 9.72 15.71 10.55 15.71 11.53L15.71 14.09C15.71 15.19 16.2 16.11 17.18 16.84C17.42 16.96 17.54 17.21 17.54 17.58L17.54 20.51C17.54 20.75 17.45 20.94 17.27 21.06C17.08 21.18 16.87 21.24 16.63 21.24C16.38 21.24 16.17 21.18 15.99 21.06C15.8 20.94 15.71 20.75 15.71 20.51L15.71 17.94C14.61 16.96 14.06 15.68 14.06 14.09L14.06 11.53C14.06 10.06 14.55 8.84 15.53 7.86C16.5 6.88 17.73 6.39 19.19 6.39C20.66 6.39 21.88 6.88 22.86 7.86C23.84 8.84 24.33 10.06 24.33 11.53L24.33 14.09C24.33 15.68 23.78 16.96 22.68 17.94L22.68 20.51C22.68 20.75 22.58 20.94 22.4 21.06C22.22 21.18 22 21.24 21.76 21.24ZM20.11 19.23C19.62 19.23 19.35 19.04 19.29 18.68C19.22 18.31 19.25 18.03 19.38 17.85C19.5 17.67 19.68 17.51 19.93 17.39C20.66 17.27 21.3 16.9 21.85 16.29C22.4 15.68 22.68 14.95 22.68 14.09C22.68 13.85 22.77 13.63 22.95 13.45C23.14 13.27 23.35 13.18 23.59 13.18C23.84 13.18 24.02 13.27 24.14 13.45C24.27 13.63 24.33 13.85 24.33 14.09C24.33 15.31 23.96 16.41 23.23 17.39C22.49 18.37 21.52 18.98 20.29 19.23L20.11 19.23ZM19.19 28.76C16.75 28.76 14.46 28.15 12.32 26.93C10.18 25.7 8.5 24.02 7.28 21.88C6.06 19.74 5.44 17.42 5.44 14.92C5.44 12.41 6.06 10.12 7.28 8.04C8.5 5.96 10.18 4.31 12.32 3.09C14.46 1.87 16.75 1.26 19.19 1.26C21.64 1.26 23.93 1.87 26.07 3.09C28.21 4.31 29.89 5.96 31.11 8.04C32.33 10.12 32.94 12.41 32.94 14.92C32.94 17.42 32.33 19.74 31.11 21.88C29.89 24.02 28.21 25.7 26.07 26.93C23.93 28.15 21.64 28.76 19.19 28.76ZM19.19 2.91C16.99 2.91 14.98 3.46 13.14 4.56C11.31 5.66 9.84 7.13 8.74 8.96C7.64 10.79 7.09 12.81 7.09 15.01C7.09 17.21 7.64 19.23 8.74 21.06C9.84 22.89 11.31 24.33 13.14 25.37C14.98 26.41 16.99 26.93 19.19 26.93C21.39 26.93 23.41 26.41 25.24 25.37C27.08 24.33 28.54 22.89 29.64 21.06C30.74 19.23 31.29 17.21 31.29 15.01C31.29 12.81 30.74 10.79 29.64 8.96C28.54 7.13 27.08 5.66 25.24 4.56C23.41 3.46 21.39 2.91 19.19 2.91ZM41.93 7.31C41.44 7.31 41.13 7.16 41.01 6.85C40.89 6.54 40.89 6.3 41.01 6.12C41.13 5.93 41.32 5.78 41.56 5.66C42.05 5.41 42.41 5.54 42.66 6.03L42.66 6.21C42.78 6.45 42.78 6.67 42.66 6.85C42.54 7.03 42.35 7.19 42.11 7.31L41.93 7.31ZM14.06 51.13C11.25 51.13 8.83 50.12 6.82 48.1C4.8 46.08 3.79 43.61 3.79 40.68L3.79 37.38L0.31 37.38C-0.06 37.38 -0.3 37.22 -0.42 36.92C-0.55 36.61 -0.55 36.28 -0.42 35.91L5.63 26.56C5.75 26.31 5.99 26.19 6.36 26.19C6.73 26.19 6.97 26.31 7.09 26.56L13.14 35.91C13.27 36.28 13.24 36.61 13.05 36.92C12.87 37.22 12.66 37.38 12.41 37.38L8.93 37.38L8.93 40.68C8.93 40.92 8.83 41.13 8.65 41.32C8.47 41.5 8.25 41.59 8.01 41.59C7.77 41.59 7.58 41.5 7.46 41.32C7.34 41.13 7.28 40.92 7.28 40.68L7.28 36.46C7.28 36.21 7.34 36 7.46 35.82C7.58 35.63 7.77 35.54 8.01 35.54L10.76 35.54L6.36 28.58L1.96 35.54L4.71 35.54C4.83 35.54 4.99 35.63 5.17 35.82C5.35 36 5.44 36.21 5.44 36.46L5.44 40.68C5.44 43.12 6.3 45.17 8.01 46.82C9.72 48.47 11.74 49.29 14.06 49.29C16.02 49.29 17.79 48.68 19.38 47.46C19.62 47.34 19.87 47.28 20.11 47.28C20.35 47.28 20.54 47.37 20.66 47.55C20.78 47.73 20.84 47.95 20.84 48.19C20.84 48.44 20.78 48.62 20.66 48.74L20.48 48.93C18.64 50.39 16.5 51.13 14.06 51.13ZM8.56 45.08C8.32 45.08 8.07 44.89 7.83 44.53L7.83 44.34C7.7 44.1 7.7 43.88 7.83 43.7C7.95 43.52 8.13 43.36 8.38 43.24C8.62 43.12 8.83 43.12 9.02 43.24C9.2 43.36 9.33 43.55 9.39 43.79C9.45 44.04 9.45 44.25 9.39 44.43C9.33 44.62 9.17 44.77 8.93 44.89L8.56 45.08ZM44.13 24.36C43.88 24.36 43.64 24.24 43.39 23.99L37.34 14.64C37.22 14.28 37.25 13.94 37.43 13.63C37.62 13.33 37.83 13.18 38.08 13.18L41.56 13.18L41.56 9.88C41.56 9.63 41.65 9.42 41.83 9.23C42.02 9.05 42.23 8.96 42.48 8.96C42.72 8.96 42.91 9.05 43.03 9.23C43.15 9.42 43.21 9.63 43.21 9.88L43.21 14.09C43.21 14.34 43.15 14.55 43.03 14.73C42.91 14.92 42.72 15.01 42.48 15.01L39.73 15.01L44.13 21.98L48.53 15.01L45.96 15.01C45.72 15.01 45.5 14.92 45.32 14.73C45.14 14.55 45.04 14.34 45.04 14.09L45.04 9.88C45.04 7.43 44.19 5.38 42.48 3.73C40.77 2.08 38.75 1.26 36.43 1.26C34.35 1.26 32.52 1.87 30.93 3.09C30.81 3.34 30.62 3.43 30.38 3.37C30.13 3.31 29.92 3.18 29.74 3C29.55 2.82 29.49 2.6 29.55 2.36C29.61 2.11 29.7 1.93 29.83 1.81C31.78 0.22 33.98 -0.57 36.43 -0.57C39.24 -0.57 41.65 0.43 43.67 2.45C45.68 4.47 46.69 6.94 46.69 9.88L46.69 13.18L50.18 13.18C50.54 13.18 50.79 13.33 50.91 13.63C51.03 13.94 51.03 14.28 50.91 14.64L44.86 23.99C44.74 24.24 44.49 24.36 44.13 24.36ZM31.29 49.29C28.73 49.29 26.41 48.68 24.33 47.46C22.25 46.24 20.6 44.59 19.38 42.51C18.16 40.43 17.54 38.11 17.54 35.54C17.54 33.95 17.79 32.43 18.28 30.96C18.4 30.84 18.55 30.71 18.74 30.59C18.92 30.47 19.13 30.44 19.38 30.5C19.62 30.56 19.77 30.71 19.83 30.96C19.9 31.2 19.93 31.39 19.93 31.51C19.44 32.85 19.19 34.2 19.19 35.54C19.19 37.74 19.74 39.76 20.84 41.59C21.94 43.43 23.41 44.89 25.24 45.99C27.08 47.09 29.09 47.64 31.29 47.64C33.49 47.64 35.51 47.09 37.34 45.99C39.18 44.89 40.61 43.43 41.65 41.59C42.69 39.76 43.21 37.74 43.21 35.54C43.21 32.61 42.29 30.04 40.46 27.84C38.63 25.64 36.31 24.3 33.49 23.81C33.25 23.69 33.07 23.53 32.94 23.35C32.82 23.17 32.76 22.95 32.76 22.71C32.76 22.46 32.88 22.28 33.13 22.16C33.37 22.04 33.62 22.04 33.86 22.16C37.04 22.65 39.7 24.18 41.83 26.74C43.97 29.31 45.04 32.24 45.04 35.54C45.04 38.11 44.43 40.43 43.21 42.51C41.99 44.59 40.31 46.24 38.17 47.46C36.03 48.68 33.74 49.29 31.29 49.29Z" fill="#7F7E97" fill-opacity="1.000000" fill-rule="nonzero"/>
</svg>
