<svg width="30.000000" height="26.000000" viewBox="0 0 30 26" fill="none" xmlns="http://www.w3.org/2000/svg" xmlns:xlink="http://www.w3.org/1999/xlink">
	<desc>
			Created with Pixso.
	</desc>
	<defs>
		<clipPath id="clip6512_1858">
			<rect id="cat_star.svg" width="30.000000" height="26.000000" transform="translate(0.000000 -0.719971)" fill="white" fill-opacity="0"/>
		</clipPath>
	</defs>
	<g clip-path="url(#clip6512_1858)">
		<path id="Vector" d="M30 12.7C29.49 13.08 29.24 13.45 28.98 13.58C27.72 14.08 26.45 14.58 25.18 15.09C23.29 15.71 22.15 16.97 21.89 18.98C21.64 20.61 21.39 22.25 21.01 23.88C20.88 24.38 20.5 25.14 20.12 25.26C19.36 25.39 19.36 24.51 19.24 24.01C18.73 22.5 18.22 20.87 17.84 19.36C17.21 17.22 15.82 16.09 13.54 16.09C12.65 16.09 11.89 15.97 11.01 15.84C10.5 15.84 10.25 15.59 10 15.34C10.25 15.09 10.37 14.71 10.63 14.58C11.89 14.08 13.29 13.58 14.55 13.2C15.82 12.82 16.7 11.94 16.96 10.69C17.46 8.68 17.84 6.67 18.35 4.78C18.6 4.15 18.35 3.28 19.24 3.28C20.12 3.28 20 4.03 20.12 4.53C20.5 6.29 20.88 7.92 21.39 9.68C22.02 11.94 22.53 12.32 24.93 12.32C26.2 12.32 27.59 12.2 28.86 12.2C28.98 12.2 29.36 12.45 30 12.7Z" fill="#CECCFD" fill-opacity="1.000000" fill-rule="nonzero"/>
		<path id="Vector" d="M10 3.99C9.74 4.18 9.62 4.36 9.49 4.43C8.86 4.68 8.22 4.93 7.59 5.18C6.64 5.49 6.07 6.12 5.94 7.13C5.82 7.94 5.69 8.76 5.5 9.58C5.44 9.83 5.25 10.21 5.06 10.27C4.68 10.33 4.68 9.89 4.62 9.64C4.36 8.89 4.11 8.07 3.92 7.32C3.6 6.25 2.91 5.68 1.77 5.68C1.33 5.68 0.94 5.62 0.5 5.56C0.25 5.56 0.12 5.43 0 5.31C0.12 5.18 0.18 4.99 0.31 4.93C0.94 4.68 1.64 4.43 2.27 4.24C2.91 4.05 3.35 3.61 3.48 2.98C3.73 1.98 3.92 0.97 4.17 0.03C4.3 -0.29 4.17 -0.72 4.62 -0.72C5.06 -0.72 5 -0.35 5.06 -0.1C5.25 0.78 5.44 1.6 5.69 2.48C6.01 3.61 6.26 3.8 7.46 3.8C8.1 3.8 8.79 3.74 9.42 3.74C9.49 3.74 9.68 3.86 10 3.99Z" fill="#CECCFD" fill-opacity="1.000000" fill-rule="nonzero"/>
	</g>
</svg>
