<svg width="161.000000" height="51.000000" viewBox="0 0 161 51" fill="none" xmlns="http://www.w3.org/2000/svg" xmlns:xlink="http://www.w3.org/1999/xlink">
	<desc>
			Created with Pixso.
	</desc>
	<defs>
		<clipPath id="clip6512_2532">
			<rect id="apple-store.svg" width="161.000000" height="51.000000" transform="translate(0.000000 -0.500000)" fill="white" fill-opacity="0"/>
		</clipPath>
		<clipPath id="clip6512_2531">
			<rect id="apple-store.svg fill" width="161.000000" height="51.000000" transform="translate(0.000000 -0.500000)" fill="white" fill-opacity="0"/>
		</clipPath>
		<clipPath id="clip6512_2530">
			<rect id="Link → apple-store.svg" rx="4.000000" width="161.000000" height="51.000000" transform="translate(0.000000 -0.500000)" fill="white" fill-opacity="0"/>
		</clipPath>
	</defs>
	<g clip-path="url(#clip6512_2530)">
		<g clip-path="url(#clip6512_2531)">
			<g clip-path="url(#clip6512_2532)">
				<path id="Vector" d="M0 -0.5L161 -0.5L161 50.5L0 50.5L0 -0.5Z" fill="#1C1B3C" fill-opacity="1.000000" fill-rule="evenodd"/>
				<path id="Vector" d="M31.12 33.24C30 34.86 28.81 36.43 26.99 36.45C25.17 36.49 24.59 35.43 22.53 35.43C20.45 35.43 19.82 36.43 18.09 36.49C16.32 36.56 14.98 34.78 13.84 33.2C11.52 29.99 9.74 24.08 12.13 20.1C13.31 18.13 15.42 16.88 17.71 16.84C19.45 16.81 21.1 17.97 22.17 17.97C23.23 17.97 25.24 16.58 27.34 16.79C28.22 16.83 30.69 17.12 32.28 19.36C32.16 19.44 29.33 21.02 29.36 24.31C29.4 28.24 32.95 29.55 33 29.56C32.95 29.66 32.42 31.44 31.12 33.24ZM23.38 12.44C24.37 11.37 26.01 10.55 27.37 10.5C27.54 12.02 26.91 13.55 25.96 14.64C25.02 15.75 23.48 16.6 21.96 16.49C21.75 14.99 22.51 13.43 23.38 12.44Z" fill="#FFFFFF" fill-opacity="1.000000" fill-rule="nonzero"/>
				<path id="Vector" d="M47.92 18.5L47.92 17.46L50.24 17.46C50.85 17.46 51.39 17.33 51.85 17.07C52.32 16.8 52.68 16.42 52.93 15.95C53.2 15.48 53.33 14.93 53.33 14.32C53.33 13.71 53.2 13.17 52.93 12.7C52.67 12.23 52.31 11.86 51.84 11.6C51.38 11.33 50.84 11.2 50.24 11.2L47.93 11.2L47.93 10.17L50.26 10.17C50.87 10.17 51.43 10.27 51.94 10.48C52.46 10.69 52.91 10.98 53.28 11.36C53.67 11.73 53.96 12.17 54.17 12.68C54.39 13.18 54.5 13.73 54.5 14.33C54.5 14.92 54.39 15.48 54.17 15.99C53.96 16.49 53.67 16.93 53.29 17.31C52.92 17.68 52.47 17.98 51.95 18.18C51.44 18.39 50.88 18.5 50.28 18.5L47.92 18.5ZM47.17 18.5L47.17 10.17L48.3 10.17L48.3 18.5L47.17 18.5ZM58.59 18.62C58.03 18.62 57.53 18.48 57.08 18.22C56.63 17.95 56.27 17.6 56.01 17.15C55.75 16.7 55.61 16.19 55.61 15.63C55.61 15.08 55.75 14.58 56.01 14.14C56.27 13.69 56.63 13.34 57.08 13.07C57.53 12.81 58.03 12.68 58.59 12.68C59.14 12.68 59.64 12.81 60.09 13.07C60.55 13.33 60.91 13.68 61.17 14.13C61.43 14.58 61.57 15.08 61.57 15.63C61.57 16.19 61.43 16.7 61.17 17.15C60.91 17.6 60.55 17.95 60.09 18.22C59.64 18.48 59.14 18.62 58.59 18.62ZM58.59 17.57C58.95 17.57 59.27 17.49 59.55 17.32C59.83 17.15 60.05 16.92 60.21 16.64C60.37 16.34 60.45 16 60.45 15.63C60.45 15.26 60.37 14.93 60.2 14.64C60.04 14.36 59.82 14.13 59.54 13.97C59.26 13.8 58.95 13.72 58.59 13.72C58.23 13.72 57.91 13.8 57.63 13.97C57.35 14.13 57.13 14.36 56.97 14.64C56.81 14.93 56.73 15.26 56.73 15.63C56.73 16 56.81 16.34 56.97 16.64C57.13 16.92 57.35 17.15 57.63 17.32C57.91 17.49 58.23 17.57 58.59 17.57ZM64.37 18.5L62.11 12.8L63.24 12.8L64.87 17.24L64.51 17.24L66.13 12.8L66.76 12.8L68.38 17.24L68.02 17.24L69.65 12.8L70.78 12.8L68.53 18.5L67.9 18.5L66.25 14.19L66.65 14.19L65 18.5L64.37 18.5ZM75.89 18.5L75.89 15.17C75.89 14.74 75.75 14.38 75.48 14.1C75.21 13.82 74.86 13.68 74.43 13.68C74.14 13.68 73.88 13.75 73.66 13.88C73.43 14 73.26 14.18 73.13 14.4C73 14.63 72.94 14.88 72.94 15.17L72.5 14.92C72.5 14.49 72.59 14.1 72.78 13.77C72.97 13.43 73.24 13.17 73.59 12.98C73.93 12.78 74.32 12.68 74.75 12.68C75.18 12.68 75.56 12.78 75.89 13C76.23 13.22 76.49 13.5 76.68 13.85C76.87 14.2 76.97 14.56 76.97 14.96L76.97 18.5L75.89 18.5ZM71.86 18.5L71.86 12.8L72.94 12.8L72.94 18.5L71.86 18.5ZM78.55 18.5L78.55 9.93L79.63 9.93L79.63 18.5L78.55 18.5ZM83.94 18.62C83.38 18.62 82.87 18.48 82.42 18.22C81.98 17.95 81.62 17.6 81.36 17.15C81.09 16.7 80.96 16.19 80.96 15.63C80.96 15.08 81.09 14.58 81.36 14.14C81.62 13.69 81.98 13.34 82.42 13.07C82.87 12.81 83.38 12.68 83.94 12.68C84.49 12.68 84.99 12.81 85.44 13.07C85.89 13.33 86.25 13.68 86.52 14.13C86.78 14.58 86.91 15.08 86.91 15.63C86.91 16.19 86.78 16.7 86.52 17.15C86.25 17.6 85.89 17.95 85.44 18.22C84.99 18.48 84.49 18.62 83.94 18.62ZM83.94 17.57C84.3 17.57 84.62 17.49 84.9 17.32C85.18 17.15 85.4 16.92 85.56 16.64C85.72 16.34 85.8 16 85.8 15.63C85.8 15.26 85.71 14.93 85.54 14.64C85.39 14.36 85.16 14.13 84.89 13.97C84.61 13.8 84.3 13.72 83.94 13.72C83.58 13.72 83.26 13.8 82.98 13.97C82.7 14.13 82.48 14.36 82.32 14.64C82.16 14.93 82.08 15.26 82.08 15.63C82.08 16 82.16 16.34 82.32 16.64C82.48 16.92 82.7 17.15 82.98 17.32C83.26 17.49 83.58 17.57 83.94 17.57ZM90.67 18.62C90.15 18.62 89.68 18.49 89.26 18.23C88.83 17.97 88.5 17.61 88.25 17.16C88.01 16.72 87.89 16.21 87.89 15.65C87.89 15.09 88.01 14.59 88.25 14.14C88.5 13.69 88.83 13.34 89.25 13.07C89.67 12.81 90.15 12.68 90.67 12.68C91.11 12.68 91.49 12.77 91.83 12.95C92.17 13.13 92.45 13.38 92.65 13.7C92.86 14.01 92.98 14.37 93 14.79L93 16.5C92.98 16.91 92.86 17.28 92.65 17.6C92.45 17.91 92.18 18.17 91.84 18.35C91.5 18.53 91.11 18.62 90.67 18.62ZM90.85 17.6C91.39 17.6 91.82 17.41 92.15 17.06C92.48 16.69 92.64 16.22 92.64 15.65C92.64 15.26 92.57 14.92 92.41 14.63C92.27 14.34 92.06 14.11 91.79 13.95C91.52 13.78 91.2 13.7 90.84 13.7C90.48 13.7 90.16 13.78 89.88 13.95C89.61 14.12 89.39 14.35 89.23 14.64C89.08 14.93 89 15.26 89 15.64C89 16.02 89.08 16.36 89.23 16.66C89.39 16.95 89.61 17.18 89.89 17.34C90.17 17.51 90.49 17.6 90.85 17.6ZM92.57 18.5L92.57 16.96L92.77 15.57L92.57 14.19L92.57 12.8L93.66 12.8L93.66 18.5L92.57 18.5ZM97.77 18.62C97.24 18.62 96.77 18.49 96.35 18.23C95.93 17.97 95.6 17.61 95.35 17.16C95.11 16.72 94.99 16.21 94.99 15.65C94.99 15.09 95.11 14.59 95.35 14.14C95.6 13.69 95.93 13.34 96.35 13.07C96.77 12.81 97.24 12.68 97.77 12.68C98.19 12.68 98.57 12.77 98.92 12.95C99.26 13.13 99.54 13.38 99.75 13.7C99.96 14.01 100.08 14.37 100.11 14.79L100.11 16.5C100.08 16.91 99.97 17.28 99.76 17.6C99.55 17.91 99.27 18.17 98.93 18.35C98.59 18.53 98.2 18.62 97.77 18.62ZM97.95 17.6C98.31 17.6 98.62 17.51 98.88 17.34C99.15 17.18 99.37 16.95 99.52 16.66C99.67 16.36 99.75 16.03 99.75 15.65C99.75 15.26 99.66 14.92 99.51 14.63C99.35 14.34 99.14 14.12 98.87 13.95C98.61 13.78 98.29 13.7 97.93 13.7C97.57 13.7 97.26 13.78 96.99 13.95C96.71 14.12 96.5 14.35 96.34 14.64C96.19 14.93 96.11 15.26 96.11 15.64C96.11 16.02 96.19 16.36 96.34 16.66C96.5 16.95 96.71 17.18 96.99 17.34C97.27 17.51 97.59 17.6 97.95 17.6ZM100.77 18.5L99.67 18.5L99.67 16.96L99.88 15.57L99.67 14.19L99.67 9.93L100.77 9.93L100.77 18.5ZM109.06 18.62C108.47 18.62 107.92 18.51 107.4 18.29C106.89 18.07 106.44 17.76 106.06 17.37C105.68 16.97 105.37 16.51 105.16 15.99C104.95 15.47 104.85 14.91 104.85 14.32C104.85 13.72 104.95 13.16 105.16 12.65C105.37 12.13 105.67 11.68 106.05 11.28C106.43 10.89 106.87 10.59 107.38 10.37C107.89 10.16 108.44 10.05 109.03 10.05C109.63 10.05 110.18 10.16 110.68 10.37C111.19 10.59 111.64 10.89 112.02 11.28C112.41 11.68 112.71 12.13 112.92 12.65C113.14 13.17 113.25 13.73 113.25 14.33C113.25 14.92 113.14 15.48 112.92 16C112.71 16.52 112.41 16.98 112.02 17.37C111.65 17.76 111.2 18.07 110.69 18.29C110.19 18.51 109.64 18.62 109.06 18.62ZM109.03 17.54C109.63 17.54 110.16 17.4 110.61 17.13C111.06 16.85 111.42 16.47 111.69 15.99C111.95 15.5 112.08 14.94 112.08 14.32C112.08 13.86 112.01 13.43 111.85 13.05C111.7 12.66 111.49 12.32 111.22 12.03C110.95 11.74 110.63 11.52 110.26 11.37C109.89 11.21 109.48 11.13 109.03 11.13C108.44 11.13 107.92 11.26 107.46 11.54C107.02 11.81 106.66 12.18 106.4 12.66C106.14 13.14 106.01 13.7 106.01 14.32C106.01 14.78 106.08 15.22 106.23 15.62C106.38 16.01 106.59 16.35 106.85 16.64C107.12 16.91 107.44 17.14 107.81 17.3C108.19 17.45 108.6 17.54 109.03 17.54ZM118.75 18.5L118.75 15.17C118.75 14.74 118.62 14.38 118.35 14.1C118.07 13.82 117.72 13.68 117.29 13.68C117 13.68 116.75 13.75 116.52 13.88C116.3 14 116.12 14.18 115.99 14.4C115.87 14.63 115.8 14.88 115.8 15.17L115.36 14.92C115.36 14.49 115.45 14.1 115.65 13.77C115.84 13.43 116.11 13.17 116.45 12.98C116.79 12.78 117.18 12.68 117.61 12.68C118.05 12.68 118.43 12.78 118.75 13C119.09 13.22 119.35 13.5 119.55 13.85C119.74 14.2 119.83 14.56 119.83 14.96L119.83 18.5L118.75 18.5ZM114.72 18.5L114.72 12.8L115.8 12.8L115.8 18.5L114.72 18.5ZM126.25 18.5L126.25 10.41L127.37 10.41L127.37 18.5L126.25 18.5ZM123.41 11.2L123.41 10.17L130.19 10.17L130.19 11.2L123.41 11.2ZM135.5 18.5L135.5 15.17C135.5 14.74 135.36 14.38 135.09 14.1C134.82 13.82 134.46 13.68 134.03 13.68C133.75 13.68 133.49 13.75 133.27 13.88C133.04 14 132.86 14.18 132.74 14.4C132.61 14.63 132.54 14.88 132.54 15.17L132.1 14.92C132.1 14.49 132.2 14.1 132.39 13.77C132.58 13.43 132.85 13.17 133.19 12.98C133.54 12.78 133.92 12.68 134.36 12.68C134.79 12.68 135.17 12.77 135.5 12.96C135.83 13.16 136.1 13.42 136.29 13.77C136.48 14.11 136.58 14.51 136.58 14.96L136.58 18.5L135.5 18.5ZM131.46 18.5L131.46 9.93L132.54 9.93L132.54 18.5L131.46 18.5ZM140.8 18.62C140.23 18.62 139.72 18.49 139.26 18.23C138.81 17.97 138.45 17.61 138.18 17.16C137.92 16.72 137.79 16.21 137.79 15.64C137.79 15.08 137.92 14.58 138.17 14.13C138.43 13.68 138.79 13.33 139.23 13.07C139.67 12.81 140.17 12.68 140.73 12.68C141.25 12.68 141.72 12.8 142.12 13.04C142.53 13.28 142.84 13.61 143.07 14.03C143.3 14.46 143.42 14.93 143.42 15.47C143.42 15.55 143.41 15.64 143.4 15.74C143.39 15.82 143.38 15.93 143.35 16.05L138.54 16.05L138.54 15.15L142.78 15.15L142.38 15.5C142.38 15.11 142.32 14.79 142.18 14.52C142.04 14.25 141.85 14.04 141.6 13.9C141.35 13.75 141.05 13.67 140.7 13.67C140.34 13.67 140.01 13.75 139.73 13.91C139.45 14.07 139.24 14.3 139.08 14.58C138.93 14.87 138.85 15.21 138.85 15.6C138.85 16 138.93 16.36 139.1 16.66C139.25 16.95 139.48 17.19 139.78 17.36C140.08 17.52 140.42 17.6 140.8 17.6C141.12 17.6 141.41 17.54 141.67 17.43C141.95 17.32 142.18 17.15 142.37 16.92L143.07 17.63C142.79 17.95 142.46 18.2 142.06 18.36C141.67 18.53 141.25 18.62 140.8 18.62Z" fill="#B2BBCC" fill-opacity="1.000000" fill-rule="nonzero"/>
				<path id="Vector" d="M45.16 36.5L49.77 25.29L51.05 25.29L55.63 36.5L53.65 36.5L50.06 27.42L50.73 27.42L47.12 36.5L45.16 36.5ZM47.44 34.33L47.44 32.73L53.37 32.73L53.37 34.33L47.44 34.33ZM61.26 36.66C60.68 36.66 60.15 36.53 59.7 36.29C59.24 36.03 58.87 35.68 58.61 35.25C58.35 34.81 58.22 34.31 58.22 33.76L58.22 31.55C58.22 31 58.36 30.5 58.62 30.06C58.89 29.63 59.25 29.28 59.71 29.04C60.17 28.78 60.69 28.66 61.26 28.66C61.96 28.66 62.58 28.84 63.14 29.2C63.7 29.55 64.14 30.03 64.46 30.64C64.79 31.24 64.96 31.91 64.96 32.67C64.96 33.42 64.79 34.1 64.46 34.7C64.14 35.3 63.7 35.77 63.14 36.13C62.58 36.48 61.96 36.66 61.26 36.66ZM60.98 34.99C61.4 34.99 61.78 34.89 62.09 34.7C62.43 34.5 62.68 34.22 62.86 33.87C63.06 33.52 63.15 33.11 63.15 32.66C63.15 32.2 63.06 31.79 62.86 31.44C62.68 31.09 62.43 30.81 62.09 30.62C61.78 30.42 61.4 30.32 60.98 30.32C60.55 30.32 60.17 30.42 59.84 30.62C59.51 30.81 59.25 31.09 59.07 31.44C58.89 31.79 58.8 32.2 58.8 32.66C58.8 33.11 58.89 33.52 59.07 33.87C59.25 34.22 59.51 34.5 59.84 34.7C60.17 34.89 60.55 34.99 60.98 34.99ZM57.15 39.7L57.15 28.81L58.91 28.81L58.91 30.88L58.61 32.75L58.91 34.61L58.91 39.7L57.15 39.7ZM70.7 36.66C70.12 36.66 69.59 36.53 69.14 36.29C68.68 36.03 68.32 35.68 68.05 35.25C67.79 34.81 67.66 34.31 67.66 33.76L67.66 31.55C67.66 31 67.8 30.5 68.07 30.06C68.33 29.63 68.69 29.28 69.15 29.04C69.61 28.78 70.13 28.66 70.7 28.66C71.4 28.66 72.02 28.84 72.58 29.2C73.14 29.55 73.58 30.03 73.91 30.64C74.24 31.24 74.4 31.91 74.4 32.67C74.4 33.42 74.24 34.1 73.91 34.7C73.58 35.3 73.14 35.77 72.58 36.13C72.02 36.48 71.4 36.66 70.7 36.66ZM70.42 34.99C70.84 34.99 71.22 34.89 71.54 34.7C71.87 34.5 72.12 34.22 72.31 33.87C72.5 33.52 72.59 33.11 72.59 32.66C72.59 32.2 72.5 31.79 72.31 31.44C72.12 31.09 71.87 30.81 71.54 30.62C71.22 30.42 70.84 30.32 70.42 30.32C69.99 30.32 69.61 30.42 69.28 30.62C68.95 30.81 68.69 31.09 68.51 31.44C68.33 31.79 68.24 32.2 68.24 32.66C68.24 33.11 68.33 33.52 68.51 33.87C68.69 34.22 68.95 34.5 69.28 34.7C69.61 34.89 69.99 34.99 70.42 34.99ZM66.59 39.7L66.59 28.81L68.35 28.81L68.35 30.88L68.05 32.75L68.35 34.61L68.35 39.7L66.59 39.7ZM76.03 36.5L76.03 24.98L77.79 24.98L77.79 36.5L76.03 36.5ZM83.48 36.66C82.71 36.66 82.02 36.48 81.4 36.14C80.79 35.79 80.31 35.31 79.94 34.7C79.59 34.1 79.42 33.41 79.42 32.66C79.42 31.9 79.59 31.22 79.94 30.62C80.3 30.02 80.77 29.54 81.37 29.18C81.98 28.83 82.65 28.66 83.38 28.66C84.1 28.66 84.73 28.82 85.27 29.15C85.83 29.48 86.26 29.93 86.57 30.51C86.89 31.09 87.05 31.74 87.05 32.48C87.05 32.61 87.04 32.74 87.02 32.88C87.01 33.01 86.99 33.15 86.95 33.31L80.65 33.31L80.65 31.87L86.04 31.87L85.38 32.45C85.36 31.98 85.27 31.58 85.11 31.26C84.95 30.94 84.72 30.7 84.42 30.53C84.14 30.36 83.78 30.27 83.35 30.27C82.91 30.27 82.51 30.37 82.18 30.56C81.85 30.75 81.6 31.02 81.42 31.37C81.24 31.72 81.15 32.13 81.15 32.61C81.15 33.09 81.24 33.51 81.43 33.87C81.62 34.23 81.9 34.52 82.25 34.72C82.6 34.91 83.01 35.01 83.46 35.01C83.86 35.01 84.22 34.94 84.55 34.8C84.89 34.66 85.18 34.46 85.42 34.19L86.54 35.33C86.16 35.76 85.71 36.1 85.18 36.32C84.64 36.54 84.08 36.66 83.48 36.66ZM95.34 36.66C94.46 36.66 93.71 36.5 93.09 36.18C92.47 35.85 91.91 35.39 91.42 34.77L92.67 33.52C92.98 33.97 93.35 34.32 93.77 34.58C94.2 34.82 94.75 34.94 95.41 34.94C96.02 34.94 96.52 34.81 96.88 34.56C97.25 34.3 97.44 33.95 97.44 33.5C97.44 33.13 97.34 32.83 97.15 32.59C96.96 32.36 96.7 32.16 96.38 32.02C96.07 31.85 95.73 31.72 95.34 31.6C94.97 31.47 94.59 31.33 94.21 31.18C93.83 31.02 93.49 30.83 93.17 30.59C92.86 30.36 92.61 30.05 92.41 29.68C92.22 29.31 92.13 28.83 92.13 28.25C92.13 27.59 92.29 27.03 92.61 26.58C92.94 26.11 93.38 25.75 93.93 25.5C94.49 25.26 95.11 25.14 95.79 25.14C96.53 25.14 97.18 25.28 97.76 25.57C98.34 25.85 98.82 26.22 99.18 26.67L97.93 27.92C97.61 27.56 97.28 27.29 96.93 27.12C96.58 26.94 96.19 26.85 95.74 26.85C95.19 26.85 94.75 26.96 94.43 27.18C94.12 27.41 93.97 27.72 93.97 28.13C93.97 28.47 94.06 28.75 94.25 28.96C94.45 29.16 94.7 29.34 95.01 29.49C95.33 29.63 95.67 29.76 96.05 29.89C96.43 30.02 96.81 30.16 97.18 30.32C97.57 30.48 97.91 30.69 98.22 30.94C98.54 31.19 98.8 31.51 98.99 31.9C99.18 32.3 99.28 32.79 99.28 33.39C99.28 34.39 98.92 35.19 98.21 35.77C97.5 36.36 96.55 36.66 95.34 36.66ZM102.2 36.5L102.2 25.62L103.96 25.62L103.96 36.5L102.2 36.5ZM100.36 30.41L100.36 28.81L105.8 28.81L105.8 30.41L100.36 30.41ZM110.54 36.66C109.8 36.66 109.12 36.48 108.51 36.13C107.9 35.76 107.42 35.28 107.05 34.67C106.7 34.06 106.52 33.39 106.52 32.64C106.52 31.89 106.7 31.22 107.05 30.62C107.42 30.03 107.9 29.55 108.51 29.2C109.12 28.84 109.8 28.66 110.54 28.66C111.3 28.66 111.98 28.83 112.59 29.18C113.2 29.54 113.68 30.02 114.03 30.62C114.39 31.22 114.57 31.89 114.57 32.64C114.57 33.39 114.39 34.06 114.03 34.67C113.68 35.28 113.2 35.76 112.59 36.13C111.98 36.48 111.3 36.66 110.54 36.66ZM110.54 34.96C110.98 34.96 111.36 34.86 111.69 34.67C112.03 34.47 112.3 34.19 112.48 33.84C112.67 33.49 112.77 33.09 112.77 32.64C112.77 32.19 112.67 31.8 112.48 31.46C112.28 31.11 112.02 30.85 111.69 30.66C111.36 30.45 110.98 30.35 110.54 30.35C110.11 30.35 109.73 30.45 109.39 30.66C109.06 30.85 108.8 31.11 108.6 31.46C108.43 31.8 108.33 32.19 108.33 32.64C108.33 33.09 108.43 33.49 108.6 33.84C108.8 34.19 109.06 34.47 109.39 34.67C109.73 34.86 110.11 34.96 110.54 34.96ZM116.2 36.5L116.2 28.81L117.96 28.81L117.96 36.5L116.2 36.5ZM117.96 32.22L117.35 31.92C117.35 30.95 117.56 30.16 117.99 29.57C118.43 28.96 119.08 28.66 119.96 28.66C120.34 28.66 120.69 28.72 121 28.86C121.31 29 121.6 29.23 121.86 29.54L120.71 30.72C120.57 30.57 120.42 30.46 120.25 30.4C120.07 30.33 119.88 30.3 119.65 30.3C119.16 30.3 118.76 30.46 118.44 30.77C118.12 31.08 117.96 31.56 117.96 32.22ZM126.21 36.66C125.44 36.66 124.75 36.48 124.13 36.14C123.52 35.79 123.03 35.31 122.67 34.7C122.32 34.1 122.14 33.41 122.14 32.66C122.14 31.9 122.32 31.22 122.67 30.62C123.02 30.02 123.5 29.54 124.1 29.18C124.7 28.83 125.37 28.66 126.11 28.66C126.83 28.66 127.45 28.82 128 29.15C128.55 29.48 128.99 29.93 129.29 30.51C129.61 31.09 129.77 31.74 129.77 32.48C129.77 32.61 129.77 32.74 129.74 32.88C129.73 33.01 129.71 33.15 129.68 33.31L123.37 33.31L123.37 31.87L128.77 31.87L128.11 32.45C128.09 31.98 128 31.58 127.84 31.26C127.68 30.94 127.45 30.7 127.15 30.53C126.86 30.36 126.51 30.27 126.08 30.27C125.63 30.27 125.24 30.37 124.91 30.56C124.58 30.75 124.32 31.02 124.14 31.37C123.96 31.72 123.87 32.13 123.87 32.61C123.87 33.09 123.97 33.51 124.16 33.87C124.35 34.23 124.62 34.52 124.97 34.72C125.33 34.91 125.73 35.01 126.19 35.01C126.59 35.01 126.95 34.94 127.28 34.8C127.62 34.66 127.91 34.46 128.14 34.19L129.26 35.33C128.89 35.76 128.44 36.1 127.9 36.32C127.37 36.54 126.8 36.66 126.21 36.66Z" fill="#FFFFFF" fill-opacity="1.000000" fill-rule="nonzero"/>
			</g>
		</g>
	</g>
</svg>
