<svg width="156.000000" height="38.000000" viewBox="0 0 156 38" fill="none" xmlns="http://www.w3.org/2000/svg" xmlns:xlink="http://www.w3.org/1999/xlink">
	<desc>
			Created with Pixso.
	</desc>
	<defs>
		<clipPath id="clip6512_2467">
			<rect id="secondary_logo.svg" width="156.000000" height="38.000000" transform="translate(0.000000 -0.589844)" fill="white" fill-opacity="0"/>
		</clipPath>
		<clipPath id="clip6512_2466">
			<rect id="secondary_logo.svg fill" width="156.000000" height="38.000000" transform="translate(0.000000 -0.589844)" fill="white" fill-opacity="0"/>
		</clipPath>
		<clipPath id="clip6512_2465">
			<rect id="Link → secondary_logo.svg" width="156.000000" height="38.000000" transform="translate(0.000000 -0.589844)" fill="white" fill-opacity="0"/>
		</clipPath>
	</defs>
	<g clip-path="url(#clip6512_2465)">
		<g clip-path="url(#clip6512_2466)">
			<g clip-path="url(#clip6512_2467)">
				<mask id="mask6512_2489" mask-type="alpha" maskUnits="userSpaceOnUse" x="0.000000" y="-0.589844" width="156.000000" height="38.000000">
					<path id="Vector" d="M0 -0.59L156 -0.59L156 37.41L0 37.41L0 -0.59Z" fill="#000000" fill-opacity="1.000000" fill-rule="evenodd"/>
				</mask>
				<g mask="url(#mask6512_2489)">
					<path id="Vector" d="M52.78 8.33C52.7 7.49 52.34 6.84 51.71 6.38C51.08 5.91 50.23 5.68 49.14 5.68C48.41 5.68 47.79 5.78 47.28 5.99C46.77 6.19 46.39 6.47 46.12 6.83C45.85 7.2 45.72 7.6 45.72 8.06C45.71 8.44 45.79 8.78 45.96 9.06C46.14 9.35 46.39 9.59 46.7 9.8C47.01 10 47.37 10.18 47.78 10.33C48.19 10.48 48.63 10.6 49.09 10.7L51 11.16C51.93 11.37 52.79 11.65 53.56 11.99C54.34 12.34 55.01 12.77 55.58 13.27C56.15 13.78 56.59 14.38 56.9 15.06C57.22 15.75 57.39 16.54 57.39 17.42C57.39 18.73 57.05 19.86 56.39 20.82C55.74 21.77 54.8 22.5 53.56 23.03C52.34 23.55 50.86 23.81 49.12 23.81C47.4 23.81 45.91 23.55 44.63 23.02C43.36 22.49 42.37 21.71 41.65 20.68C40.95 19.64 40.58 18.35 40.54 16.82L44.9 16.82C44.95 17.54 45.15 18.13 45.51 18.61C45.88 19.08 46.37 19.44 46.98 19.68C47.6 19.92 48.29 20.04 49.07 20.04C49.83 20.04 50.5 19.92 51.06 19.7C51.63 19.48 52.07 19.17 52.38 18.78C52.69 18.38 52.85 17.93 52.85 17.41C52.85 16.94 52.7 16.53 52.42 16.21C52.14 15.88 51.73 15.6 51.19 15.37C50.66 15.15 50 14.94 49.23 14.75L46.91 14.17C45.11 13.73 43.69 13.05 42.65 12.12C41.61 11.19 41.09 9.94 41.1 8.36C41.09 7.07 41.44 5.95 42.13 4.98C42.83 4.02 43.79 3.27 45.01 2.73C46.23 2.18 47.62 1.91 49.17 1.91C50.75 1.91 52.14 2.18 53.31 2.73C54.5 3.27 55.42 4.02 56.08 4.98C56.74 5.95 57.08 7.06 57.1 8.33L52.78 8.33Z" fill="#FFFFFF" fill-opacity="1.000000" fill-rule="nonzero"/>
					<path id="Vector" d="M64.65 18.91L64.66 13.6L65.3 13.6L70.42 7.53L75.51 7.53L68.63 15.56L67.58 15.56L64.65 18.91ZM60.63 23.51L60.63 2.21L65.06 2.21L65.06 23.51L60.63 23.51ZM70.62 23.51L65.92 16.55L68.87 13.42L75.81 23.51L70.62 23.51Z" fill="#FFFFFF" fill-opacity="1.000000" fill-rule="nonzero"/>
					<path id="Vector" d="M77.97 23.51L77.97 7.53L82.41 7.53L82.41 23.51L77.97 23.51ZM80.2 5.47C79.54 5.47 78.98 5.25 78.5 4.82C78.04 4.37 77.81 3.84 77.81 3.22C77.81 2.61 78.04 2.09 78.5 1.65C78.98 1.21 79.54 0.99 80.2 0.99C80.86 0.99 81.42 1.21 81.89 1.65C82.36 2.09 82.59 2.61 82.59 3.22C82.59 3.84 82.36 4.37 81.89 4.82C81.42 5.25 80.86 5.47 80.2 5.47Z" fill="#FFFFFF" fill-opacity="1.000000" fill-rule="nonzero"/>
					<path id="Vector" d="M90.68 2.21L90.68 23.51L86.25 23.51L86.25 2.21L90.68 2.21Z" fill="#FFFFFF" fill-opacity="1.000000" fill-rule="nonzero"/>
					<path id="Vector" d="M98.95 2.21L98.95 23.51L94.52 23.51L94.52 2.21L98.95 2.21Z" fill="#FFFFFF" fill-opacity="1.000000" fill-rule="nonzero"/>
					<path id="Vector" d="M117.01 9.09C116.86 8.59 116.66 8.14 116.4 7.75C116.13 7.35 115.81 7.02 115.43 6.75C115.05 6.47 114.62 6.26 114.14 6.12C113.66 5.97 113.13 5.9 112.55 5.9C111.46 5.9 110.5 6.17 109.68 6.71C108.86 7.25 108.22 8.04 107.76 9.07C107.3 10.1 107.07 11.35 107.07 12.84C107.07 14.32 107.3 15.58 107.75 16.62C108.2 17.66 108.84 18.46 109.66 19.01C110.49 19.55 111.46 19.82 112.59 19.82C113.61 19.82 114.48 19.64 115.2 19.28C115.93 18.91 116.48 18.39 116.86 17.73C117.25 17.06 117.44 16.27 117.44 15.36L118.36 15.5L112.87 15.5L112.87 12.11L121.78 12.11L121.78 14.79C121.78 16.66 121.39 18.27 120.6 19.62C119.81 20.96 118.72 21.99 117.33 22.72C115.94 23.44 114.36 23.8 112.57 23.8C110.57 23.8 108.82 23.36 107.3 22.48C105.79 21.59 104.61 20.33 103.77 18.7C102.93 17.07 102.51 15.13 102.51 12.88C102.51 11.15 102.76 9.61 103.26 8.26C103.76 6.9 104.47 5.75 105.38 4.81C106.29 3.86 107.35 3.14 108.55 2.65C109.76 2.16 111.07 1.91 112.47 1.91C113.68 1.91 114.8 2.09 115.84 2.44C116.88 2.79 117.81 3.28 118.61 3.92C119.42 4.56 120.08 5.32 120.6 6.2C121.11 7.07 121.44 8.04 121.59 9.09L117.01 9.09Z" fill="#FFFFFF" fill-opacity="1.000000" fill-rule="nonzero"/>
					<path id="Vector" d="M125.38 23.51L125.38 7.53L129.67 7.53L129.67 10.32L129.84 10.32C130.13 9.33 130.62 8.58 131.31 8.07C131.99 7.56 132.78 7.3 133.68 7.3C133.9 7.3 134.14 7.32 134.39 7.34C134.65 7.37 134.88 7.41 135.07 7.46L135.07 11.39C134.86 11.33 134.58 11.27 134.21 11.22C133.84 11.18 133.5 11.15 133.2 11.15C132.55 11.15 131.97 11.29 131.45 11.58C130.94 11.86 130.54 12.24 130.25 12.74C129.95 13.24 129.81 13.82 129.81 14.47L129.81 23.51L125.38 23.51Z" fill="#FFFFFF" fill-opacity="1.000000" fill-rule="nonzero"/>
					<path id="Vector" d="M144.13 23.82C142.52 23.82 141.12 23.48 139.94 22.79C138.77 22.1 137.86 21.13 137.22 19.9C136.59 18.66 136.27 17.22 136.27 15.58C136.27 13.93 136.59 12.49 137.22 11.26C137.86 10.01 138.77 9.05 139.94 8.36C141.12 7.67 142.52 7.32 144.13 7.32C145.75 7.32 147.14 7.67 148.31 8.36C149.49 9.05 150.4 10.01 151.04 11.26C151.68 12.49 152 13.93 152 15.58C152 17.22 151.68 18.66 151.04 19.9C150.4 21.13 149.49 22.1 148.31 22.79C147.14 23.48 145.75 23.82 144.13 23.82ZM144.15 20.39C144.89 20.39 145.5 20.18 145.99 19.76C146.49 19.34 146.86 18.77 147.11 18.04C147.36 17.31 147.49 16.48 147.49 15.55C147.49 14.62 147.36 13.79 147.11 13.07C146.86 12.34 146.49 11.76 145.99 11.34C145.5 10.92 144.89 10.7 144.15 10.7C143.41 10.7 142.79 10.92 142.28 11.34C141.78 11.76 141.4 12.34 141.14 13.07C140.89 13.79 140.77 14.62 140.77 15.55C140.77 16.48 140.89 17.31 141.14 18.04C141.4 18.77 141.78 19.34 142.28 19.76C142.79 20.18 143.41 20.39 144.15 20.39Z" fill="#FFFFFF" fill-opacity="1.000000" fill-rule="nonzero"/>
					<path id="Vector" d="M46.58 30.46C46.53 30.26 46.44 30.09 46.34 29.94C46.24 29.79 46.11 29.65 45.97 29.55C45.83 29.44 45.66 29.36 45.48 29.3C45.3 29.24 45.09 29.22 44.88 29.22C44.49 29.22 44.14 29.31 43.83 29.51C43.53 29.71 43.29 30 43.11 30.38C42.94 30.76 42.85 31.22 42.85 31.76C42.85 32.31 42.94 32.78 43.11 33.16C43.28 33.54 43.52 33.83 43.83 34.03C44.14 34.22 44.5 34.32 44.91 34.32C45.27 34.32 45.59 34.25 45.86 34.11C46.14 33.97 46.35 33.77 46.49 33.51C46.64 33.24 46.71 32.93 46.71 32.58L47.01 32.63L45.04 32.63L45.04 31.6L47.99 31.6L47.99 32.47C47.99 33.09 47.85 33.63 47.59 34.09C47.33 34.54 46.96 34.89 46.5 35.14C46.03 35.38 45.5 35.5 44.9 35.5C44.23 35.5 43.64 35.35 43.13 35.05C42.63 34.75 42.24 34.32 41.95 33.76C41.67 33.21 41.53 32.54 41.53 31.78C41.53 31.19 41.61 30.66 41.78 30.2C41.94 29.74 42.18 29.35 42.48 29.03C42.78 28.7 43.13 28.46 43.54 28.29C43.94 28.12 44.38 28.03 44.86 28.03C45.26 28.03 45.64 28.09 45.99 28.21C46.33 28.33 46.64 28.49 46.91 28.71C47.18 28.92 47.41 29.18 47.58 29.48C47.76 29.77 47.87 30.1 47.93 30.46L46.58 30.46ZM49.96 35.41L49.96 28.13L52.69 28.13C53.25 28.13 53.72 28.23 54.09 28.42C54.48 28.62 54.76 28.89 54.96 29.24C55.16 29.59 55.25 29.99 55.25 30.46C55.25 30.92 55.15 31.33 54.95 31.67C54.76 32.01 54.47 32.28 54.08 32.47C53.7 32.65 53.23 32.74 52.67 32.74L50.73 32.74L50.73 31.65L52.49 31.65C52.82 31.65 53.09 31.6 53.3 31.51C53.5 31.42 53.66 31.29 53.76 31.11C53.86 30.93 53.91 30.72 53.91 30.46C53.91 30.2 53.86 29.98 53.76 29.8C53.66 29.61 53.5 29.47 53.29 29.38C53.08 29.28 52.82 29.23 52.49 29.23L51.28 29.23L51.28 35.41L49.96 35.41ZM53.72 32.11L55.52 35.41L54.05 35.41L52.28 32.11L53.72 32.11ZM63.66 31.77C63.66 32.55 63.52 33.22 63.22 33.78C62.93 34.34 62.53 34.77 62.03 35.06C61.53 35.36 60.96 35.5 60.32 35.5C59.69 35.5 59.11 35.36 58.61 35.06C58.11 34.76 57.71 34.34 57.42 33.78C57.13 33.22 56.98 32.55 56.98 31.77C56.98 30.99 57.13 30.32 57.42 29.76C57.71 29.2 58.11 28.77 58.61 28.48C59.11 28.18 59.69 28.03 60.32 28.03C60.96 28.03 61.53 28.18 62.03 28.48C62.53 28.77 62.93 29.2 63.22 29.76C63.52 30.32 63.66 30.99 63.66 31.77ZM62.34 31.77C62.34 31.22 62.25 30.75 62.08 30.37C61.91 29.99 61.67 29.7 61.37 29.51C61.07 29.31 60.72 29.22 60.32 29.22C59.93 29.22 59.58 29.31 59.27 29.51C58.97 29.7 58.73 29.99 58.56 30.37C58.39 30.75 58.31 31.22 58.31 31.77C58.31 32.32 58.39 32.79 58.56 33.17C58.73 33.55 58.97 33.83 59.27 34.03C59.58 34.23 59.93 34.32 60.32 34.32C60.72 34.32 61.07 34.23 61.37 34.03C61.67 33.83 61.91 33.55 62.08 33.17C62.25 32.79 62.34 32.32 62.34 31.77ZM66.95 35.41L64.9 28.13L66.32 28.13L67.63 33.48L67.7 33.48L69.1 28.13L70.39 28.13L71.79 33.48L71.85 33.48L73.16 28.13L74.58 28.13L72.53 35.41L71.23 35.41L69.77 30.3L69.71 30.3L68.25 35.41L66.95 35.41ZM78.88 28.13L80.36 28.13L82.14 31.35L82.21 31.35L83.99 28.13L85.48 28.13L82.83 32.69L82.83 35.41L81.52 35.41L81.52 32.69L78.88 28.13ZM93.2 31.77C93.2 32.55 93.06 33.22 92.76 33.78C92.47 34.34 92.07 34.77 91.57 35.06C91.07 35.36 90.5 35.5 89.86 35.5C89.22 35.5 88.65 35.36 88.15 35.06C87.65 34.76 87.25 34.34 86.96 33.78C86.66 33.22 86.52 32.55 86.52 31.77C86.52 30.99 86.66 30.32 86.96 29.76C87.25 29.2 87.65 28.77 88.15 28.48C88.65 28.18 89.22 28.03 89.86 28.03C90.5 28.03 91.07 28.18 91.57 28.48C92.07 28.77 92.47 29.2 92.76 29.76C93.06 30.32 93.2 30.99 93.2 31.77ZM91.88 31.77C91.88 31.22 91.79 30.75 91.62 30.37C91.45 29.99 91.21 29.7 90.91 29.51C90.61 29.31 90.26 29.22 89.86 29.22C89.47 29.22 89.12 29.31 88.81 29.51C88.51 29.7 88.27 29.99 88.1 30.37C87.93 30.75 87.84 31.22 87.84 31.77C87.84 32.32 87.93 32.79 88.1 33.17C88.27 33.55 88.51 33.83 88.81 34.03C89.12 34.23 89.47 34.32 89.86 34.32C90.26 34.32 90.61 34.23 90.91 34.03C91.21 33.83 91.45 33.55 91.62 33.17C91.79 32.79 91.88 32.32 91.88 31.77ZM99.73 28.13L101.05 28.13L101.05 32.88C101.05 33.4 100.93 33.86 100.68 34.26C100.44 34.65 100.09 34.96 99.65 35.18C99.21 35.41 98.69 35.52 98.1 35.52C97.5 35.52 96.99 35.41 96.54 35.18C96.1 34.96 95.76 34.65 95.51 34.26C95.27 33.86 95.15 33.4 95.15 32.88L95.15 28.13L96.47 28.13L96.47 32.77C96.47 33.08 96.53 33.35 96.66 33.58C96.8 33.82 96.99 34.01 97.23 34.14C97.48 34.27 97.76 34.34 98.1 34.34C98.43 34.34 98.72 34.27 98.97 34.14C99.21 34.01 99.4 33.82 99.53 33.58C99.67 33.35 99.73 33.08 99.73 32.77L99.73 28.13ZM103.18 35.41L103.18 28.13L105.91 28.13C106.47 28.13 106.94 28.23 107.32 28.42C107.7 28.62 107.99 28.89 108.18 29.24C108.37 29.59 108.47 29.99 108.47 30.46C108.47 30.92 108.37 31.33 108.18 31.67C107.98 32.01 107.69 32.28 107.3 32.47C106.92 32.65 106.45 32.74 105.89 32.74L103.95 32.74L103.95 31.65L105.71 31.65C106.04 31.65 106.31 31.6 106.52 31.51C106.73 31.42 106.88 31.29 106.98 31.11C107.08 30.93 107.13 30.72 107.13 30.46C107.13 30.2 107.08 29.98 106.98 29.8C106.88 29.61 106.72 29.47 106.51 29.38C106.3 29.28 106.04 29.23 105.71 29.23L104.5 29.23L104.5 35.41L103.18 35.41ZM106.94 32.11L108.74 35.41L107.27 35.41L105.5 32.11L106.94 32.11ZM117.52 30.13C117.49 29.82 117.35 29.58 117.1 29.41C116.86 29.23 116.54 29.15 116.15 29.15C115.87 29.15 115.64 29.19 115.44 29.27C115.25 29.36 115.1 29.47 114.99 29.61C114.89 29.75 114.83 29.91 114.83 30.1C114.83 30.25 114.86 30.38 114.93 30.49C115.01 30.6 115.1 30.7 115.22 30.77C115.34 30.85 115.48 30.91 115.62 30.97C115.77 31.02 115.92 31.06 116.07 31.1L116.75 31.27C117.02 31.33 117.29 31.42 117.54 31.53C117.8 31.64 118.02 31.77 118.23 31.94C118.43 32.1 118.59 32.31 118.71 32.54C118.83 32.77 118.89 33.05 118.89 33.36C118.89 33.79 118.78 34.16 118.56 34.49C118.34 34.81 118.03 35.06 117.61 35.25C117.21 35.43 116.71 35.52 116.13 35.52C115.56 35.52 115.07 35.43 114.65 35.25C114.24 35.08 113.92 34.82 113.68 34.49C113.45 34.15 113.32 33.74 113.3 33.26L114.6 33.26C114.62 33.51 114.7 33.72 114.84 33.89C114.97 34.06 115.15 34.18 115.37 34.27C115.59 34.35 115.84 34.39 116.12 34.39C116.4 34.39 116.65 34.35 116.87 34.26C117.09 34.17 117.26 34.05 117.38 33.9C117.5 33.74 117.57 33.56 117.57 33.35C117.57 33.16 117.51 33.01 117.4 32.88C117.29 32.76 117.14 32.65 116.94 32.57C116.75 32.49 116.52 32.41 116.26 32.34L115.43 32.13C114.84 31.98 114.36 31.74 114.01 31.43C113.67 31.12 113.5 30.7 113.5 30.18C113.5 29.75 113.61 29.37 113.84 29.05C114.08 28.73 114.4 28.48 114.8 28.3C115.2 28.12 115.66 28.03 116.17 28.03C116.68 28.03 117.13 28.12 117.52 28.3C117.91 28.48 118.22 28.73 118.44 29.05C118.67 29.36 118.78 29.72 118.79 30.13L117.52 30.13ZM120.76 35.41L120.76 28.13L122.08 28.13L122.08 31.47L122.17 31.47L125.01 28.13L126.61 28.13L123.8 31.4L126.64 35.41L125.05 35.41L122.88 32.29L122.08 33.24L122.08 35.41L120.76 35.41ZM129.55 28.13L129.55 35.41L128.23 35.41L128.23 28.13L129.55 28.13ZM131.67 35.41L131.67 28.13L132.99 28.13L132.99 34.3L136.19 34.3L136.19 35.41L131.67 35.41ZM138.04 35.41L138.04 28.13L139.35 28.13L139.35 34.3L142.56 34.3L142.56 35.41L138.04 35.41ZM148.35 30.13C148.32 29.82 148.18 29.58 147.93 29.41C147.69 29.23 147.37 29.15 146.98 29.15C146.71 29.15 146.47 29.19 146.28 29.27C146.08 29.36 145.93 29.47 145.83 29.61C145.72 29.75 145.67 29.91 145.67 30.1C145.67 30.25 145.7 30.38 145.77 30.49C145.84 30.6 145.93 30.7 146.06 30.77C146.17 30.85 146.31 30.91 146.46 30.97C146.6 31.02 146.75 31.06 146.9 31.1L147.58 31.27C147.86 31.33 148.12 31.42 148.37 31.53C148.63 31.64 148.86 31.77 149.06 31.94C149.26 32.1 149.42 32.31 149.54 32.54C149.66 32.77 149.72 33.05 149.72 33.36C149.72 33.79 149.61 34.16 149.39 34.49C149.17 34.81 148.86 35.06 148.45 35.25C148.04 35.43 147.54 35.52 146.96 35.52C146.39 35.52 145.9 35.43 145.49 35.25C145.07 35.08 144.75 34.82 144.51 34.49C144.28 34.15 144.16 33.74 144.14 33.26L145.43 33.26C145.45 33.51 145.53 33.72 145.67 33.89C145.81 34.06 145.99 34.18 146.2 34.27C146.43 34.35 146.67 34.39 146.95 34.39C147.24 34.39 147.49 34.35 147.7 34.26C147.92 34.17 148.09 34.05 148.21 33.9C148.34 33.74 148.4 33.56 148.4 33.35C148.4 33.16 148.35 33.01 148.24 32.88C148.13 32.76 147.97 32.65 147.78 32.57C147.58 32.49 147.36 32.41 147.1 32.34L146.27 32.13C145.67 31.98 145.2 31.74 144.85 31.43C144.5 31.12 144.33 30.7 144.33 30.18C144.33 29.75 144.45 29.37 144.68 29.05C144.91 28.73 145.23 28.48 145.63 28.3C146.04 28.12 146.49 28.03 147 28.03C147.52 28.03 147.97 28.12 148.36 28.3C148.75 28.48 149.05 28.73 149.28 29.05C149.5 29.36 149.61 29.72 149.62 30.13L148.35 30.13Z" fill="#FFFFFF" fill-opacity="1.000000" fill-rule="nonzero"/>
					<path id="Vector" d="M0 18.41C0 8.74 7.83 0.91 17.5 0.91C27.16 0.91 35 8.74 35 18.41C35 28.07 27.16 35.91 17.5 35.91C7.83 35.91 0 28.07 0 18.41Z" fill="#6059F7" fill-opacity="1.000000" fill-rule="nonzero"/>
					<mask id="mask6512_2486" mask-type="alpha" maskUnits="userSpaceOnUse" x="0.000000" y="0.910156" width="35.000000" height="35.000000">
						<path id="Vector" d="M0 18.41C0 8.74 7.83 0.91 17.5 0.91C27.16 0.91 35 8.74 35 18.41C35 28.07 27.16 35.91 17.5 35.91C7.83 35.91 0 28.07 0 18.41Z" fill="#E21A23" fill-opacity="1.000000" fill-rule="nonzero"/>
					</mask>
					<g mask="url(#mask6512_2486)">
						<path id="Vector" d="M13.41 20.22C15.16 20.81 17.06 19.86 17.66 18.08C18.27 16.31 17.34 14.39 15.6 13.8C13.86 13.2 11.95 14.16 11.35 15.93C10.74 17.71 11.67 19.63 13.41 20.22Z" fill="#FFFFFF" fill-opacity="1.000000" fill-rule="nonzero"/>
						<path id="Vector" d="M17.25 11.17L16.93 10.11L17.36 11.13L17.25 11.17Z" fill="#FFFFFF" fill-opacity="1.000000" fill-rule="nonzero"/>
						<path id="Vector" d="M17.49 11.52L17.46 11.25L17.31 11.03L17.2 11.23L17.22 11.48L17.24 11.72L17.39 11.86L17.51 11.74L17.49 11.52ZM17.31 11.36C17.31 11.34 17.3 11.32 17.31 11.29C17.31 11.27 17.32 11.25 17.33 11.23C17.36 11.31 17.34 11.41 17.31 11.36ZM17.27 11.65C17.26 11.63 17.26 11.6 17.27 11.58C17.27 11.56 17.28 11.53 17.29 11.51C17.32 11.59 17.3 11.7 17.27 11.65ZM17.4 11.53C17.39 11.51 17.39 11.48 17.39 11.46C17.4 11.43 17.41 11.41 17.42 11.39C17.44 11.46 17.42 11.57 17.4 11.53ZM17.39 11.72C17.38 11.69 17.38 11.67 17.38 11.65C17.39 11.62 17.4 11.6 17.41 11.58C17.44 11.66 17.41 11.77 17.39 11.72Z" fill="#FFFFFF" fill-opacity="1.000000" fill-rule="nonzero"/>
						<path id="Vector" d="M17.37 10.01C17.37 10.01 15.2 9.97 12.34 8.46C12.34 8.46 9.98 12.62 8.05 13.83C8.05 13.83 9.49 13.35 10.54 13.35L10.57 13.31L10.59 13.29C10.6 13.27 10.62 13.24 10.65 13.2C10.71 13.13 10.8 13.02 10.91 12.91C10.97 12.85 11.03 12.79 11.09 12.73C11.16 12.67 11.23 12.6 11.31 12.53C11.38 12.47 11.46 12.4 11.54 12.34C11.63 12.28 11.72 12.22 11.8 12.15C11.89 12.09 11.98 12.04 12.07 11.98L12.33 11.83L12.58 11.7C12.66 11.66 12.75 11.63 12.82 11.59C12.89 11.56 12.95 11.53 13.01 11.51L13.17 11.45L13.3 11.4L13.17 11.46L13.02 11.53C12.96 11.55 12.9 11.59 12.83 11.62C12.76 11.66 12.68 11.69 12.6 11.74L12.36 11.88L12.11 12.04C12.03 12.1 11.94 12.16 11.86 12.23C11.78 12.29 11.7 12.35 11.62 12.42C11.54 12.49 11.47 12.56 11.4 12.63C11.33 12.7 11.26 12.76 11.2 12.83C11.14 12.89 11.08 12.96 11.03 13.01C10.93 13.13 10.85 13.23 10.8 13.31C10.78 13.35 10.76 13.37 10.75 13.39L10.73 13.42L10.7 13.47C10.82 13.59 10.9 13.73 10.94 13.89C10.98 14.04 10.98 14.21 10.93 14.37C10.93 14.37 13.1 12.3 16.01 12.68C16.01 12.68 15.95 11.01 17.37 10.01Z" fill="#FFFFFF" fill-opacity="1.000000" fill-rule="nonzero"/>
						<path id="Vector" d="M8.63 21.2C8.68 21.29 9.19 21.32 9.28 21.34C9.85 21.44 10.43 21.52 11.01 21.56C12.68 21.67 14.41 21.55 16 20.95C17.38 20.43 18.41 19.81 19.6 18.97C21.08 17.91 22.54 16.31 23.94 15.25C22.23 19.61 19.93 23.71 17.1 27.42C14.51 30.82 11.42 33.87 7.8 36.12C6.26 37.08 4.64 37.87 2.95 38.49C2.95 38.49 8.68 34.81 12.69 28.54C12.69 28.54 5.64 34.96 2.67 35.28C2.67 35.28 6.98 33.12 8.64 26.91C8.64 26.91 15.19 25.91 17.25 22.73C17.25 22.73 14.7 24.4 9.85 23.42L8.63 21.2Z" fill="#FFFFFF" fill-opacity="1.000000" fill-rule="nonzero"/>
						<path id="Vector" d="M18.87 17.48L19.23 15.91L27.35 10.11L26.16 9.81L28.64 9.21L27.57 11.6L27.49 10.36L20.41 17.43L18.87 17.48Z" fill="#FFFFFF" fill-opacity="1.000000" fill-rule="nonzero"/>
					</g>
				</g>
			</g>
		</g>
	</g>
</svg>
