<svg width="157.000000" height="52.000000" viewBox="0 0 157 52" fill="none" xmlns="http://www.w3.org/2000/svg" xmlns:xlink="http://www.w3.org/1999/xlink">
	<desc>
			Created with Pixso.
	</desc>
	<defs>
		<clipPath id="clip6512_2525">
			<rect id="google-play.svg" width="157.000000" height="52.000000" fill="white" fill-opacity="0"/>
		</clipPath>
		<clipPath id="clip6512_2524">
			<rect id="google-play.svg fill" width="157.000000" height="52.000000" fill="white" fill-opacity="0"/>
		</clipPath>
		<clipPath id="clip6512_2523">
			<rect id="Link → google-play.svg" rx="4.000000" width="157.000000" height="52.000000" fill="white" fill-opacity="0"/>
		</clipPath>
	</defs>
	<g clip-path="url(#clip6512_2523)">
		<g clip-path="url(#clip6512_2524)">
			<g clip-path="url(#clip6512_2525)">
				<path id="Vector" d="M0 0L157 0L157 52L0 52L0 0Z" fill="#1C1B3C" fill-opacity="1.000000" fill-rule="evenodd"/>
				<path id="Vector" d="M14.59 35.75L14.59 20.24C14.59 19.7 14.92 19.23 15.39 19.01L24.74 27.99L15.39 36.98C14.92 36.75 14.59 36.29 14.59 35.75ZM27.7 30.84L17.49 36.51L25.55 28.77L27.7 30.84ZM30.88 26.91C31.2 27.16 31.44 27.54 31.44 27.99C31.44 28.45 31.23 28.82 30.9 29.07L28.73 30.27L26.35 27.99L28.73 25.71L30.88 26.91ZM17.49 19.48L27.7 25.15L25.55 27.22L17.49 19.48Z" fill="#FFFFFF" fill-opacity="1.000000" fill-rule="nonzero"/>
				<path id="Vector" d="M51.98 22.15C51.3 22.15 50.66 22.02 50.07 21.77C49.48 21.51 48.96 21.15 48.51 20.69C48.07 20.24 47.73 19.7 47.48 19.1C47.22 18.49 47.1 17.84 47.1 17.14C47.1 16.44 47.22 15.79 47.47 15.19C47.73 14.58 48.08 14.05 48.52 13.6C48.97 13.14 49.5 12.78 50.09 12.53C50.7 12.28 51.36 12.15 52.07 12.15C52.84 12.15 53.55 12.3 54.21 12.6C54.86 12.9 55.41 13.33 55.85 13.89L54.94 14.8C54.63 14.35 54.22 14.01 53.72 13.78C53.21 13.53 52.66 13.41 52.07 13.41C51.36 13.41 50.73 13.57 50.18 13.89C49.63 14.21 49.21 14.64 48.9 15.21C48.6 15.77 48.45 16.41 48.45 17.14C48.45 17.87 48.61 18.52 48.92 19.08C49.23 19.64 49.64 20.08 50.16 20.4C50.69 20.72 51.28 20.87 51.96 20.87C52.64 20.87 53.23 20.74 53.72 20.48C54.22 20.22 54.61 19.84 54.88 19.33C55.15 18.82 55.29 18.19 55.29 17.46L56.08 18.03L51.89 18.03L51.88 16.83L56.65 16.83L56.65 17.02C56.65 18.15 56.44 19.1 56.04 19.87C55.65 20.62 55.1 21.19 54.39 21.57C53.69 21.96 52.89 22.15 51.98 22.15ZM61.41 22.15C60.75 22.15 60.15 22 59.62 21.7C59.09 21.39 58.67 20.98 58.36 20.45C58.05 19.93 57.9 19.34 57.9 18.67C57.9 18.02 58.05 17.43 58.34 16.91C58.65 16.39 59.06 15.98 59.58 15.68C60.1 15.37 60.68 15.22 61.33 15.22C61.94 15.22 62.48 15.35 62.95 15.64C63.43 15.91 63.8 16.3 64.06 16.8C64.33 17.29 64.46 17.85 64.46 18.48C64.46 18.57 64.46 18.67 64.45 18.78C64.44 18.89 64.42 19.01 64.39 19.15L58.78 19.15L58.78 18.1L63.72 18.1L63.26 18.5C63.26 18.06 63.18 17.68 63.02 17.37C62.86 17.05 62.64 16.81 62.35 16.64C62.06 16.47 61.71 16.38 61.3 16.38C60.87 16.38 60.49 16.47 60.16 16.66C59.84 16.84 59.59 17.11 59.41 17.44C59.23 17.78 59.14 18.17 59.14 18.63C59.14 19.1 59.24 19.51 59.42 19.86C59.61 20.21 59.88 20.48 60.22 20.68C60.57 20.86 60.96 20.96 61.41 20.96C61.79 20.96 62.13 20.89 62.43 20.76C62.75 20.63 63.02 20.43 63.25 20.17L64.06 21C63.74 21.37 63.35 21.65 62.88 21.85C62.42 22.05 61.93 22.15 61.41 22.15ZM66.81 22L66.81 12.57L68.07 12.57L68.07 22L66.81 22ZM65.17 16.5L65.17 15.35L69.7 15.35L69.71 16.5L65.17 16.5ZM74.36 22L74.35 12.29L75.67 12.29L75.67 22L74.36 22ZM78.9 22L78.9 12.56L80.16 12.56L80.16 22L78.9 22ZM77.26 16.5L77.26 15.35L81.8 15.35L81.8 16.5L77.26 16.5ZM90.88 22.14C90.19 22.14 89.54 22.01 88.94 21.76C88.35 21.5 87.83 21.14 87.38 20.68C86.93 20.22 86.58 19.68 86.33 19.07C86.08 18.47 85.96 17.82 85.96 17.13C85.96 16.43 86.08 15.78 86.33 15.18C86.58 14.57 86.92 14.04 87.36 13.58C87.81 13.13 88.33 12.77 88.91 12.52C89.51 12.27 90.16 12.14 90.85 12.14C91.54 12.14 92.18 12.27 92.76 12.52C93.36 12.77 93.88 13.13 94.33 13.58C94.78 14.04 95.13 14.57 95.38 15.18C95.64 15.78 95.76 16.44 95.76 17.14C95.76 17.83 95.64 18.48 95.38 19.08C95.13 19.69 94.78 20.22 94.33 20.68C93.9 21.14 93.38 21.5 92.78 21.76C92.19 22.01 91.56 22.14 90.88 22.14ZM90.85 20.88C91.55 20.88 92.16 20.72 92.68 20.4C93.21 20.07 93.63 19.63 93.94 19.07C94.25 18.5 94.4 17.85 94.4 17.12C94.4 16.58 94.32 16.09 94.14 15.64C93.96 15.18 93.71 14.79 93.4 14.45C93.08 14.12 92.7 13.86 92.27 13.68C91.84 13.49 91.37 13.4 90.85 13.4C90.16 13.4 89.54 13.56 89.01 13.88C88.49 14.2 88.08 14.63 87.77 15.19C87.47 15.75 87.32 16.4 87.32 17.13C87.32 17.67 87.4 18.17 87.57 18.64C87.75 19.1 87.99 19.49 88.3 19.83C88.62 20.15 88.99 20.41 89.42 20.6C89.86 20.78 90.33 20.88 90.85 20.88ZM102.19 21.99L102.19 18.12C102.19 17.61 102.03 17.2 101.71 16.87C101.39 16.54 100.98 16.38 100.48 16.38C100.14 16.38 99.84 16.46 99.58 16.6C99.32 16.75 99.12 16.96 98.97 17.22C98.82 17.48 98.74 17.78 98.74 18.12L98.23 17.82C98.23 17.32 98.34 16.87 98.56 16.48C98.78 16.09 99.1 15.78 99.5 15.56C99.9 15.32 100.35 15.21 100.86 15.21C101.36 15.2 101.8 15.33 102.19 15.58C102.58 15.83 102.89 16.17 103.11 16.58C103.34 16.98 103.45 17.41 103.45 17.86L103.45 21.99L102.19 21.99ZM97.48 22L97.48 15.35L98.74 15.35L98.74 22L97.48 22Z" fill="#B2BBCC" fill-opacity="1.000000" fill-rule="nonzero"/>
				<path id="Vector" d="M52.47 40.16C51.7 40.16 50.97 40.01 50.29 39.71C49.61 39.41 49.01 39 48.5 38.48C47.99 37.94 47.58 37.33 47.28 36.64C47 35.93 46.85 35.18 46.85 34.38C46.85 33.58 47 32.83 47.28 32.14C47.58 31.45 47.99 30.84 48.5 30.31C49.02 29.78 49.63 29.37 50.32 29.08C51.03 28.78 51.78 28.64 52.59 28.64C53.48 28.64 54.3 28.81 55.06 29.15C55.82 29.49 56.45 29.97 56.96 30.6L55.71 31.85C55.38 31.38 54.94 31.02 54.39 30.78C53.83 30.52 53.24 30.39 52.59 30.39C51.83 30.39 51.15 30.57 50.56 30.91C49.99 31.24 49.54 31.7 49.22 32.3C48.9 32.9 48.74 33.59 48.74 34.38C48.74 35.17 48.9 35.87 49.22 36.48C49.55 37.07 49.99 37.54 50.55 37.88C51.1 38.22 51.73 38.39 52.43 38.39C53.18 38.39 53.82 38.26 54.35 38C54.9 37.72 55.32 37.31 55.6 36.78C55.89 36.23 56.03 35.57 56.03 34.78L57.19 35.61L52.4 35.61L52.4 33.93L57.94 33.93L57.94 34.19C57.94 35.52 57.7 36.63 57.22 37.52C56.75 38.4 56.1 39.06 55.28 39.5C54.46 39.94 53.52 40.16 52.47 40.16ZM63.21 40.16C62.46 40.16 61.79 39.98 61.18 39.63C60.57 39.26 60.08 38.78 59.72 38.17C59.37 37.56 59.19 36.89 59.19 36.14C59.19 35.39 59.37 34.72 59.72 34.12C60.08 33.53 60.57 33.05 61.18 32.7C61.79 32.34 62.46 32.16 63.21 32.16C63.97 32.16 64.65 32.33 65.26 32.68C65.87 33.04 66.35 33.52 66.7 34.12C67.06 34.72 67.24 35.39 67.24 36.14C67.24 36.89 67.06 37.56 66.7 38.17C66.35 38.78 65.87 39.26 65.26 39.63C64.65 39.98 63.97 40.16 63.21 40.16ZM63.21 38.46C63.65 38.46 64.03 38.36 64.36 38.17C64.7 37.97 64.96 37.69 65.15 37.34C65.34 36.99 65.43 36.59 65.43 36.14C65.43 35.69 65.34 35.3 65.15 34.96C64.95 34.61 64.69 34.35 64.36 34.16C64.03 33.95 63.65 33.85 63.21 33.85C62.78 33.85 62.4 33.95 62.06 34.16C61.73 34.35 61.47 34.61 61.27 34.96C61.09 35.3 61 35.69 61 36.14C61 36.59 61.09 36.99 61.27 37.34C61.47 37.69 61.73 37.97 62.06 38.17C62.4 38.36 62.78 38.46 63.21 38.46ZM72.39 40.16C71.64 40.16 70.96 39.98 70.35 39.63C69.75 39.26 69.26 38.78 68.9 38.17C68.55 37.56 68.37 36.89 68.37 36.14C68.37 35.39 68.55 34.72 68.9 34.12C69.26 33.53 69.75 33.05 70.35 32.7C70.96 32.34 71.64 32.16 72.39 32.16C73.14 32.16 73.83 32.33 74.43 32.68C75.04 33.04 75.52 33.52 75.87 34.12C76.24 34.72 76.42 35.39 76.42 36.14C76.42 36.89 76.24 37.56 75.87 38.17C75.52 38.78 75.04 39.26 74.43 39.63C73.83 39.98 73.14 40.16 72.39 40.16ZM72.39 38.46C72.82 38.46 73.21 38.36 73.54 38.17C73.88 37.97 74.14 37.69 74.32 37.34C74.51 36.99 74.61 36.59 74.61 36.14C74.61 35.69 74.51 35.3 74.32 34.96C74.13 34.61 73.87 34.35 73.54 34.16C73.21 33.95 72.82 33.85 72.39 33.85C71.96 33.85 71.58 33.95 71.23 34.16C70.9 34.35 70.64 34.61 70.45 34.96C70.27 35.3 70.18 35.69 70.18 36.14C70.18 36.59 70.27 36.99 70.45 37.34C70.64 37.69 70.9 37.97 71.23 38.17C71.58 38.36 71.96 38.46 72.39 38.46ZM81.24 43.35C80.43 43.35 79.72 43.21 79.11 42.91C78.5 42.62 78.01 42.21 77.64 41.68L78.79 40.52C79.1 40.91 79.45 41.2 79.85 41.39C80.24 41.58 80.72 41.68 81.27 41.68C81.97 41.68 82.52 41.49 82.92 41.13C83.33 40.78 83.53 40.29 83.53 39.68L83.53 37.79L83.83 36.09L83.53 34.38L83.53 32.31L85.29 32.31L85.29 39.68C85.29 40.41 85.12 41.05 84.78 41.6C84.44 42.15 83.96 42.58 83.35 42.89C82.75 43.2 82.04 43.35 81.24 43.35ZM81.16 39.83C80.48 39.83 79.86 39.67 79.31 39.34C78.76 39 78.33 38.53 78.01 37.95C77.7 37.36 77.55 36.7 77.55 35.98C77.55 35.25 77.7 34.6 78.01 34.03C78.33 33.45 78.76 33 79.31 32.67C79.86 32.33 80.48 32.16 81.16 32.16C81.77 32.16 82.3 32.28 82.76 32.52C83.22 32.77 83.58 33.11 83.83 33.55C84.09 33.97 84.22 34.48 84.22 35.05L84.22 36.94C84.22 37.5 84.08 38.01 83.82 38.44C83.56 38.88 83.2 39.22 82.75 39.47C82.29 39.71 81.76 39.83 81.16 39.83ZM81.51 38.17C81.94 38.17 82.31 38.08 82.63 37.9C82.95 37.72 83.2 37.47 83.37 37.15C83.55 36.82 83.64 36.43 83.64 36C83.64 35.56 83.55 35.18 83.37 34.86C83.2 34.53 82.95 34.27 82.63 34.09C82.31 33.91 81.94 33.82 81.51 33.82C81.09 33.82 80.71 33.91 80.38 34.09C80.06 34.27 79.81 34.53 79.63 34.86C79.44 35.18 79.35 35.56 79.35 36C79.35 36.42 79.44 36.8 79.63 37.13C79.81 37.46 80.06 37.72 80.38 37.9C80.71 38.08 81.09 38.17 81.51 38.17ZM87.41 40L87.41 28.48L89.16 28.48L89.16 40L87.41 40ZM94.85 40.16C94.08 40.16 93.39 39.98 92.77 39.64C92.16 39.29 91.68 38.81 91.32 38.2C90.96 37.6 90.79 36.91 90.79 36.16C90.79 35.4 90.96 34.72 91.32 34.12C91.67 33.52 92.14 33.04 92.74 32.68C93.35 32.33 94.02 32.16 94.75 32.16C95.47 32.16 96.1 32.32 96.64 32.65C97.2 32.98 97.63 33.43 97.94 34.01C98.26 34.59 98.42 35.24 98.42 35.98C98.42 36.11 98.41 36.24 98.39 36.38C98.38 36.51 98.35 36.65 98.32 36.81L92.02 36.81L92.02 35.37L97.41 35.37L96.75 35.95C96.73 35.48 96.64 35.08 96.48 34.76C96.32 34.44 96.09 34.2 95.8 34.03C95.51 33.86 95.15 33.77 94.72 33.77C94.27 33.77 93.89 33.87 93.56 34.06C93.22 34.25 92.97 34.52 92.79 34.87C92.61 35.22 92.51 35.63 92.51 36.11C92.51 36.59 92.61 37.01 92.8 37.37C93 37.73 93.27 38.02 93.62 38.22C93.97 38.41 94.38 38.51 94.83 38.51C95.23 38.51 95.59 38.44 95.92 38.3C96.26 38.16 96.55 37.96 96.79 37.69L97.91 38.83C97.53 39.26 97.08 39.6 96.55 39.82C96.01 40.04 95.45 40.16 94.85 40.16ZM104.86 35.77L104.86 34.17L107.66 34.17C108.04 34.17 108.38 34.1 108.67 33.95C108.96 33.79 109.2 33.57 109.37 33.29C109.54 33 109.62 32.67 109.62 32.28C109.62 31.9 109.54 31.57 109.37 31.29C109.2 31 108.96 30.78 108.67 30.64C108.38 30.48 108.04 30.39 107.66 30.39L104.86 30.39L104.86 28.79L107.75 28.79C108.46 28.79 109.09 28.94 109.64 29.23C110.21 29.52 110.65 29.92 110.97 30.44C111.3 30.97 111.46 31.58 111.46 32.28C111.46 32.99 111.3 33.6 110.97 34.12C110.65 34.65 110.21 35.05 109.64 35.34C109.09 35.63 108.46 35.77 107.75 35.77L104.86 35.77ZM103.59 40L103.59 28.79L105.43 28.79L105.43 40L103.59 40ZM113.17 40L113.17 28.48L114.93 28.48L114.93 40L113.17 40ZM120.26 40.16C119.57 40.16 118.94 39.98 118.38 39.63C117.82 39.27 117.38 38.8 117.05 38.2C116.73 37.6 116.57 36.92 116.57 36.17C116.57 35.41 116.73 34.74 117.05 34.14C117.38 33.53 117.82 33.05 118.38 32.7C118.94 32.34 119.57 32.16 120.26 32.16C120.85 32.16 121.37 32.28 121.82 32.54C122.27 32.78 122.64 33.13 122.9 33.56C123.17 34 123.3 34.5 123.3 35.05L123.3 37.26C123.3 37.81 123.17 38.31 122.9 38.75C122.65 39.18 122.29 39.53 121.83 39.79C121.37 40.03 120.85 40.16 120.26 40.16ZM120.55 38.49C121.2 38.49 121.73 38.27 122.12 37.83C122.53 37.4 122.73 36.84 122.73 36.16C122.73 35.7 122.64 35.29 122.46 34.94C122.27 34.59 122.02 34.31 121.69 34.12C121.37 33.92 120.99 33.82 120.55 33.82C120.13 33.82 119.75 33.92 119.42 34.12C119.1 34.31 118.84 34.59 118.65 34.94C118.47 35.29 118.38 35.7 118.38 36.16C118.38 36.61 118.47 37.02 118.65 37.37C118.84 37.72 119.1 38 119.42 38.2C119.75 38.39 120.13 38.49 120.55 38.49ZM122.62 40L122.62 37.93L122.92 36.06L122.62 34.2L122.62 32.31L124.38 32.31L124.38 40L122.62 40ZM128.97 40.08L125.69 32.31L127.63 32.31L129.87 38.01L129.31 38.01L131.67 32.31L133.63 32.31L130.06 40.08L128.97 40.08ZM126.68 43.2L129.07 38.28L130.06 40.08L128.63 43.2L126.68 43.2Z" fill="#FFFFFF" fill-opacity="1.000000" fill-rule="nonzero"/>
			</g>
		</g>
	</g>
</svg>
