<svg width="648.000000" height="323.000000" viewBox="0 0 648 323" fill="none" xmlns="http://www.w3.org/2000/svg" xmlns:xlink="http://www.w3.org/1999/xlink">
	<desc>
			Created with Pixso.
	</desc>
	<defs>
		<clipPath id="clip6513_478">
			<rect id="Section → SVG" width="648.000000" height="323.000000" transform="translate(-0.316406 -0.280518)" fill="white" fill-opacity="0"/>
		</clipPath>
	</defs>
	<g clip-path="url(#clip6513_478)">
		<path id="Vector" d="M38.98 6.39C46.85 -5.83 96.38 7.05 94.41 25.54C92.43 44.04 58.19 131.87 66.72 141.77C75.25 151.68 119.46 150.36 120.12 148.39C120.78 146.41 130.67 88.29 132.65 79.05C134.62 69.8 182.12 71.78 184.75 88.95C187.39 106.13 170.91 210.45 168.91 239.51C166.91 268.57 171.54 294.3 165.62 300.26C159.67 306.21 110.2 306.87 106.25 296.97C102.3 287.06 117.09 203.21 111.99 198.57C106.91 193.96 21.8 203.18 4.64 186.69C-12.47 170.17 18.53 38.08 38.98 6.39Z" fill="#FFC224" fill-opacity="1.000000" fill-rule="nonzero"/>
		<path id="Vector" d="M487.42 6.36C492.32 -4.09 549.61 -2.99 545.77 19.09C541.93 41.17 512.87 143.01 519.13 147.88C525.4 152.76 565.82 154.1 569.69 152.52C573.56 150.94 583.87 76.15 585.74 64.11C587.61 52.07 645.75 51.6 646.69 66.09C647.64 80.58 625.3 307.69 619.43 318.01C613.56 328.31 559.37 318.62 556.14 309.58C552.9 300.55 571.85 205.97 567.09 203.66C562.32 201.34 471.82 212.53 458.05 194.22C444.29 175.92 478.13 26.15 487.42 6.36Z" fill="#FFC224" fill-opacity="1.000000" fill-rule="nonzero"/>
		<path id="Vector" d="M328.57 17.61C380.63 20.78 436.1 84.98 426.21 175.44C416.32 265.91 362.89 315.43 290.97 311.48C219.04 307.53 197.31 216.38 204.54 145.07C211.78 73.75 252.7 13 328.57 17.61Z" fill="#FFC224" fill-opacity="1.000000" fill-rule="nonzero"/>
		<path id="Vector" d="M301.07 90.01C323.73 97.94 330.76 154.02 307.02 178.81C283.28 203.58 243.7 182.45 241.7 150.76C239.7 119.07 274.68 80.76 301.07 90.01Z" fill="#FFFFFF" fill-opacity="1.000000" fill-rule="nonzero"/>
		<path id="Vector" d="M372.97 121.67C375.21 122.49 377.29 123.86 379.1 125.44C388.21 133.37 391.05 147.15 387.45 158.69C385.92 163.56 383.26 168.25 379.18 171.33C374.18 175.1 367.55 176.15 361.34 175.47C356.79 174.97 352.13 173.52 349 170.17C346.76 167.8 345.5 164.67 344.68 161.53C340.73 146.25 349.47 118.3 369.89 120.94C370.97 121.07 372 121.33 372.97 121.67Z" fill="#FFFFFF" fill-opacity="1.000000" fill-rule="nonzero"/>
		<path id="Vector" d="M357.26 156.47C361.82 156.47 365.52 152.77 365.52 148.2C365.52 143.63 361.82 139.93 357.26 139.93C352.69 139.93 349 143.63 349 148.2C349 152.77 352.69 156.47 357.26 156.47Z" fill="#161439" fill-opacity="1.000000" fill-rule="nonzero"/>
		<path id="Vector" d="M295.39 136.45C299.95 136.45 303.65 132.75 303.65 128.18C303.65 123.61 299.95 119.91 295.39 119.91C290.82 119.91 287.12 123.61 287.12 128.18C287.12 132.75 290.82 136.45 295.39 136.45Z" fill="#161439" fill-opacity="1.000000" fill-rule="nonzero"/>
		<path id="Vector" d="M326.71 232.13C326 232.13 325.26 231.9 324.65 231.45C323.15 230.32 322.84 228.15 323.97 226.65C324.6 225.81 339.68 206.05 355.55 207.42C357.44 207.58 358.81 209.24 358.66 211.14C358.5 213.03 356.84 214.4 354.94 214.25C344.92 213.38 333.1 225.89 329.42 230.79C328.76 231.66 327.73 232.13 326.71 232.13Z" fill="#161439" fill-opacity="1.000000" fill-rule="nonzero"/>
		<path id="Vector" d="M363.05 113.69C355.05 113.69 348.44 111.58 347.94 111.42C346.16 110.85 345.18 108.9 345.76 107.1C346.34 105.31 348.28 104.34 350.08 104.92C350.28 104.97 370.16 111.29 379.92 100.7C381.21 99.31 383.37 99.23 384.76 100.52C386.16 101.81 386.24 103.97 384.94 105.37C378.84 111.93 370.37 113.69 363.05 113.69Z" fill="#161439" fill-opacity="1.000000" fill-rule="nonzero"/>
		<path id="Vector" d="M318.6 84.24C317.28 84.24 316.02 83.47 315.47 82.18C315.39 82 307.47 64.22 294.47 61.32C288.18 59.92 281.44 62.29 274.46 68.43C273.05 69.67 270.89 69.54 269.65 68.11C268.41 66.69 268.55 64.53 269.96 63.29C278.68 55.65 287.44 52.76 295.99 54.68C312.39 58.37 321.39 78.63 321.76 79.47C322.52 81.21 321.73 83.21 320 83.97C319.52 84.13 319.05 84.24 318.6 84.24Z" fill="#161439" fill-opacity="1.000000" fill-rule="nonzero"/>
	</g>
</svg>
