<svg width="62.000000" height="62.000000" viewBox="0 0 62 62" fill="none" xmlns="http://www.w3.org/2000/svg" xmlns:xlink="http://www.w3.org/1999/xlink">
	<desc>
			Created with Pixso.
	</desc>
	<defs/>
	<mask id="mask6512_2199" mask-type="alpha" maskUnits="userSpaceOnUse" x="0.000000" y="-0.370117" width="62.000000" height="62.000000">
		<path id="Vector" d="M0 -0.38L62 -0.38L62 61.62L0 61.62L0 -0.38Z" fill="#000000" fill-opacity="1.000000" fill-rule="evenodd"/>
	</mask>
	<g mask="url(#mask6512_2199)">
		<path id="Vector" d="M24.83 6.76C24.6 6.54 24.29 6.41 23.97 6.41C23.65 6.41 23.34 6.54 23.12 6.76C22.89 6.99 22.76 7.3 22.76 7.62C22.76 7.94 22.89 8.25 23.12 8.47C23.34 8.7 23.65 8.83 23.97 8.83C24.29 8.83 24.6 8.7 24.83 8.47C25.05 8.25 25.18 7.94 25.18 7.62C25.18 7.3 25.05 6.99 24.83 6.76Z" fill="#5751E1" fill-opacity="1.000000" fill-rule="nonzero"/>
		<path id="Vector" d="M19.5 6.41L14.63 6.41C13.96 6.41 13.42 6.95 13.42 7.62C13.42 8.29 13.96 8.83 14.63 8.83L19.5 8.83C20.16 8.83 20.71 8.29 20.71 7.62C20.71 6.95 20.16 6.41 19.5 6.41Z" fill="#5751E1" fill-opacity="1.000000" fill-rule="nonzero"/>
		<path id="Vector" d="M20.47 13.19L14.63 13.19C13.96 13.19 13.42 13.73 13.42 14.4C13.42 15.07 13.96 15.61 14.63 15.61L20.47 15.61C21.14 15.61 21.68 15.07 21.68 14.4C21.68 13.73 21.14 13.19 20.47 13.19Z" fill="#5751E1" fill-opacity="1.000000" fill-rule="nonzero"/>
		<path id="Vector" d="M61.53 24.83C61.53 24.83 61.53 24.83 61.53 24.83L53.54 18.6C53.53 18.6 53.52 18.59 53.52 18.59L53.52 17.3C53.52 16.64 52.98 16.09 52.31 16.09C51.64 16.09 51.1 16.64 51.1 17.3L51.1 33.73C51.1 33.74 51.1 33.75 51.1 33.75L41.08 43.77L39.92 42.72C38.1 41.07 35.9 39.98 33.53 39.52L36.67 36.37C37.14 35.9 37.14 35.13 36.67 34.66L32.6 30.59L50.33 23.04C50.7 22.88 50.97 22.55 51.04 22.15C51.12 21.76 51 21.35 50.71 21.06L44.92 15.28C45.41 14.48 45.67 13.56 45.67 12.59C45.67 11.22 45.14 9.93 44.17 8.95C43.2 7.98 41.9 7.45 40.53 7.45C39.57 7.45 38.65 7.71 37.85 8.2L32.06 2.41C31.77 2.13 31.37 2 30.97 2.08C30.58 2.16 30.25 2.42 30.09 2.79L21.93 21.96L17.53 26.35C16.3 27.59 15.62 29.23 15.62 30.97C15.62 32.72 16.3 34.36 17.53 35.59C18.77 36.83 20.41 37.51 22.16 37.51C23.9 37.51 25.54 36.83 26.78 35.59L27.24 35.13L31.39 39.28C31.25 39.28 31.13 39.27 31 39.27C27.69 39.27 24.52 40.5 22.07 42.72L20.91 43.77L10.89 33.75C10.89 33.75 10.89 33.74 10.89 33.73L10.89 2.05L24.45 2.05C25.12 2.05 25.66 1.5 25.66 0.84C25.66 0.17 25.12 -0.38 24.45 -0.38L9.68 -0.38C9.01 -0.38 8.47 0.17 8.47 0.84L8.47 18.4C8.46 18.4 8.45 18.41 8.44 18.42L0.45 24.84C0.17 25.06 0 25.4 0 25.78L0 55.45C0 58.85 2.76 61.62 6.17 61.62L55.82 61.62C59.23 61.62 62 58.85 62 55.45L62 25.78C62 25.39 61.81 25.05 61.53 24.83ZM53.52 21.66L58.96 25.89L53.52 31.33L53.52 21.66ZM40.53 9.87C41.26 9.87 41.94 10.15 42.46 10.67C42.97 11.18 43.25 11.87 43.25 12.59C43.25 12.89 43.2 13.19 43.11 13.46L39.66 10.01C39.94 9.92 40.23 9.87 40.53 9.87ZM31.61 5.39L36.89 10.67C36.89 10.67 36.89 10.67 36.89 10.67C36.89 10.67 36.89 10.67 36.89 10.67L42.46 16.23L47.73 21.51L45.16 22.61L30.52 7.96L31.61 5.39ZM29.5 10.37L42.76 23.63L30.76 28.75L24.38 22.37L29.5 10.37ZM25.06 33.88C24.29 34.66 23.25 35.09 22.16 35.09C21.06 35.09 20.02 34.66 19.25 33.88C18.47 33.1 18.04 32.07 18.04 30.97C18.04 29.87 18.47 28.84 19.25 28.06L22.95 24.36L28.76 30.18L25.06 33.88ZM28.95 33.42L30.48 31.89L34.1 35.52L32.58 37.04L28.95 33.42ZM8.47 21.5L8.47 31.33L3.02 25.88L8.47 21.5ZM4.52 58.67C4.48 58.7 4.45 58.73 4.42 58.77C3.23 58.14 2.42 56.89 2.42 55.45L2.42 28.7L19.12 45.41L4.52 58.67ZM7.53 59.2L11.53 55.57L20.42 55.57C21.09 55.57 21.63 55.03 21.63 54.36C21.63 53.69 21.09 53.15 20.42 53.15L14.2 53.15L23.7 44.51C27.86 40.74 34.13 40.74 38.29 44.51L54.46 59.2L7.53 59.2ZM59.57 55.45C59.57 56.89 58.76 58.14 57.57 58.77C57.54 58.73 57.51 58.7 57.48 58.67L42.87 45.41L59.57 28.7L59.57 55.45Z" fill="#807AF9" fill-opacity="1.000000" fill-rule="nonzero"/>
		<path id="Vector" d="M53.21 0.03C52.74 -0.45 51.97 -0.45 51.5 0.03L46.61 4.92C46.13 5.39 46.13 6.16 46.61 6.63C46.84 6.87 47.15 6.99 47.46 6.99C47.77 6.99 48.08 6.87 48.32 6.63L53.21 1.74C53.68 1.27 53.68 0.5 53.21 0.03Z" fill="#FFFFFF" fill-opacity="1.000000" fill-rule="nonzero"/>
		<path id="Vector" d="M42.91 -0.38C42.25 -0.38 41.7 0.17 41.7 0.84L41.7 3.27C41.7 3.94 42.25 4.48 42.91 4.48C43.58 4.48 44.12 3.94 44.12 3.27L44.12 0.84C44.12 0.17 43.58 -0.38 42.91 -0.38Z" fill="#FFFFFF" fill-opacity="1.000000" fill-rule="nonzero"/>
		<path id="Vector" d="M52.39 9.01L49.88 9.01C49.21 9.01 48.67 9.55 48.67 10.22C48.67 10.89 49.21 11.43 49.88 11.43L52.39 11.43C53.06 11.43 53.6 10.89 53.6 10.22C53.6 9.55 53.06 9.01 52.39 9.01Z" fill="#FFFFFF" fill-opacity="1.000000" fill-rule="nonzero"/>
		<path id="Vector" d="M26.24 53.5C26.01 53.28 25.7 53.15 25.38 53.15C25.06 53.15 24.75 53.28 24.53 53.5C24.3 53.73 24.17 54.04 24.17 54.36C24.17 54.68 24.3 54.99 24.53 55.22C24.75 55.44 25.07 55.57 25.38 55.57C25.7 55.57 26.01 55.44 26.24 55.22C26.47 54.99 26.59 54.68 26.59 54.36C26.59 54.04 26.47 53.73 26.24 53.5Z" fill="#FFFFFF" fill-opacity="1.000000" fill-rule="nonzero"/>
	</g>
</svg>
