<svg width="77.000000" height="67.000000" viewBox="0 0 77 67" fill="none" xmlns="http://www.w3.org/2000/svg" xmlns:xlink="http://www.w3.org/1999/xlink">
	<desc>
			Created with Pixso.
	</desc>
	<defs/>
	<path id="Vector" d="M76.41 12.81L58.71 -0.14C58.42 -0.35 58.05 -0.43 57.69 -0.34L36.43 5.06C35.78 5.22 35.38 5.88 35.55 6.53C35.62 6.81 35.78 7.05 36.01 7.21L41.64 11.32L40.42 17.49C39.76 20.93 45.29 26.38 52.74 27.83C54.04 28.08 55.37 28.21 56.7 28.21C58.74 28.22 60.77 27.9 62.71 27.27C65.69 26.28 67.68 24.62 68.03 22.85L69.24 16.71L76 15C76.65 14.83 77.04 14.17 76.88 13.52C76.81 13.25 76.65 13.01 76.42 12.84L76.41 12.81ZM65.66 22.39C65.51 23.1 64.19 24.21 61.95 24.96C59.12 25.85 56.11 26.01 53.19 25.43C46.35 24.1 42.53 19.47 42.86 17.95L43.83 12.91L53.71 20.16C53.92 20.31 54.17 20.4 54.43 20.4C54.53 20.4 54.63 20.38 54.73 20.35L66.63 17.35L65.66 22.39ZM54.71 17.86L39.54 6.77L57.74 2.16L72.89 13.25L54.71 17.86Z" fill="#807AF9" fill-opacity="1.000000" fill-rule="nonzero"/>
	<path id="Vector" d="M28.81 28.44C28.43 28.65 28.2 29.05 28.2 29.48L28.2 51.17C28.2 51.6 28.43 52 28.81 52.21C28.99 52.33 29.2 52.39 29.41 52.39C29.61 52.39 29.81 52.35 29.98 52.26L50.72 41.4C51.31 41.09 51.54 40.35 51.23 39.76C51.11 39.54 50.93 39.36 50.72 39.25L30 28.39C29.62 28.2 29.17 28.21 28.81 28.44ZM30.63 31.48L47.53 40.32L30.65 49.17L30.63 31.48Z" fill="#5751E1" fill-opacity="1.000000" fill-rule="nonzero"/>
	<path id="Vector" d="M73.26 59.18L67.01 59.18C67.12 58.84 67.18 58.48 67.18 58.12L67.18 29.99C67.18 29.32 66.63 28.77 65.96 28.77C65.29 28.77 64.75 29.32 64.75 29.99L64.75 58.12C64.74 58.72 64.25 59.19 63.66 59.18L9.89 59.18C9.3 59.19 8.81 58.72 8.8 58.12L8.8 21.31C8.81 20.72 9.3 20.25 9.89 20.26L36.77 20.26C37.44 20.26 37.99 19.71 37.99 19.04C37.99 18.37 37.44 17.83 36.77 17.83L9.89 17.83C7.96 17.82 6.38 19.38 6.37 21.31L6.37 58.12C6.37 58.48 6.42 58.84 6.53 59.18L0.29 59.18C-0.38 59.18 -0.93 59.72 -0.93 60.39L-0.93 60.7C-0.93 63.43 1.22 66.47 4.11 66.47L69.43 66.47C72.32 66.47 74.48 63.43 74.48 60.7L74.48 60.39C74.48 59.72 73.93 59.18 73.26 59.18ZM69.43 64.04L4.11 64.04C3.06 64.04 1.99 62.92 1.63 61.61L71.91 61.61C71.56 62.92 70.49 64.04 69.43 64.04Z" fill="#FFFFFF" fill-opacity="1.000000" fill-rule="nonzero"/>
</svg>
