<svg width="68.000000" height="66.000000" viewBox="0 0 68 66" fill="none" xmlns="http://www.w3.org/2000/svg" xmlns:xlink="http://www.w3.org/1999/xlink">
	<desc>
			Created with Pixso.
	</desc>
	<defs/>
	<path id="Vector" d="M66.86 -0.74L1.13 -0.74C0.5 -0.74 0 -0.23 0 0.39L0 45.72C0 46.35 0.5 46.86 1.13 46.86L21.59 46.86C21.63 47.24 21.68 47.61 21.75 47.98L15.53 55.38C15.13 55.86 15.19 56.58 15.67 56.98C15.81 57.09 15.97 57.17 16.14 57.22L22.98 58.85L25.78 65.31C26.03 65.88 26.7 66.15 27.27 65.9C27.43 65.83 27.58 65.72 27.69 65.59L33.89 58.19C33.93 58.19 33.96 58.19 34 58.19C34.03 58.19 34.06 58.19 34.1 58.19L40.3 65.59C40.7 66.07 41.42 66.13 41.9 65.73C42.03 65.61 42.14 65.47 42.21 65.31L45.01 58.85L51.85 57.22C52.46 57.07 52.84 56.46 52.69 55.85C52.65 55.68 52.57 55.52 52.46 55.38L46.24 47.98C46.31 47.61 46.36 47.24 46.4 46.86L66.86 46.86C67.49 46.86 68 46.35 68 45.72L68 0.39C68 -0.23 67.49 -0.74 66.86 -0.74ZM27.13 62.72L24.83 57.43C24.69 57.1 24.41 56.86 24.06 56.78L18.45 55.44L22.52 50.59C22.54 50.64 22.57 50.68 22.59 50.73C22.74 51.07 22.9 51.4 23.07 51.72C23.15 51.85 23.22 51.98 23.3 52.11C23.46 52.37 23.62 52.63 23.79 52.88C23.91 53.05 24.04 53.22 24.17 53.39C24.33 53.58 24.48 53.77 24.65 53.95C24.81 54.14 25 54.34 25.19 54.53C25.33 54.67 25.47 54.81 25.62 54.94C25.74 55.05 25.85 55.17 25.98 55.28C26.11 55.39 26.23 55.46 26.35 55.55C26.41 55.6 26.45 55.65 26.51 55.69C26.61 55.77 26.72 55.83 26.83 55.91C26.99 56.02 27.15 56.14 27.32 56.25C27.64 56.45 27.97 56.64 28.31 56.81C28.44 56.88 28.57 56.94 28.7 57C29 57.14 29.31 57.27 29.61 57.39C29.7 57.42 29.79 57.46 29.88 57.49C30.31 57.64 30.75 57.77 31.19 57.87L31.2 57.87L27.13 62.72ZM36.12 55.68C35.6 55.79 35.08 55.86 34.55 55.89L34.53 55.89C34.35 55.9 34.17 55.91 33.99 55.91C33.81 55.91 33.63 55.9 33.45 55.89L33.44 55.89C32.91 55.86 32.38 55.79 31.87 55.69L31.77 55.67C31.57 55.62 31.37 55.57 31.17 55.51C31.09 55.49 31 55.47 30.92 55.44C30.78 55.39 30.64 55.34 30.5 55.29C30.36 55.24 30.23 55.19 30.1 55.14C30.01 55.1 29.93 55.07 29.85 55.03C29.66 54.94 29.48 54.86 29.3 54.76L29.21 54.71C28.74 54.46 28.3 54.18 27.87 53.86C27.64 53.68 27.42 53.49 27.21 53.3C26.95 53.07 26.71 52.83 26.48 52.58C26.39 52.48 26.29 52.39 26.21 52.29C25.89 51.92 25.6 51.52 25.34 51.11C25.31 51.05 25.27 50.98 25.23 50.92C24.99 50.52 24.78 50.1 24.59 49.66C24.58 49.63 24.56 49.59 24.55 49.55C24.35 49.06 24.18 48.55 24.06 48.02C24.06 48 24.05 47.99 24.04 47.97C23.88 47.23 23.79 46.48 23.8 45.72C23.79 40.09 28.36 35.52 33.99 35.52C39.62 35.51 44.19 40.08 44.19 45.71C44.2 46.48 44.11 47.24 43.94 47.98C43.94 48 43.92 48.02 43.92 48.04C43.8 48.56 43.64 49.07 43.44 49.56C43.42 49.6 43.4 49.64 43.39 49.68C43.21 50.1 43 50.52 42.75 50.92C42.72 50.99 42.68 51.05 42.64 51.12C42.38 51.53 42.09 51.92 41.78 52.3C41.69 52.4 41.6 52.49 41.51 52.58C41.28 52.84 41.03 53.08 40.77 53.31C40.56 53.5 40.34 53.69 40.11 53.87C39.88 54.04 39.67 54.19 39.44 54.33L39.42 54.34C39.22 54.47 39.01 54.59 38.8 54.71C38.75 54.73 38.71 54.75 38.67 54.77C38.5 54.86 38.33 54.94 38.15 55.02C38.06 55.06 37.97 55.1 37.88 55.14C37.75 55.2 37.62 55.24 37.49 55.29C37.36 55.33 37.2 55.39 37.06 55.44C36.98 55.47 36.9 55.49 36.82 55.51C36.62 55.57 36.42 55.62 36.21 55.67L36.12 55.68ZM49.54 55.44L43.93 56.78C43.58 56.86 43.3 57.1 43.16 57.43L40.86 62.72L36.79 57.87L36.8 57.87C37.25 57.77 37.68 57.65 38.11 57.49C38.2 57.46 38.28 57.43 38.37 57.4C38.68 57.28 39 57.15 39.3 57C39.42 56.94 39.55 56.89 39.67 56.82C40.01 56.65 40.35 56.46 40.68 56.25C40.83 56.15 40.99 56.03 41.14 55.93C41.25 55.85 41.37 55.78 41.48 55.69C41.54 55.65 41.59 55.6 41.65 55.55C41.76 55.46 41.9 55.38 42.01 55.28C42.13 55.18 42.25 55.05 42.37 54.95C42.51 54.81 42.66 54.67 42.81 54.53C42.99 54.35 43.17 54.15 43.35 53.96C43.51 53.77 43.67 53.58 43.82 53.39C43.95 53.22 44.08 53.05 44.2 52.88C44.37 52.63 44.54 52.38 44.69 52.12C44.77 51.99 44.85 51.86 44.92 51.72C45.09 51.4 45.26 51.08 45.4 50.74C45.42 50.68 45.45 50.64 45.47 50.59L49.54 55.44ZM65.73 44.59L46.4 44.59C45.79 37.74 39.73 32.68 32.88 33.29C26.88 33.83 22.12 38.59 21.58 44.59L2.26 44.59L2.26 1.52L65.73 1.52L65.73 44.59Z" fill="#807AF9" fill-opacity="1.000000" fill-rule="nonzero"/>
	<path id="Vector" d="M5.66 3.79C5.04 3.79 4.53 4.3 4.53 4.92L4.53 9.46L6.8 9.46L6.8 6.06L10.19 6.06L10.19 3.79L5.66 3.79Z" fill="#FFFFFF" fill-opacity="1.000000" fill-rule="nonzero"/>
	<path id="Vector" d="M62.33 3.79L57.8 3.79L57.8 6.06L61.2 6.06L61.2 9.46L63.46 9.46L63.46 4.92C63.46 4.3 62.96 3.79 62.33 3.79Z" fill="#FFFFFF" fill-opacity="1.000000" fill-rule="nonzero"/>
	<path id="Vector" d="M61.2 36.66L61.2 40.06L57.8 40.06L57.8 42.32L62.33 42.32C62.96 42.32 63.46 41.82 63.46 41.19L63.46 36.66L61.2 36.66Z" fill="#FFFFFF" fill-opacity="1.000000" fill-rule="nonzero"/>
	<path id="Vector" d="M6.8 40.06L6.8 36.66L4.53 36.66L4.53 41.19C4.53 41.82 5.04 42.32 5.66 42.32L10.19 42.32L10.19 40.06L6.8 40.06Z" fill="#FFFFFF" fill-opacity="1.000000" fill-rule="nonzero"/>
	<path id="Vector" d="M47.59 11.72L20.4 11.72L20.4 13.99L47.59 13.99L47.59 11.72Z" fill="#FFFFFF" fill-opacity="1.000000" fill-rule="nonzero"/>
	<path id="Vector" d="M54.4 18.52L13.59 18.52L13.59 20.79L54.4 20.79L54.4 18.52Z" fill="#FFFFFF" fill-opacity="1.000000" fill-rule="nonzero"/>
	<path id="Vector" d="M34 37.79C29.61 37.79 26.06 41.34 26.06 45.72C26.07 50.1 29.62 53.65 34 53.66C38.38 53.66 41.93 50.11 41.93 45.72C41.93 41.34 38.38 37.79 34 37.79ZM34 51.39C30.87 51.39 28.33 48.85 28.33 45.72C28.33 42.6 30.87 40.06 34 40.06C37.12 40.06 39.66 42.59 39.66 45.72C39.66 48.85 37.12 51.39 34 51.39Z" fill="#5751E1" fill-opacity="1.000000" fill-rule="nonzero"/>
</svg>
