<svg width="74.000000" height="74.000000" viewBox="0 0 74 74" fill="none" xmlns="http://www.w3.org/2000/svg" xmlns:xlink="http://www.w3.org/1999/xlink">
	<desc>
			Created with Pixso.
	</desc>
	<defs/>
	<path id="Vector" d="M17.98 27.68C17.3 27.68 16.75 27.13 16.75 26.45L16.75 21.97C16.75 21.59 16.92 21.22 17.23 20.99C18.49 20.04 19.21 18.61 19.21 17.06L19.21 13.36C19.21 10.64 17 8.42 14.28 8.42C11.55 8.42 9.34 10.64 9.34 13.36L9.34 17.06C9.34 18.61 10.06 20.04 11.32 20.99C11.63 21.22 11.81 21.59 11.81 21.98L11.81 26.45C11.81 27.13 11.25 27.68 10.57 27.68C9.89 27.68 9.34 27.13 9.34 26.45L9.34 22.56C7.76 21.15 6.87 19.18 6.87 17.06L6.87 13.36C6.87 9.28 10.19 5.95 14.28 5.95C18.36 5.95 21.68 9.28 21.68 13.36L21.68 17.06C21.68 19.18 20.79 21.14 19.21 22.56L19.21 26.45C19.21 27.13 18.66 27.68 17.98 27.68Z" fill="#FFFFFF" fill-opacity="1.000000" fill-rule="nonzero"/>
	<path id="Vector" d="M15.52 24.35C14.95 24.35 14.43 23.94 14.31 23.36C14.17 22.69 14.6 22.04 15.27 21.91C17.56 21.43 19.21 19.4 19.21 17.06C19.21 16.38 19.77 15.83 20.45 15.83C21.13 15.83 21.68 16.38 21.68 17.06C21.68 20.56 19.19 23.62 15.77 24.32C15.68 24.34 15.6 24.35 15.52 24.35Z" fill="#FFFFFF" fill-opacity="1.000000" fill-rule="nonzero"/>
	<path id="Vector" d="M22.6 29.61C22.44 29.61 22.28 29.58 22.12 29.51L17.49 27.53C16.87 27.26 16.58 26.53 16.85 25.9C17.11 25.27 17.84 24.99 18.47 25.26L23.09 27.24C23.72 27.51 24.01 28.24 23.74 28.87C23.54 29.34 23.08 29.61 22.6 29.61Z" fill="#FFFFFF" fill-opacity="1.000000" fill-rule="nonzero"/>
	<path id="Vector" d="M6.87 44.56C6.7 44.56 6.52 44.52 6.36 44.45L1.63 42.3C0.32 41.7 -0.54 40.37 -0.54 38.93L-0.54 35.51C-0.54 32.04 1.51 28.93 4.68 27.58L10.08 25.24C10.71 24.97 11.43 25.25 11.71 25.88C11.98 26.5 11.69 27.23 11.07 27.5L5.66 29.85C3.39 30.82 1.93 33.04 1.93 35.51L1.93 38.93C1.93 39.41 2.22 39.85 2.66 40.05L7.38 42.2C8 42.48 8.27 43.22 7.99 43.83C7.79 44.29 7.34 44.56 6.87 44.56Z" fill="#FFFFFF" fill-opacity="1.000000" fill-rule="nonzero"/>
	<path id="Vector" d="M19.06 15.61C16.6 15.61 14.25 14.76 12.27 13.16C11.74 12.73 11.66 11.96 12.08 11.42C12.51 10.89 13.29 10.81 13.82 11.24C15.4 12.52 17.28 13.2 19.21 13.14C19.09 10.52 16.92 8.42 14.28 8.42C11.55 8.42 9.34 10.64 9.34 13.36L9.34 14.27C9.34 14.96 8.79 15.51 8.1 15.51C7.42 15.51 6.87 14.96 6.87 14.27L6.87 13.36C6.87 9.28 10.19 5.95 14.28 5.95C18.36 5.95 21.68 9.28 21.68 13.36L21.68 14.22C21.68 14.83 21.24 15.35 20.64 15.44C20.07 15.54 19.58 15.61 19.06 15.61Z" fill="#FFFFFF" fill-opacity="1.000000" fill-rule="nonzero"/>
	<path id="Vector" d="M62.42 27.68C61.74 27.68 61.18 27.13 61.18 26.44L61.18 21.97C61.18 21.59 61.36 21.22 61.67 20.99C62.93 20.04 63.65 18.61 63.65 17.06L63.65 13.36C63.65 10.64 61.44 8.42 58.71 8.42C55.99 8.42 53.78 10.64 53.78 13.36L53.78 17.06C53.78 18.61 54.5 20.04 55.76 20.99C56.07 21.22 56.25 21.59 56.25 21.98L56.25 26.45C56.25 27.13 55.69 27.68 55.01 27.68C54.33 27.68 53.78 27.13 53.78 26.45L53.78 22.56C52.2 21.15 51.31 19.18 51.31 17.07L51.31 13.36C51.31 9.28 54.63 5.96 58.71 5.96C62.8 5.96 66.12 9.28 66.12 13.36L66.12 17.07C66.12 19.18 65.23 21.15 63.65 22.56L63.65 26.45C63.65 27.13 63.1 27.68 62.42 27.68Z" fill="#FFFFFF" fill-opacity="1.000000" fill-rule="nonzero"/>
	<path id="Vector" d="M59.96 24.35C59.38 24.35 58.87 23.94 58.75 23.36C58.61 22.69 59.04 22.04 59.71 21.91C61.99 21.43 63.65 19.4 63.65 17.06C63.65 16.38 64.2 15.83 64.89 15.83C65.57 15.83 66.12 16.38 66.12 17.06C66.12 20.56 63.63 23.62 60.21 24.32C60.12 24.34 60.04 24.35 59.96 24.35Z" fill="#FFFFFF" fill-opacity="1.000000" fill-rule="nonzero"/>
	<path id="Vector" d="M50.75 29.46C50.27 29.46 49.81 29.18 49.61 28.71C49.34 28.09 49.63 27.36 50.26 27.09L54.52 25.26C55.15 24.99 55.87 25.27 56.14 25.9C56.41 26.53 56.12 27.26 55.5 27.53L51.23 29.36C51.08 29.43 50.91 29.46 50.75 29.46Z" fill="#FFFFFF" fill-opacity="1.000000" fill-rule="nonzero"/>
	<path id="Vector" d="M66.12 44.56C65.65 44.56 65.2 44.29 65 43.83C64.72 43.22 64.99 42.48 65.61 42.2L70.33 40.05C70.77 39.85 71.06 39.41 71.06 38.93L71.06 35.51C71.06 33.04 69.6 30.82 67.34 29.85L61.92 27.5C61.3 27.23 61.01 26.5 61.28 25.88C61.56 25.25 62.27 24.96 62.91 25.24L68.31 27.58C71.48 28.93 73.53 32.04 73.53 35.51L73.53 38.93C73.53 40.37 72.67 41.7 71.36 42.3L66.63 44.45C66.47 44.52 66.29 44.56 66.12 44.56Z" fill="#FFFFFF" fill-opacity="1.000000" fill-rule="nonzero"/>
	<path id="Vector" d="M39.73 11.92C36.22 11.92 32.57 10.68 30.55 8.87C30.04 8.41 30 7.63 30.46 7.13C30.91 6.62 31.7 6.58 32.2 7.04C34.63 9.22 40.46 10.37 43.81 8.57C44.41 8.25 45.16 8.47 45.48 9.08C45.8 9.68 45.57 10.43 44.97 10.75C43.45 11.56 41.61 11.92 39.73 11.92Z" fill="#FFFFFF" fill-opacity="1.000000" fill-rule="nonzero"/>
	<path id="Vector" d="M36.48 34.34C32.38 34.34 30.25 31.15 29.69 29.46C29.47 28.81 29.83 28.11 30.47 27.9C31.12 27.69 31.81 28.04 32.03 28.68C32.08 28.83 33.17 31.87 36.48 31.87C39.81 31.87 40.98 28.73 41.03 28.6C41.26 27.96 41.98 27.63 42.61 27.85C43.25 28.08 43.58 28.78 43.36 29.42C43.29 29.62 41.58 34.34 36.48 34.34Z" fill="#FFFFFF" fill-opacity="1.000000" fill-rule="nonzero"/>
	<path id="Vector" d="M59.95 44.22C59.27 44.22 58.71 43.67 58.71 42.99L58.71 42.3C58.71 38.64 56.41 35.36 52.97 34.15L42.67 30.5C41.19 29.98 40.2 28.58 40.2 27.02L40.2 23.98C40.2 23.3 40.75 22.74 41.43 22.74C42.11 22.74 42.67 23.3 42.67 23.98L42.67 27.02C42.67 27.53 43 28 43.49 28.17L53.79 31.83C58.21 33.38 61.18 37.59 61.18 42.3L61.18 42.99C61.18 43.67 60.63 44.22 59.95 44.22Z" fill="#FFFFFF" fill-opacity="1.000000" fill-rule="nonzero"/>
	<path id="Vector" d="M13.04 44.22C12.36 44.22 11.81 43.67 11.81 42.99L11.81 42.32C11.81 41.55 11.89 40.78 12.05 40.01C12.84 36.25 15.59 33.12 19.22 31.82L29.49 28.22C29.99 28.05 30.32 27.58 30.32 27.06L30.32 23.98C30.32 23.3 30.88 22.74 31.56 22.74C32.24 22.74 32.79 23.3 32.79 23.98L32.79 27.06C32.79 28.63 31.8 30.03 30.31 30.55L20.04 34.15C17.22 35.16 15.08 37.6 14.46 40.52C14.34 41.12 14.28 41.72 14.28 42.32L14.28 42.99C14.28 43.67 13.72 44.22 13.04 44.22Z" fill="#FFFFFF" fill-opacity="1.000000" fill-rule="nonzero"/>
	<path id="Vector" d="M36.5 26.94C35.81 26.94 35.26 26.39 35.26 25.7C35.26 25.02 35.81 24.47 36.5 24.47C39.06 24.47 43.9 22.15 43.9 13.36L43.9 9.66C43.9 5.57 40.58 2.25 36.5 2.25C32.41 2.25 29.09 5.57 29.09 9.66L29.09 13.36C29.09 17.62 30.23 20.87 32.38 22.78C32.89 23.23 32.94 24.01 32.48 24.52C32.03 25.03 31.25 25.08 30.74 24.63C28.86 22.96 26.62 19.66 26.62 13.36L26.62 9.66C26.62 4.21 31.05 -0.22 36.5 -0.22C41.94 -0.22 46.37 4.21 46.37 9.66L46.37 13.36C46.37 24.1 39.91 26.94 36.5 26.94Z" fill="#FFFFFF" fill-opacity="1.000000" fill-rule="nonzero"/>
	<path id="Vector" d="M55.3 66.44C54.85 66.44 54.41 66.19 54.2 65.75C53.9 65.14 54.15 64.4 54.76 64.1L60.86 61.07C61.21 60.9 61.62 60.9 61.96 61.07L65.95 63.05L65.3 58.65C65.24 58.27 65.37 57.88 65.64 57.61L68.75 54.42L64.36 53.67C63.98 53.61 63.66 53.37 63.47 53.03L61.41 49.08L59.34 53.03C59.16 53.37 58.83 53.61 58.46 53.67L54.07 54.42L57.18 57.61C57.66 58.09 57.65 58.87 57.16 59.35C56.67 59.83 55.89 59.82 55.42 59.33L50.65 54.46C50.33 54.13 50.22 53.65 50.36 53.22C50.51 52.78 50.88 52.46 51.33 52.38L57.44 51.34L60.32 45.85C60.53 45.44 60.96 45.19 61.41 45.19C61.87 45.19 62.29 45.44 62.51 45.85L65.38 51.34L71.5 52.38C71.95 52.46 72.32 52.78 72.46 53.22C72.61 53.65 72.49 54.13 72.17 54.46L67.83 58.89L68.74 65.02C68.8 65.48 68.61 65.93 68.24 66.2C67.87 66.47 67.38 66.52 66.97 66.31L61.41 63.56L55.86 66.31C55.67 66.4 55.49 66.44 55.3 66.44Z" fill="#807AF9" fill-opacity="1.000000" fill-rule="nonzero"/>
	<path id="Vector" d="M29.28 73.16C29.02 73.16 28.77 73.08 28.55 72.92C28.18 72.65 27.99 72.2 28.06 71.74L29.14 64.38L23.93 59.05C23.61 58.73 23.5 58.25 23.64 57.81C23.79 57.37 24.16 57.05 24.61 56.98L31.95 55.73L35.4 49.13C35.83 48.32 37.16 48.32 37.59 49.13L41.04 55.73L48.39 56.98C48.84 57.05 49.21 57.38 49.35 57.81C49.5 58.25 49.38 58.73 49.06 59.05L43.86 64.38L44.94 71.74C45 72.2 44.81 72.65 44.44 72.92C44.07 73.19 43.58 73.23 43.17 73.03L36.5 69.72L29.83 73.03C29.65 73.11 29.47 73.16 29.28 73.16ZM27.34 59.01L31.33 63.09C31.6 63.37 31.73 63.75 31.67 64.13L30.84 69.77L35.95 67.24C36.29 67.06 36.7 67.06 37.04 67.24L42.15 69.77L41.32 64.13C41.26 63.75 41.39 63.36 41.66 63.09L45.65 59.01L40.02 58.06C39.65 57.99 39.32 57.75 39.14 57.41L36.5 52.36L33.85 57.41C33.67 57.75 33.35 57.99 32.97 58.06L27.34 59.01Z" fill="#5751E1" fill-opacity="1.000000" fill-rule="nonzero"/>
	<path id="Vector" d="M17.89 66.44C17.7 66.44 17.52 66.4 17.34 66.31L11.78 63.56L6.23 66.31C5.82 66.51 5.33 66.48 4.95 66.2C4.58 65.93 4.39 65.48 4.46 65.03L5.36 58.89L1.02 54.46C0.7 54.13 0.59 53.66 0.73 53.22C0.88 52.78 1.25 52.46 1.7 52.38L7.82 51.34L10.69 45.85C10.91 45.44 11.33 45.19 11.78 45.19C12.25 45.19 12.66 45.45 12.88 45.85L15.75 51.34L21.86 52.38C22.32 52.46 22.69 52.78 22.83 53.22C22.98 53.65 22.86 54.13 22.54 54.46L17.78 59.33C17.31 59.82 16.52 59.83 16.03 59.35C15.55 58.87 15.54 58.09 16.01 57.61L19.13 54.42L14.74 53.67C14.36 53.61 14.03 53.37 13.85 53.03L11.79 49.08L9.72 53.03C9.54 53.37 9.21 53.61 8.83 53.67L4.44 54.42L7.56 57.61C7.83 57.88 7.95 58.27 7.9 58.65L7.25 63.05L11.24 61.07C11.58 60.9 12 60.9 12.33 61.07L18.44 64.1C19.05 64.4 19.3 65.14 19 65.75C18.78 66.19 18.34 66.44 17.89 66.44Z" fill="#807AF9" fill-opacity="1.000000" fill-rule="nonzero"/>
</svg>
