<svg width="27.000000" height="26.000000" viewBox="0 0 27 26" fill="none" xmlns="http://www.w3.org/2000/svg" xmlns:xlink="http://www.w3.org/1999/xlink">
	<desc>
			Created with Pixso.
	</desc>
	<defs/>
	<path id="Vector" d="M27 13.05C26.49 13.43 26.24 13.8 25.98 13.93C24.72 14.43 23.45 14.93 22.18 15.44C20.29 16.06 19.15 17.32 18.89 19.33C18.64 20.96 18.39 22.6 18.01 24.23C17.88 24.73 17.5 25.49 17.12 25.61C16.36 25.74 16.36 24.86 16.24 24.36C15.73 22.85 15.22 21.22 14.84 19.71C14.21 17.57 12.82 16.44 10.54 16.44C9.65 16.44 8.89 16.31 8.01 16.19C7.5 16.19 7.25 15.94 7 15.69C7.25 15.44 7.37 15.06 7.63 14.93C8.89 14.43 10.29 13.93 11.55 13.55C12.82 13.17 13.7 12.29 13.96 11.04C14.46 9.03 14.84 7.02 15.35 5.13C15.6 4.5 15.35 3.62 16.24 3.62C17.12 3.62 17 4.38 17.12 4.88C17.5 6.64 17.88 8.27 18.39 10.03C19.02 12.29 19.53 12.67 21.93 12.67C23.2 12.67 24.59 12.55 25.86 12.55C25.98 12.55 26.36 12.8 27 13.05Z" fill="#434087" fill-opacity="1.000000" fill-rule="nonzero"/>
	<path id="Vector" d="M10 4.34C9.74 4.53 9.62 4.71 9.49 4.78C8.86 5.03 8.22 5.28 7.59 5.53C6.64 5.84 6.07 6.47 5.94 7.48C5.82 8.29 5.69 9.11 5.5 9.93C5.44 10.18 5.25 10.56 5.06 10.62C4.68 10.68 4.68 10.24 4.62 9.99C4.36 9.24 4.11 8.42 3.92 7.67C3.6 6.6 2.91 6.03 1.77 6.03C1.32 6.03 0.94 5.97 0.5 5.91C0.25 5.91 0.12 5.78 0 5.66C0.12 5.53 0.18 5.34 0.31 5.28C0.94 5.03 1.64 4.78 2.27 4.59C2.91 4.4 3.35 3.96 3.48 3.33C3.73 2.33 3.92 1.32 4.17 0.38C4.3 0.06 4.17 -0.38 4.62 -0.38C5.06 -0.38 5 0 5.06 0.25C5.25 1.13 5.44 1.95 5.69 2.83C6.01 3.96 6.26 4.15 7.46 4.15C8.1 4.15 8.79 4.09 9.42 4.09C9.49 4.09 9.68 4.21 10 4.34Z" fill="#6663A9" fill-opacity="1.000000" fill-rule="nonzero"/>
</svg>
