<svg width="92.000000" height="65.000000" viewBox="0 0 92 65" fill="none" xmlns="http://www.w3.org/2000/svg" xmlns:xlink="http://www.w3.org/1999/xlink">
	<desc>
			Created with Pixso.
	</desc>
	<defs>
		<clipPath id="clip6512_1826">
			<rect id="banner_shape02.svg" width="92.000000" height="65.000000" transform="translate(0.000000 -0.500000)" fill="white" fill-opacity="0"/>
		</clipPath>
	</defs>
	<g clip-path="url(#clip6512_1826)">
		<path id="Vector" d="M77.5 12.23C76.66 7.92 71.68 5.76 73.35 0.38C74.34 1.09 75.03 1.5 75.43 2C80.35 8.06 85.38 14.23 90.2 20.38C90.99 21.39 91.87 23.1 91.56 24.1C90.94 25.99 89.04 25.57 87.45 25.15C82.36 23.89 77.17 22.73 71.99 21.46C73.42 18.58 73.42 18.58 82.22 19.39C70.55 8.04 52.63 9.63 43.97 23.02C45.36 23.84 46.75 24.56 48.14 25.37C52.11 27.82 54.97 31.06 56.32 35.67C57.28 38.99 56.94 42.08 54.31 44.55C51.58 47.02 48.48 46.78 45.3 45.44C38.43 42.66 35.1 36.52 36.59 29.23C36.8 28.34 36.82 27.44 36.93 26.14C27.64 25.32 19.02 27.02 11.75 32.53C0.45 40.99 2.9 53.02 8.8 61C9.49 62.01 10.48 62.82 11.76 64.33C8.67 64 7.09 62.38 5.61 60.76C-0.22 54.49 -1.49 44.07 2.6 36.52C5.26 31.75 9 28.1 13.93 25.76C21.17 22.34 28.8 20.74 36.78 21.73C37.58 21.84 38.38 21.85 39.38 21.97C43.75 16.02 48.82 10.78 56.44 8.77C63.87 6.96 70.53 9.94 77.5 12.23ZM41.62 27.09C38.33 33.95 40.56 40.28 46.74 42.26C48.23 42.78 50.33 42.6 51.64 41.82C53.45 40.74 53.28 38.54 52.5 36.63C50.66 31.6 46.9 28.76 41.62 27.09Z" fill="#FFD53F" fill-opacity="1.000000" fill-rule="nonzero"/>
	</g>
</svg>
