<svg width="243.000000" height="201.000000" viewBox="0 0 243 201" fill="none" xmlns="http://www.w3.org/2000/svg" xmlns:xlink="http://www.w3.org/1999/xlink">
	<desc>
			Created with Pixso.
	</desc>
	<defs>
		<clipPath id="clip6512_2376">
			<rect id="SVG" width="243.000000" height="201.000000" transform="translate(-0.500000 -0.340332)" fill="white" fill-opacity="0"/>
		</clipPath>
	</defs>
	<g clip-path="url(#clip6512_2376)">
		<path id="Vector" d="M32.98 1.99C50.57 -5.25 74.23 10 94.65 9.76C111.55 9.56 124.41 -2.29 141.78 0.7C160.72 3.96 182.27 11.12 195.81 27.17C209.32 43.18 203.57 64.4 211.26 83.03C219.47 102.91 243.87 120.41 242.29 139.71C240.74 158.72 218.73 164.75 203.82 174.23C190.96 182.41 176.57 187.23 161.22 191.27C144.46 195.68 128.08 199.9 109.63 199.02C85.17 197.85 52.46 207.46 36.36 185.31C18.67 160.95 51.3 136.11 44.06 108.74C37.98 85.81 2.54 71.42 0.18 48.65C-2.08 26.93 14.7 9.52 32.98 1.99Z" fill="#FBE67B" fill-opacity="1.000000" fill-rule="evenodd"/>
	</g>
</svg>
