<svg width="153.000000" height="38.000000" viewBox="0 0 153 38" fill="none" xmlns="http://www.w3.org/2000/svg" xmlns:xlink="http://www.w3.org/1999/xlink">
	<desc>
			Created with Pixso.
	</desc>
	<defs>
		<clipPath id="clip6512_31">
			<rect id="logo.svg" width="153.000000" height="38.000000" transform="translate(0.000000 -0.500000)" fill="white" fill-opacity="0"/>
		</clipPath>
		<clipPath id="clip6512_30">
			<rect id="logo.svg fill" width="153.000000" height="38.000000" transform="translate(0.000000 -0.500000)" fill="white" fill-opacity="0"/>
		</clipPath>
	</defs>
	<g clip-path="url(#clip6512_30)">
		<g clip-path="url(#clip6512_31)">
			<mask id="mask6512_53" mask-type="alpha" maskUnits="userSpaceOnUse" x="0.000000" y="-0.500000" width="153.000000" height="38.000000">
				<path id="Vector" d="M0 -0.5L153 -0.5L153 37.5L0 37.5L0 -0.5Z" fill="#000000" fill-opacity="1.000000" fill-rule="evenodd"/>
			</mask>
			<g mask="url(#mask6512_53)">
				<path id="Vector" d="M52.78 8.42C52.7 7.58 52.34 6.93 51.71 6.47C51.08 6 50.23 5.77 49.14 5.77C48.41 5.77 47.79 5.87 47.28 6.08C46.77 6.28 46.39 6.56 46.12 6.92C45.85 7.28 45.72 7.69 45.72 8.15C45.71 8.53 45.79 8.87 45.96 9.15C46.14 9.43 46.39 9.68 46.7 9.89C47.01 10.09 47.37 10.27 47.78 10.42C48.19 10.57 48.63 10.69 49.09 10.79L51 11.25C51.93 11.46 52.79 11.74 53.56 12.08C54.34 12.43 55.01 12.86 55.58 13.36C56.15 13.87 56.59 14.47 56.9 15.15C57.22 15.84 57.39 16.63 57.39 17.51C57.39 18.82 57.05 19.95 56.39 20.91C55.74 21.86 54.8 22.59 53.56 23.12C52.34 23.64 50.86 23.9 49.12 23.9C47.4 23.9 45.91 23.64 44.63 23.11C43.36 22.58 42.37 21.8 41.65 20.77C40.95 19.73 40.58 18.44 40.54 16.91L44.9 16.91C44.95 17.63 45.15 18.22 45.51 18.7C45.88 19.17 46.37 19.53 46.98 19.77C47.6 20.01 48.29 20.13 49.07 20.13C49.83 20.13 50.5 20.01 51.06 19.79C51.63 19.57 52.07 19.26 52.38 18.87C52.69 18.47 52.85 18.02 52.85 17.5C52.85 17.03 52.7 16.62 52.42 16.3C52.14 15.97 51.73 15.69 51.19 15.46C50.66 15.24 50 15.03 49.23 14.84L46.91 14.26C45.11 13.82 43.69 13.14 42.65 12.21C41.61 11.28 41.09 10.03 41.1 8.45C41.09 7.16 41.44 6.04 42.13 5.07C42.83 4.11 43.79 3.36 45.01 2.82C46.23 2.27 47.62 2 49.17 2C50.75 2 52.14 2.27 53.31 2.82C54.5 3.36 55.42 4.11 56.08 5.07C56.74 6.04 57.08 7.15 57.1 8.42L52.78 8.42Z" fill="#06235B" fill-opacity="1.000000" fill-rule="nonzero"/>
				<path id="Vector" d="M64.65 19L64.66 13.69L65.3 13.69L70.42 7.62L75.51 7.62L68.63 15.65L67.58 15.65L64.65 19ZM60.63 23.6L60.63 2.3L65.06 2.3L65.06 23.6L60.63 23.6ZM70.62 23.6L65.92 16.64L68.87 13.51L75.81 23.6L70.62 23.6Z" fill="#06235B" fill-opacity="1.000000" fill-rule="nonzero"/>
				<path id="Vector" d="M77.97 23.6L77.97 7.62L82.41 7.62L82.41 23.6L77.97 23.6ZM80.2 5.56C79.54 5.56 78.98 5.34 78.5 4.91C78.04 4.46 77.81 3.93 77.81 3.31C77.81 2.7 78.04 2.18 78.5 1.74C78.98 1.3 79.54 1.08 80.2 1.08C80.86 1.08 81.42 1.3 81.89 1.74C82.36 2.18 82.59 2.7 82.59 3.31C82.59 3.93 82.36 4.46 81.89 4.91C81.42 5.34 80.86 5.56 80.2 5.56Z" fill="#06235B" fill-opacity="1.000000" fill-rule="nonzero"/>
				<path id="Vector" d="M90.68 2.3L90.68 23.6L86.25 23.6L86.25 2.3L90.68 2.3Z" fill="#06235B" fill-opacity="1.000000" fill-rule="nonzero"/>
				<path id="Vector" d="M98.95 2.3L98.95 23.6L94.52 23.6L94.52 2.3L98.95 2.3Z" fill="#06235B" fill-opacity="1.000000" fill-rule="nonzero"/>
				<path id="Vector" d="M117.01 9.18C116.86 8.68 116.66 8.23 116.4 7.84C116.13 7.44 115.81 7.11 115.43 6.84C115.05 6.56 114.62 6.35 114.14 6.21C113.66 6.06 113.13 5.99 112.55 5.99C111.46 5.99 110.5 6.26 109.68 6.8C108.86 7.34 108.22 8.13 107.76 9.16C107.3 10.19 107.07 11.44 107.07 12.93C107.07 14.41 107.3 15.67 107.75 16.71C108.2 17.75 108.84 18.55 109.66 19.1C110.49 19.64 111.46 19.91 112.59 19.91C113.61 19.91 114.48 19.73 115.2 19.37C115.93 19 116.48 18.48 116.86 17.82C117.25 17.15 117.44 16.36 117.44 15.45L118.36 15.59L112.87 15.59L112.87 12.2L121.78 12.2L121.78 14.88C121.78 16.75 121.39 18.36 120.6 19.71C119.81 21.05 118.72 22.08 117.33 22.81C115.94 23.53 114.36 23.89 112.57 23.89C110.57 23.89 108.82 23.45 107.3 22.57C105.79 21.68 104.61 20.42 103.77 18.79C102.93 17.16 102.51 15.22 102.51 12.97C102.51 11.24 102.76 9.7 103.26 8.35C103.76 6.99 104.47 5.84 105.38 4.9C106.29 3.95 107.35 3.23 108.55 2.74C109.76 2.25 111.07 2 112.47 2C113.68 2 114.8 2.18 115.84 2.53C116.88 2.88 117.81 3.37 118.61 4.01C119.42 4.65 120.08 5.41 120.6 6.29C121.11 7.16 121.44 8.13 121.59 9.18L117.01 9.18Z" fill="#06235B" fill-opacity="1.000000" fill-rule="nonzero"/>
				<path id="Vector" d="M125.38 23.6L125.38 7.62L129.67 7.62L129.67 10.41L129.84 10.41C130.13 9.42 130.62 8.67 131.31 8.16C131.99 7.65 132.78 7.39 133.68 7.39C133.9 7.39 134.14 7.41 134.39 7.43C134.65 7.46 134.88 7.5 135.07 7.55L135.07 11.48C134.86 11.42 134.58 11.36 134.21 11.31C133.84 11.27 133.5 11.24 133.2 11.24C132.55 11.24 131.97 11.38 131.45 11.67C130.94 11.95 130.54 12.33 130.25 12.83C129.95 13.33 129.81 13.91 129.81 14.56L129.81 23.6L125.38 23.6Z" fill="#06235B" fill-opacity="1.000000" fill-rule="nonzero"/>
				<path id="Vector" d="M144.13 23.91C142.52 23.91 141.12 23.57 139.94 22.88C138.77 22.19 137.86 21.22 137.22 19.99C136.59 18.75 136.27 17.31 136.27 15.67C136.27 14.02 136.59 12.58 137.22 11.35C137.86 10.1 138.77 9.14 139.94 8.45C141.12 7.76 142.52 7.41 144.13 7.41C145.75 7.41 147.14 7.76 148.31 8.45C149.49 9.14 150.4 10.1 151.04 11.35C151.68 12.58 152 14.02 152 15.67C152 17.31 151.68 18.75 151.04 19.99C150.4 21.22 149.49 22.19 148.31 22.88C147.14 23.57 145.75 23.91 144.13 23.91ZM144.15 20.48C144.89 20.48 145.5 20.27 145.99 19.85C146.49 19.43 146.86 18.86 147.11 18.13C147.36 17.4 147.49 16.57 147.49 15.64C147.49 14.71 147.36 13.88 147.11 13.16C146.86 12.43 146.49 11.85 145.99 11.43C145.5 11.01 144.89 10.79 144.15 10.79C143.41 10.79 142.79 11.01 142.28 11.43C141.78 11.85 141.4 12.43 141.14 13.16C140.89 13.88 140.77 14.71 140.77 15.64C140.77 16.57 140.89 17.4 141.14 18.13C141.4 18.86 141.78 19.43 142.28 19.85C142.79 20.27 143.41 20.48 144.15 20.48Z" fill="#06235B" fill-opacity="1.000000" fill-rule="nonzero"/>
				<path id="Vector" d="M46.58 30.54C46.53 30.35 46.44 30.18 46.34 30.03C46.24 29.88 46.11 29.74 45.97 29.64C45.83 29.53 45.66 29.45 45.48 29.39C45.3 29.33 45.09 29.31 44.88 29.31C44.49 29.31 44.14 29.4 43.83 29.6C43.53 29.8 43.29 30.09 43.11 30.47C42.94 30.85 42.85 31.31 42.85 31.85C42.85 32.4 42.94 32.87 43.11 33.25C43.28 33.63 43.52 33.92 43.83 34.12C44.14 34.31 44.5 34.41 44.91 34.41C45.27 34.41 45.59 34.34 45.86 34.2C46.14 34.06 46.35 33.86 46.49 33.6C46.64 33.33 46.71 33.02 46.71 32.67L47.01 32.72L45.04 32.72L45.04 31.69L47.99 31.69L47.99 32.56C47.99 33.18 47.85 33.72 47.59 34.18C47.33 34.63 46.96 34.98 46.5 35.23C46.03 35.47 45.5 35.59 44.9 35.59C44.23 35.59 43.64 35.44 43.13 35.14C42.63 34.84 42.24 34.41 41.95 33.85C41.67 33.3 41.53 32.63 41.53 31.87C41.53 31.28 41.61 30.75 41.78 30.29C41.94 29.83 42.18 29.44 42.48 29.12C42.78 28.79 43.13 28.55 43.54 28.38C43.94 28.21 44.38 28.12 44.86 28.12C45.26 28.12 45.64 28.18 45.99 28.3C46.33 28.42 46.64 28.58 46.91 28.8C47.18 29.01 47.41 29.27 47.58 29.56C47.76 29.86 47.87 30.19 47.93 30.54L46.58 30.54ZM49.96 35.5L49.96 28.22L52.69 28.22C53.25 28.22 53.72 28.32 54.09 28.51C54.48 28.71 54.76 28.98 54.96 29.33C55.16 29.68 55.25 30.08 55.25 30.55C55.25 31.01 55.15 31.42 54.95 31.76C54.76 32.1 54.47 32.37 54.08 32.55C53.7 32.74 53.23 32.83 52.67 32.83L50.73 32.83L50.73 31.74L52.49 31.74C52.82 31.74 53.09 31.69 53.3 31.6C53.5 31.51 53.66 31.38 53.76 31.2C53.86 31.02 53.91 30.81 53.91 30.55C53.91 30.29 53.86 30.07 53.76 29.89C53.66 29.7 53.5 29.56 53.29 29.47C53.08 29.37 52.82 29.32 52.49 29.32L51.28 29.32L51.28 35.5L49.96 35.5ZM53.72 32.2L55.52 35.5L54.05 35.5L52.28 32.2L53.72 32.2ZM63.66 31.86C63.66 32.64 63.52 33.31 63.22 33.87C62.93 34.43 62.53 34.85 62.03 35.15C61.53 35.45 60.96 35.59 60.32 35.59C59.69 35.59 59.11 35.45 58.61 35.15C58.11 34.85 57.71 34.42 57.42 33.87C57.13 33.31 56.98 32.64 56.98 31.86C56.98 31.08 57.13 30.41 57.42 29.85C57.71 29.29 58.11 28.86 58.61 28.57C59.11 28.27 59.69 28.12 60.32 28.12C60.96 28.12 61.53 28.27 62.03 28.57C62.53 28.86 62.93 29.29 63.22 29.85C63.52 30.41 63.66 31.08 63.66 31.86ZM62.34 31.86C62.34 31.31 62.25 30.84 62.08 30.46C61.91 30.08 61.67 29.79 61.37 29.6C61.07 29.4 60.72 29.31 60.32 29.31C59.93 29.31 59.58 29.4 59.27 29.6C58.97 29.79 58.73 30.08 58.56 30.46C58.39 30.84 58.31 31.31 58.31 31.86C58.31 32.41 58.39 32.88 58.56 33.26C58.73 33.64 58.97 33.92 59.27 34.12C59.58 34.31 59.93 34.41 60.32 34.41C60.72 34.41 61.07 34.31 61.37 34.12C61.67 33.92 61.91 33.64 62.08 33.26C62.25 32.88 62.34 32.41 62.34 31.86ZM66.95 35.5L64.9 28.22L66.32 28.22L67.63 33.57L67.7 33.57L69.1 28.22L70.39 28.22L71.79 33.57L71.85 33.57L73.16 28.22L74.58 28.22L72.53 35.5L71.23 35.5L69.77 30.39L69.71 30.39L68.25 35.5L66.95 35.5ZM78.88 28.22L80.36 28.22L82.14 31.44L82.21 31.44L83.99 28.22L85.48 28.22L82.83 32.78L82.83 35.5L81.52 35.5L81.52 32.78L78.88 28.22ZM93.2 31.86C93.2 32.64 93.06 33.31 92.76 33.87C92.47 34.43 92.07 34.85 91.57 35.15C91.07 35.45 90.5 35.59 89.86 35.59C89.22 35.59 88.65 35.45 88.15 35.15C87.65 34.85 87.25 34.42 86.96 33.87C86.66 33.31 86.52 32.64 86.52 31.86C86.52 31.08 86.66 30.41 86.96 29.85C87.25 29.29 87.65 28.86 88.15 28.57C88.65 28.27 89.22 28.12 89.86 28.12C90.5 28.12 91.07 28.27 91.57 28.57C92.07 28.86 92.47 29.29 92.76 29.85C93.06 30.41 93.2 31.08 93.2 31.86ZM91.88 31.86C91.88 31.31 91.79 30.84 91.62 30.46C91.45 30.08 91.21 29.79 90.91 29.6C90.61 29.4 90.26 29.31 89.86 29.31C89.47 29.31 89.12 29.4 88.81 29.6C88.51 29.79 88.27 30.08 88.1 30.46C87.93 30.84 87.84 31.31 87.84 31.86C87.84 32.41 87.93 32.88 88.1 33.26C88.27 33.64 88.51 33.92 88.81 34.12C89.12 34.31 89.47 34.41 89.86 34.41C90.26 34.41 90.61 34.31 90.91 34.12C91.21 33.92 91.45 33.64 91.62 33.26C91.79 32.88 91.88 32.41 91.88 31.86ZM99.73 28.22L101.05 28.22L101.05 32.97C101.05 33.49 100.93 33.95 100.68 34.35C100.44 34.74 100.09 35.05 99.65 35.27C99.21 35.5 98.69 35.61 98.1 35.61C97.5 35.61 96.99 35.5 96.54 35.27C96.1 35.05 95.76 34.74 95.51 34.35C95.27 33.95 95.15 33.49 95.15 32.97L95.15 28.22L96.47 28.22L96.47 32.86C96.47 33.17 96.53 33.44 96.66 33.67C96.8 33.91 96.99 34.1 97.23 34.23C97.48 34.36 97.76 34.43 98.1 34.43C98.43 34.43 98.72 34.36 98.97 34.23C99.21 34.1 99.4 33.91 99.53 33.67C99.67 33.44 99.73 33.17 99.73 32.86L99.73 28.22ZM103.18 35.5L103.18 28.22L105.91 28.22C106.47 28.22 106.94 28.32 107.32 28.51C107.7 28.71 107.99 28.98 108.18 29.33C108.37 29.68 108.47 30.08 108.47 30.55C108.47 31.01 108.37 31.42 108.18 31.76C107.98 32.1 107.69 32.37 107.3 32.55C106.92 32.74 106.45 32.83 105.89 32.83L103.95 32.83L103.95 31.74L105.71 31.74C106.04 31.74 106.31 31.69 106.52 31.6C106.73 31.51 106.88 31.38 106.98 31.2C107.08 31.02 107.13 30.81 107.13 30.55C107.13 30.29 107.08 30.07 106.98 29.89C106.88 29.7 106.72 29.56 106.51 29.47C106.3 29.37 106.04 29.32 105.71 29.32L104.5 29.32L104.5 35.5L103.18 35.5ZM106.94 32.2L108.74 35.5L107.27 35.5L105.5 32.2L106.94 32.2ZM117.52 30.22C117.49 29.91 117.35 29.67 117.1 29.5C116.86 29.32 116.54 29.24 116.15 29.24C115.87 29.24 115.64 29.28 115.44 29.36C115.25 29.45 115.1 29.56 114.99 29.7C114.89 29.84 114.83 30 114.83 30.19C114.83 30.34 114.86 30.47 114.93 30.58C115.01 30.69 115.1 30.79 115.22 30.86C115.34 30.94 115.48 31 115.62 31.06C115.77 31.11 115.92 31.15 116.07 31.19L116.75 31.36C117.02 31.42 117.29 31.51 117.54 31.62C117.8 31.73 118.02 31.86 118.23 32.03C118.43 32.19 118.59 32.39 118.71 32.63C118.83 32.86 118.89 33.14 118.89 33.45C118.89 33.88 118.78 34.25 118.56 34.58C118.34 34.9 118.03 35.15 117.61 35.34C117.21 35.52 116.71 35.61 116.13 35.61C115.56 35.61 115.07 35.52 114.65 35.34C114.24 35.17 113.92 34.91 113.68 34.58C113.45 34.24 113.32 33.83 113.3 33.35L114.6 33.35C114.62 33.6 114.7 33.81 114.84 33.98C114.97 34.15 115.15 34.27 115.37 34.36C115.59 34.44 115.84 34.48 116.12 34.48C116.4 34.48 116.65 34.44 116.87 34.35C117.09 34.26 117.26 34.14 117.38 33.99C117.5 33.83 117.57 33.65 117.57 33.44C117.57 33.25 117.51 33.1 117.4 32.97C117.29 32.85 117.14 32.74 116.94 32.66C116.75 32.58 116.52 32.5 116.26 32.43L115.43 32.22C114.84 32.07 114.36 31.83 114.01 31.52C113.67 31.21 113.5 30.79 113.5 30.27C113.5 29.84 113.61 29.46 113.84 29.14C114.08 28.82 114.4 28.57 114.8 28.39C115.2 28.21 115.66 28.12 116.17 28.12C116.68 28.12 117.13 28.21 117.52 28.39C117.91 28.57 118.22 28.82 118.44 29.13C118.67 29.45 118.78 29.81 118.79 30.22L117.52 30.22ZM120.76 35.5L120.76 28.22L122.08 28.22L122.08 31.56L122.17 31.56L125.01 28.22L126.61 28.22L123.8 31.49L126.64 35.5L125.05 35.5L122.88 32.38L122.08 33.33L122.08 35.5L120.76 35.5ZM129.55 28.22L129.55 35.5L128.23 35.5L128.23 28.22L129.55 28.22ZM131.67 35.5L131.67 28.22L132.99 28.22L132.99 34.39L136.19 34.39L136.19 35.5L131.67 35.5ZM138.04 35.5L138.04 28.22L139.35 28.22L139.35 34.39L142.56 34.39L142.56 35.5L138.04 35.5ZM148.35 30.22C148.32 29.91 148.18 29.67 147.93 29.5C147.69 29.32 147.37 29.24 146.98 29.24C146.71 29.24 146.47 29.28 146.28 29.36C146.08 29.45 145.93 29.56 145.83 29.7C145.72 29.84 145.67 30 145.67 30.19C145.67 30.34 145.7 30.47 145.77 30.58C145.84 30.69 145.93 30.79 146.06 30.86C146.17 30.94 146.31 31 146.46 31.06C146.6 31.11 146.75 31.15 146.9 31.19L147.58 31.36C147.86 31.42 148.12 31.51 148.37 31.62C148.63 31.73 148.86 31.86 149.06 32.03C149.26 32.19 149.42 32.39 149.54 32.63C149.66 32.86 149.72 33.14 149.72 33.45C149.72 33.88 149.61 34.25 149.39 34.58C149.17 34.9 148.86 35.15 148.45 35.34C148.04 35.52 147.54 35.61 146.96 35.61C146.39 35.61 145.9 35.52 145.49 35.34C145.07 35.17 144.75 34.91 144.51 34.58C144.28 34.24 144.16 33.83 144.14 33.35L145.43 33.35C145.45 33.6 145.53 33.81 145.67 33.98C145.81 34.15 145.99 34.27 146.2 34.36C146.43 34.44 146.67 34.48 146.95 34.48C147.24 34.48 147.49 34.44 147.7 34.35C147.92 34.26 148.09 34.14 148.21 33.99C148.34 33.83 148.4 33.65 148.4 33.44C148.4 33.25 148.35 33.1 148.24 32.97C148.13 32.85 147.97 32.74 147.78 32.66C147.58 32.58 147.36 32.5 147.1 32.43L146.27 32.22C145.67 32.07 145.2 31.83 144.85 31.52C144.5 31.21 144.33 30.79 144.33 30.27C144.33 29.84 144.45 29.46 144.68 29.14C144.91 28.82 145.23 28.57 145.63 28.39C146.04 28.21 146.49 28.12 147 28.12C147.52 28.12 147.97 28.21 148.36 28.39C148.75 28.57 149.05 28.82 149.28 29.13C149.5 29.45 149.61 29.81 149.62 30.22L148.35 30.22Z" fill="#545D70" fill-opacity="1.000000" fill-rule="nonzero"/>
				<path id="Vector" d="M0 18.5C0 8.83 7.83 1 17.5 1C27.16 1 35 8.83 35 18.5C35 28.16 27.16 36 17.5 36C7.83 36 0 28.16 0 18.5Z" fill="#6059F7" fill-opacity="1.000000" fill-rule="nonzero"/>
				<mask id="mask6512_50" mask-type="alpha" maskUnits="userSpaceOnUse" x="0.000000" y="1.000000" width="35.000000" height="35.000000">
					<path id="Vector" d="M0 18.5C0 8.83 7.83 1 17.5 1C27.16 1 35 8.83 35 18.5C35 28.16 27.16 36 17.5 36C7.83 36 0 28.16 0 18.5Z" fill="#6059F7" fill-opacity="1.000000" fill-rule="nonzero"/>
				</mask>
				<g mask="url(#mask6512_50)">
					<path id="Vector" d="M13.41 20.31C15.16 20.9 17.06 19.95 17.66 18.17C18.27 16.4 17.34 14.48 15.6 13.89C13.86 13.29 11.95 14.25 11.35 16.02C10.74 17.8 11.67 19.72 13.41 20.31Z" fill="#FFFFFF" fill-opacity="1.000000" fill-rule="nonzero"/>
					<path id="Vector" d="M17.25 11.26L16.93 10.2L17.36 11.22L17.25 11.26Z" fill="#FFFFFF" fill-opacity="1.000000" fill-rule="nonzero"/>
					<path id="Vector" d="M17.49 11.61L17.46 11.34L17.31 11.12L17.2 11.32L17.22 11.57L17.24 11.81L17.39 11.95L17.51 11.83L17.49 11.61ZM17.31 11.45C17.31 11.43 17.3 11.41 17.31 11.38C17.31 11.36 17.32 11.34 17.33 11.32C17.36 11.39 17.34 11.5 17.31 11.45ZM17.27 11.74C17.26 11.72 17.26 11.69 17.27 11.67C17.27 11.65 17.28 11.62 17.29 11.6C17.32 11.68 17.3 11.79 17.27 11.74ZM17.4 11.62C17.39 11.6 17.39 11.57 17.39 11.55C17.4 11.52 17.41 11.5 17.42 11.48C17.44 11.55 17.42 11.66 17.4 11.62ZM17.39 11.81C17.38 11.78 17.38 11.76 17.38 11.74C17.39 11.71 17.4 11.69 17.41 11.67C17.44 11.75 17.41 11.86 17.39 11.81Z" fill="#FFFFFF" fill-opacity="1.000000" fill-rule="nonzero"/>
					<path id="Vector" d="M17.37 10.1C17.37 10.1 15.2 10.06 12.34 8.55C12.34 8.55 9.98 12.7 8.05 13.92C8.05 13.92 9.49 13.44 10.54 13.44L10.57 13.4L10.59 13.38C10.6 13.36 10.62 13.33 10.65 13.29C10.71 13.22 10.8 13.11 10.91 13C10.97 12.94 11.03 12.88 11.09 12.82C11.16 12.76 11.23 12.69 11.31 12.62C11.38 12.56 11.46 12.49 11.54 12.43C11.63 12.36 11.72 12.31 11.8 12.24C11.89 12.18 11.98 12.13 12.07 12.07L12.33 11.92L12.58 11.79C12.66 11.75 12.75 11.72 12.82 11.68C12.89 11.65 12.95 11.62 13.01 11.6L13.17 11.54L13.3 11.49L13.17 11.55L13.02 11.62C12.96 11.64 12.9 11.68 12.83 11.71C12.76 11.75 12.68 11.78 12.6 11.83L12.36 11.97L12.11 12.13C12.03 12.19 11.94 12.25 11.86 12.31C11.78 12.38 11.7 12.44 11.62 12.51C11.54 12.58 11.47 12.65 11.4 12.72C11.33 12.79 11.26 12.85 11.2 12.92C11.14 12.98 11.08 13.05 11.03 13.1C10.93 13.22 10.85 13.32 10.8 13.4C10.78 13.43 10.76 13.46 10.75 13.48L10.73 13.51L10.7 13.56C10.82 13.68 10.9 13.82 10.94 13.98C10.98 14.13 10.98 14.3 10.93 14.46C10.93 14.46 13.1 12.39 16.01 12.77C16.01 12.77 15.95 11.1 17.37 10.1Z" fill="#FFFFFF" fill-opacity="1.000000" fill-rule="nonzero"/>
					<path id="Vector" d="M8.63 21.29C8.68 21.38 9.19 21.41 9.28 21.43C9.85 21.53 10.43 21.61 11.01 21.65C12.68 21.76 14.41 21.64 16 21.04C17.38 20.52 18.41 19.9 19.6 19.06C21.08 18 22.54 16.4 23.94 15.34C22.23 19.7 19.93 23.8 17.1 27.51C14.51 30.91 11.42 33.96 7.8 36.21C6.26 37.17 4.64 37.96 2.95 38.58C2.95 38.58 8.68 34.9 12.69 28.63C12.69 28.63 5.64 35.05 2.67 35.37C2.67 35.37 6.98 33.21 8.64 27C8.64 27 15.19 26 17.25 22.82C17.25 22.82 14.7 24.49 9.85 23.51L8.63 21.29Z" fill="#FFFFFF" fill-opacity="1.000000" fill-rule="nonzero"/>
					<path id="Vector" d="M18.87 17.57L19.23 16L27.35 10.2L26.16 9.9L28.64 9.3L27.57 11.69L27.49 10.45L20.41 17.52L18.87 17.57Z" fill="#FFFFFF" fill-opacity="1.000000" fill-rule="nonzero"/>
				</g>
			</g>
		</g>
	</g>
</svg>
